<svg xmlns="http://www.w3.org/2000/svg" viewBox="0 0 789 406"><g id="background"><path fill="#F3F3F3" d="M7.976 247.025s-2.038 15.192 42.77 16.188c44.823 1.02 48.895 12.15 62.134 9.116 13.238-3.04 26.476-16.19 27.494-26.31m-60.08 114.41c-6.21.1-20.365 18.26-1.018 20.28 19.347 1.993 66.188-3.04 78.41 12.13 12.218 15.185 46.84 15.185 86.574 10.122 39.735-5.065 177.22-13.15 104.908-34.404-72.323-21.26-193.51-9.097-268.884-8.095m705.784-114.46s11.2 23.28-10.182 25.31c-21.384 2.02-26.48 34.404-65.17 34.404-38.696 0-73.32 8.093-80.447-4.048-7.13-12.143-75.36 7.092-72.3-5.997 3.05-13.087 105.9-19.184 112.01-34.375 6.11-15.187 41.75-15.687 41.75-15.687m-529.59-.607s-11.208 30.353 29.53 31.375c40.73 1 73.32-4.053 109.972 18.21 36.68 22.26 117.14 31.378 161.94 12.138 44.806-19.22 47.86-36.43 89.63-38.447 41.75-2.1 69.247-1.1 72.302-23.283"/><path fill="#FFF" d="M0 245.01h228.042"/><path fill="none" stroke="#999" stroke-width=".5" stroke-miterlimit="10" d="M0 245.01h228.042"/><path fill="#FFF" d="M344.044 245.51h228.054"/><path fill="none" stroke="#999" stroke-width=".5" stroke-miterlimit="10" d="M344.044 245.51h228.054"/><path fill="#FFF" d="M624.11 245.51h24"/><path fill="none" stroke="#999" stroke-width=".5" stroke-miterlimit="10" d="M624.11 245.51h24"/><path fill="#FFF" d="M713.123 245.51h51.502"/><path fill="none" stroke="#999" stroke-width=".5" stroke-miterlimit="10" d="M713.123 245.51h51.502"/></g><g id="people-02"><path fill="#8ABFA1" d="M239.04 192.596l-11.1 52.93h66.882l-12.43-52.93h-43.35z"/><path fill="#FFF" d="M239.37 192.435l-19.65 86.46"/><path fill="none" stroke="#FFF" stroke-miterlimit="10" d="M239.37 192.435l-19.65 86.46"/><path fill="#FFF" d="M248.49 193.765l-13.13 85.32"/><path fill="none" stroke="#FFF" stroke-miterlimit="10" d="M248.49 193.765l-13.13 85.32"/><path fill="#FFF" d="M282.72 192.435l19.642 86.46"/><path fill="none" stroke="#FFF" stroke-miterlimit="10" d="M282.72 192.435l19.642 86.46"/><path fill="#FFF" d="M273.59 193.765l13.132 85.32"/><path fill="none" stroke="#FFF" stroke-miterlimit="10" d="M273.59 193.765l13.132 85.32"/><path fill="#466790" d="M292.79 188.926c0 3.32-13.298 6-29.728 6s-29.73-2.68-29.73-6 13.4-6 29.8-6 29.8 2.68 29.8 6"/><path fill="#FCE4E0" d="M315.46 252.534l9.07 26.052 5.1-1-3-26.052-11.17 1z"/><path fill="#2E2D29" d="M328.562 268.564s4.03 5 10.08 6.02c6.05 1 10.08 0 10.08 3 0 3.002-5.04 4.002-27.2 3.002 0-5 .5-9.18.5-9.18s5.54 5.18 6.54-2.842"/><path fill="#FCE4E0" d="M293.35 233.104l-9.97 25.7 4.5 2.48 14.602-21.84-9.13-6.34z"/><path fill="#2E2D29" d="M292.96 253.746s-.17 6.42 3.802 11.06c3.97 4.64 7.7 6.46 5.75 8.76-2 2.3-6.5-.17-22.8-15.15 3.2-3.83 6.3-6.7 6.3-6.7s.8 7.5 6.8 2.03"/><path fill="#D4D8D9" d="M231.82 172.395c-.25.97-3.03 18.03 31.242 19.03 34.27 1 37.28 1 37.28 1s1 35.07 14.1 64.12c7.07 1 15.13-2 15.13-2s-2-59.1-5.04-77.14c-3-18.03-62.4-19.04-62.4-19.04s-28.2 6.02-30.2 14.03"/><path fill="#AEB8B7" d="M300.352 192.435l-12.1 41.07 16.13 7.002 6.04-18.02-10.07-30.052z"/><path fill="#CEC6C3" d="M268.6 170.396l64.5 1-19.148-20.53-28.23-1-17.12 20.53z"/><path fill="#CEC6C3" d="M314.452 151.365v-27.07s.04-2.64 1.65-3c4.4-1 14.4-2 14.4-2s2.47 0 2.47 4v48.1l-18.52-20.05v.02z"/><path fill="#F8CA50" d="M268.1 122.305s15.1 7 16.12 0c1-7 2.022-15.03-24.2-38.07-7.04 1-4.02 16.03-4.02 16.03s10.08 20.04 12.1 22.04"/><path fill="#FBD870" d="M271.122 151.365c4.03-45.1-15.12-62.12-15.12-62.12s0 5-3.02 5-10-7.7-11.1-6c0 0-13.1 10.02-17.12 19.03-4.02 9.01-5.042 36.09-4.04 49.09 1 13.002 0 16.03 19.16 15.03 19.16-.998 33.24-14.028 33.24-14.028s-2.18-5.932-2-6.002"/><path fill="#F8CA50" d="M243.92 120.305l-4.05 32.06 12.1-1-7.06-10.03-.99-21.03z"/><path fill="#2F2E2A" d="M248.46 63.915s15.562 4 14.9-.67c4.44-4.43-7.78-11.34-14.7-8.7-6.92 2.66-6.15 4.5-6.15 4.5s-2.9 2.48-2.398 8.3c.5 5.85 2.7 9.35 7.6 14.05 4.9 4.7.6-17.48.6-17.48"/><path fill="#FCE4E0" d="M263.35 63.195c1.7 4.78 3.63 13.38.44 19.18-3.27 6-8.86 4.8-16.54-1.1.12-1.8 1.14-3.5-1-5-2.14-1.5-3.77-3.8-2.34-5 1.4-1.2 3.802 2.5 3.802 2.5s-1.6-10.4.3-11.1c9.3 3.6 15.5 2.2 15.2.7"/><path fill="#FCE4E0" d="M256.39 85.445s-2.16 5.2.34 8.05c-4.3 3.73-10.2 2.2-13.8-4.3 2.2-2.85 4.6-10.62 4.6-10.62l9 6.9-.14-.03z"/><path fill="#2F2E2A" d="M263.85 82.365c.6-1.18 1.182-2.64 1.36-4.2-1 .5-4.2.7-5.2-.94-.9 3.38-12.5 1.08-12.5 1.08-.9-.25-2.4.04-.4 2.68 7.61 5.88 13.51 7.4 16.61 1.38"/><path fill="#FCE4E0" d="M271.122 151.365l9.07-2s6.05-2.02 7.048 1c1 3-6.04 3-6.04 3l-9.07 4-1-6h-.008z"/></g><g id="people-01"><path fill="#999" d="M110.98 362.85l-3.67-1.05 11.3-46.85 7.33 2.1-14.96 45.8z"/><path fill="none" stroke="#999" stroke-miterlimit="10" d="M79.23 349.236c1 1.002 29.22 12.895 29.22 12.895l35.9 25.27"/><path fill="none" stroke="#999" stroke-miterlimit="10" d="M67.2 367.314l41.08-5.008 27.05-3.03"/><path fill="#999" d="M138.93 363.03c.38 2.454-.5 4.624-1.97 4.853-1.47.203-2.97-1.602-3.35-4.102-.38-2.5.5-4.6 1.96-4.9 1.47-.3 2.97 1.5 3.36 4.01m-69.38 9.31c.14 3.005-1.23 5.606-3.07 5.606-1.83.1-3.43-2.342-3.57-5.402-.13-3.06 1.24-5.606 3.08-5.687 1.83-.104 3.43 2.3 3.56 5.402m76.8 19.57c0 3.605-2.9 6.51-6.5 6.51s-6.52-2.904-6.52-6.51c0-3.604 2.9-6.555 6.5-6.555s6.52 2.94 6.52 6.547m-63.62-39.43c0 1.94-1.57 3.505-3.5 3.505s-3.52-1.563-3.52-3.504c0-1.944 1.57-3.505 3.5-3.505s3.52 1.56 3.52 3.503"/><path fill="#F8CA50" d="M158.13 314.92c-1.88 6.375-17.83 7.28-35.62 2.004-17.8-5.275-30.7-14.717-28.8-21.104 1.88-6.39 17.83-7.28 35.62-2.004 17.8 5.268 30.7 14.717 28.8 21.104"/><path fill="#232426" d="M153.87 200.12s-10.86 5.106-14.86-11.962c-22.05 0-65.3 2.924-75.32 4.935-21.04-16.066-33.07-30.13-33.07-30.13l-8.1 2s33.11 36.16 38.11 41.184c5 5.025 10.498 9.54 42.6 8.54 0 0-15.542 43.675-.5 64.767 46.08-11.06 50.598-14.566 50.598-14.566l-1-30.13 20.03 29.13 18.03-3.002s-9-27.13-36.58-60.765"/><path fill="#CEC6C3" d="M156.37 264.887L168.4 217.7s0-6.028 8-4.024c8 2 48.1 11.05 48.1 11.05s5.02 2.003 2.002 6.026c-3 4.005-19.2 24.927-19.2 24.927l-50.932 9.2z"/><path fill="#FCE4E0" d="M30.13 163.483s-7.03-11.072-8.04-14.076c-1-3.022-2 9.03 2 16.058 3.02 1 6.02-2.003 6.02-2.003"/><path fill="#2F2E2A" d="M154.85 157.736s9.3 5.476 21.92 5.507c3.57-6.006-7.63-18.85-17.93-18.02-10.2.82-9.9 3.604-9.9 3.604s-4.8 2.203-6.5 10.25c-1.6 8.06-.1 13.655 4.7 21.923 4.8 8.28 7.9-23.265 7.9-23.265"/><path fill="#FCE4E0" d="M175.66 163.382s-1.12 18.39-7.67 25.286c-6.56 6.887-13.73 2.884-21.63-8.078.87-2.402 2.9-4.305.64-7.107-2.27-2.904-3.52-6.708-1.1-7.81 2.4-1.1 4.16 4.906 4.16 4.906s2.1-14.62 4.86-14.92c.6 1.9 10.4 6.91 20.7 7.61"/><path fill="#FCE4E0" d="M156.89 189.86s-4.8 6.026-2.6 10.85c-7.23 3.303-14.74-1-16.96-11.21 4-3.003 10.53-12.113 10.53-12.113l9.03 12.413v.06z"/><path fill="#2F2E2A" d="M12.21 151.99l2.64-.63 19.44 1.602.2 1.6-19.46-1.59-2.82-.982z"/><path fill="#D96443" d="M333.08 352.828l12.08 10.662 28.05-37.37s-27.7 1.522-43.54 22.353c2.62 2.625 3.4 4.355 3.4 4.355"/><path fill="#FCE4E0" d="M315.09 321.746l24 16.838s8.8 0 9.6.803c.8.8-14.4 14.434-14.4 14.434l-27.2-22.45 8-9.61v-.01zm-145.7 19.463l-10 6.02-3-3.01 11-9.05 2 6.03z"/><path fill="#D96443" d="M160.55 347.074l2.84 8.188-10.02-8.027 3-3.004 4.18 2.85z"/><path fill="#466790" d="M102.27 278.453s4.8 27.258 40.8 27.258c36.8-12.01 79.2-21.64 79.2-21.64s35.2 33.68 84.02 48.9c4.8-6.4 11.202-12.81 11.202-12.81l-89.602-66.47s-82.42 8.81-125.62 24.93"/><path fill="#3F5D7F" d="M180.43 294.02s18.03 20.08 27.05 26.098c9.02 6.025-15.03 17.076-38.08 21.092-3-3.006-4-5.025-4-5.025l17.03-16.066-41.92-14.9 39.9-11.22.02.01z"/><path fill="#FFF" d="M196.95 238.28c0 3.324-2.7 6.026-6 6.026s-6.02-2.702-6.02-6.026c0-3.323 2.7-6.026 6-6.026s6.027 2.703 6.027 6.026"/></g><g id="people-03"><path fill="#FCE4E0" d="M477.82 24.178s-1.42-4.8-1.02-7.03c.4-2.2 1.3-9.8 5.142-10.94 3.8-1.2 2.5 8.6 1.7 13.1-.802 4.4-.902 7.5-.902 7.5l-5-2.7.08.07zm-150.83 79.1s-3.5 1-4.5 2-2.02 3.03-3.02 2.03c-1.002-1.1 2-3.1 2-3.1s-4 1-6 1-2-5 9-7c11.04-2 2.52 5 2.52 5m152.39 143.2l7.1 9.7 4.42-4.48-6.198-12.44-5.32 7.22z"/><path fill="#D96441" d="M481.6 250.22s1.332 7.778-1.33 10.437c-2.658 2.672-7.1 5.33-6.2 8.883.88 3.56 12.4 3.56 15.062-2.662s5.32-14.22 5.32-14.22-3.54-6.2-4.43-6.2c-.9 0 .898 7.102 0 7.102s-3.55-5.783-8.42-3.34"/><path fill="#FCE4E0" d="M386.284 253.55s.88 5.33-.9 8.897c-1.76 3.54.9 7.102 4.44 7.102 3.54 0 4.44-.9 5.32-6.23.9-5.3 0-11.5 0-11.5l-8.86 1.8v-.08z"/><path fill="#D96441" d="M395.145 265.098s0 3.56-4.43 2.67c-4.43-.9-3.55-4-4.43-6-.9-2-4.442 3.33-4.442 5.1 0 1.8-8.86 1.8-11.52 2.672-2.66.898-4.44 0-4.44 4.45 0 4.438 6.2 2.657 12.42 2.657h17.74c.002 0 .882-10.66-.898-11.55"/><path fill="#2F2E2A" d="M410.215 29.677s9.762-1.78 9.762-7.1c-4.432-3.56-19.53 1.26-19.53 7.5 0 6.2 2.68 12.9 7.118 15.6 7.972-3.58 5.3-14.24 2.65-16"/><path fill="#DFA371" d="M414.646 51.887s-14.182 3.55-16.842 5.33c-2.66 1.77-34.583 23.1-37.243 25.76-2.65 2.67-33.7 10.66-34.57 14.22 0 5.32 1.77 7.1 1.77 7.1s36.36-8 44.34-10.66c7.98-2.66 23.05-8.88 23.05-8.88s7.1 22.2 7.98 24.872c.9 2.69.9 10.3.9 10.3s15.95 8.89 40.77-1.71c3.55-27.61 2.65-39.71 2.65-39.71s10.65-5.33 20.4-5.33c9.75 0 13.3-4.46 15.07-18.68 1.78-14.2 1.78-31.1 1.78-31.1l-8.87-.9s-5.32 16-7.1 22.2c-1.77 6.2-2.65 9.8-2.65 9.8s3.54 3.5-17.73 0c-21.28-3.6-26.6-4.5-33.7-2.7"/><path fill="#B77344" d="M406.965 67.877c-.3 1.77 4.142 11.55 4.142 11.55l5.32-10.6-5.02-3.8-4.442 3v-.15z"/><path fill="#FCE4E0" d="M419.977 23.458s11.52 20.43.88 24.87c-.4 3.2.9 3.6.9 3.6s-2 12-10.602 15.3c-3.8-5-3.5-11.6-3.5-14.3v-9.91s-4.4 0-3.5-6.23c.9-6.22 5.3-1.77 6.2 1.78 0-.9-2.6-10.66-2.6-10.66s10.63 0 12.4-4.5"/><path fill="#80B0BC" d="M443.918 113.187s7.1 8.88 7.98 76.4c2.65 4.44 25.703 25.76 34.572 47.97-2.66 7.1-7.1 11.55-7.1 11.55l-49.625-48s-19.5-63.09-17.73-80.89c12.4 1.78 30.143-3.55 31.922-7.1"/><path fill="#80B0BC" d="M411.996 120.288l-8.87-5.33s-19.502 56.86-20.402 66.63c-.88 9.77-2.65 55.97-.88 65.74 1.78 9.802 1.78 8.9 7.1 8.9h5.32s10.63-40.8 9.75-63c8.86-16 17.733-29.3 18.623-36.4 0-7.1-10.7-36.4-10.7-36.4"/><path fill="#FFF" d="M407.626 53.387c-1.33 1.67-5.4 6.5-3.6 17.15 3.538-3.55 7.08-3.55 7.08-3.55s-4.23-8-3.48-13.6m13.52-2.4s-2.062 12.45-10.04 16c2.658 1.78 6.2 4.44 6.2 4.44s8-11.5 7.1-20.4c-1.77-.898-3.25 0-3.25 0"/><path fill="#2F2E2A" d="M484 11.297l-2.24 4.78c-.698 1.54-2.5 2.2-4 1.47l-12.5-5.9c-1.5-.73-2.2-2.56-1.4-4.1l2.26-4.78c.73-1.54 2.57-2.2 4.1-1.47l12.502 5.9a3.1 3.1 0 0 1 1.502 4.1"/></g><g id="people-05"><path fill="#8ABFA1" d="M659.305 176.395l-11.03 70.1h65.2l-11.05-70.1h-43.12z"/><path fill="#FFF" d="M659.305 114.795c0 1.65-1.35 3-3 3s-3.02-1.35-3.02-3c0-1.67 1.35-3 3-3s3.02 1.33 3.02 3m0 61.6l-19.56 128.2"/><path fill="none" stroke="#FFF" stroke-miterlimit="10" d="M659.305 176.395l-19.56 128.2"/><path fill="#FFF" d="M668.385 178.365l-13.06 126.53"/><path fill="none" stroke="#FFF" stroke-miterlimit="10" d="M668.385 178.365l-13.06 126.53"/><path fill="#FFF" d="M702.424 176.395l19.57 128.2"/><path fill="none" stroke="#FFF" stroke-miterlimit="10" d="M702.424 176.395l19.57 128.2"/><path fill="#FFF" d="M693.363 178.365l13.062 126.53"/><path fill="none" stroke="#FFF" stroke-miterlimit="10" d="M693.363 178.365l13.062 126.53"/><path fill="#466790" d="M712.464 172.895c0 3.3-13.25 6-29.6 6s-29.58-2.7-29.58-6c0-3.33 13.25-6.02 29.6-6.02s29.58 2.7 29.58 6"/><path fill="#2F2E2A" d="M693.363 41.545s-8.768 2.67-19.23.2c-1.71-5.65 10.09-14.05 18.49-11.32 8.36 2.72 7.56 4.96 7.56 4.96s3.55 2.7 3.33 9.7c-.2 7-2.7 11.3-8.2 17.1-5.6 5.9-1.9-20.7-1.9-20.7"/><path fill="#FCE4E0" d="M675.725 41.556s-3.42 15.9.64 22.898c4.06 6.98 10.78 5.1 19.5-2.38-.25-2.1-1.562-4.078.88-5.98 2.44-1.9 4.23-4.8 2.46-6.18-1.778-1.38-4.43 3.2-4.43 3.2s1.16-12.42-1.07-13.2c-2.05.77-12.13 1.46-18 1.64"/><path fill="#FCE4E0" d="M685.324 67.635s1.84 6.55-.94 10.1c5.32 4.15 17.2 3.932 21.062-4.02-8.03-4-9.96-14.8-9.96-14.8l-10.172 8.72h.01zm-71.658 192.9l3 19.03 11.04-1-1-21.04-13.04 3.01z"/><path fill="#D96441" d="M616.676 279.564s-17.05 13.03-17.05 15.03 32.1-7.02 31.1-9.02-3.02-9.02-3.02-9.02l-11.03 3v.01z"/><path fill="#FCE4E0" d="M566.098 214.715l-8.62 15.63 8.65 5.52 11.22-15.97-11.25-5.18z"/><path fill="#D96441" d="M557.477 230.344s-19.88-.148-21.02 1.332c-1.14 1.47 27.48 13.07 27.88 11.03.5-2 3-8.3 3-8.3l-9.8-4.002-.06-.06z"/><path fill="#4B5360" d="M657.805 170.396s-26.08 18-36.1 19c9 34.05 7 69.1 7 69.1l-17.04 4.02-15.038-88.12c0-.002 47.13-6.02 61.178-4"/><path fill="#FFCD00" d="M664.825 142.335l1-19.03-17.05-1v-8l12.03-1s6.02-38 21.07-38c2.24 0 8.02 8 23.068-1 8.02 1 19.06 3 19.06 19.1s2.998 40.1-7.02 41.1l-2 16s-20.07 5-50.16-8"/><path fill="#FBD870" d="M670.825 97.255l-3 14.028-3 2h5l1-16.028z"/><path fill="#FCE4E0" d="M644.766 114.295l-12.04-1s-4-1-6.02 0c-2 1-5 3 0 4 5.02 1 12.04 1 12.04 1s6.35 4.34 13.2 4.17c1.68-7.34 1.68-8 1.68-8l-8.86-.18v.01z"/><path fill="#FBD870" d="M706.943 101.265c0 1-.998 16.03-.998 16.03l-16.05 1 13.038-5 4.1-12.03h-.09z"/><path fill="#2F2E2A" d="M644.766 101.265l23.568-.5-.5 34.562h-21.998l-1.07-34.062zm-24.08 0l2 3 7.03 25.05-2.1 1-7-25.04.07-4.01z"/><path fill="#555C6C" d="M713.123 150.515s-1.16 23.87-28.24 23.87-87.266 1-87.266 1l-21.1 47-15.1-7s13-55.1 33.1-61.1c19.998-6.1 52.098-5.1 62.098-7.1s15.02-9 15.02-9l41.3 12.2.188.13z"/><path fill="none" stroke="#000" stroke-miterlimit="10" d="M681.983 49.456l9.772-.142s1.178 4.1-1.822 4.53c-2.998.4-9 1.25-7.9-4.4l-.05.012z"/><path fill="none" stroke="#000" stroke-miterlimit="10" d="M681.445 49.456l-7.9-.5s-.8 4.048 1.63 4.568c2.43.52 7.3 1.572 6.27-4.068z"/><path fill="none" stroke="#000" stroke-miterlimit="10" d="M690.695 49.335l8.857-.48" stroke-linecap="round" stroke-linejoin="round"/><path fill="#FCE4E0" d="M689.895 118.295s3 6 1.998 12.02c-17.04-3.998-21.047-6-21.047-6s-8.7 0-10.87-1.5c-2.17-1.52 1.84-6.53 5.85-6.53 4 0 6.02 1.002 6.02 1.002l18.05.998v.01z"/></g><g id="people-04"><path fill="#D4D8D7" d="M473.1 181.637s-25.1 14.1-25.1 17.142c0 3.01 11.04 77.63 12.04 84.7 7.002 1 9.002 0 9.002 0l3-72.61 42.4-29.24s-13.3-23.2-41.502 0"/><path fill="#D4D8D7" d="M530.7 194.948s-11.67 11.72-27.728 12.9c1.06 5.02 11.74 67.43 12.83 75.48-4 2.062-10.03 1.12-10.03 1.12s-33.94-77.3-32.96-80.332c.97-3 28.87-24.5 28.87-24.5s18.55-2.2 29.02 15.4"/><path fill="#2F2E2A" d="M505.78 79.925s-8.1 2.48-17.78.2c-1.62-5.27 9.302-13.06 17.022-10.53 7.73 2.5 7 4.6 7 4.6s3.27 2.5 3.06 9c-.2 6.4-2.44 10.4-7.58 15.9-5.15 5.4-1.72-19.3-1.72-19.3"/><path fill="#FCE4E0" d="M489.472 79.935s-3.16 14.78.6 21.28c3.75 6.5 9.96 4.8 18.02-2.2-.23-1.9-1.45-3.8.8-5.5 2.27-1.7 3.92-4.4 2.28-5.7-1.64-1.3-4.08 3-4.08 3s1.07-11.5-1-12.3c-1.9.7-11.2 1.4-16.62 1.6"/><path fill="#FCE4E0" d="M498.352 104.176s2.65 5.63.08 8.92c4.92 3.8 11.358 1.8 14.9-5.6-2.5-3.1-5.6-11.5-5.6-11.5l-9.4 8.1.02.08z"/><path fill="#F35925" d="M497.2 110.046s-.63 6.56 6.4 4.54c7.03-2.02 7.65-9.58 12.672-8.57 5.018 1.01 22.1 3.1 24.1 20.2 2 17.1 6.03 33.3 3.02 42.4-3.02 8.1-8.04 7.1-8.04 7.1s0 15.1-3 19.202c-3 4.1-1-10.1-32.14-13.1-2-1-5.02-7.05-5.02-7.05s-4.022 7.06-8.04 7.06H473.1s5.02-9.1 5.02-10.1-3-1-4.02-8.05c-1-7.07-1-28.24 3-37.3 4.03-9.102 12.06-15.14 20.1-16.152"/><path fill="#FFF" d="M491.17 149.367c1 2.02 4.022-7.05 7.03-14.1 2.352-5.53 9.6-20.902 17.94-29.272-4.9-.9-5 5-12 7s-7-3.1-7-3.1-10.1 7.1-6 39.3"/><path fill="#DD4A22" d="M524.31 138.276l4.002 18.15s-12.04 3.03-17.06 4.03c5.02-4.03 14.06-5.04 13.06-22.18"/><path fill="#CEC6C3" d="M481.132 166.507h15.06v3.02h-15.06v-3.02z"/><path fill="#CEC6C3" d="M415.69 169.537h68.25c-1.2-5.67-7-33.9-8.1-39.58-1.3-6.3-5.8-5.8-5.8-5.8h-57.19c-6.02 0-4 5.05-4 5.05l6.84 40.33z"/><path fill="#FCE4E0" d="M492.43 166.257l-.248-2.77s-9.54 1-8.3 3.02c1.27 2.02 8.55-.25 8.55-.25"/><path fill="#FFF" d="M446.99 147.356c0 2.23-1.8 4.03-4.02 4.03-2.22 0-4-1.8-4-4.03 0-2.23 1.8-4.03 4-4.03s4.02 1.8 4.02 4.03"/><path fill="#FCE4E0" d="M507.25 283.47l4 9.08 4.02-1-1-9.1-7.02 1.02z"/><path fill="#2E2D29" d="M518.28 294.56s-2 3.03-11.04 6.052c-9.04 3.02-11.1.998-6.1-2 5-3.04 5-8.082 7-9.102 10 3.04 7-1.998 7-1.998h1s3 5.04 2 7.047"/><path fill="#FCE4E0" d="M461.222 281.61l2.2 9.68 4.14-.2.8-9.1-7.14-.38z"/><path fill="#2E2D29" d="M469.93 294.63s-2.55 2.58-12 3.8c-9.448 1.22-11.028-1.148-5.52-3.15 5.5-2 6.47-6.94 8.64-7.54 9.272 4.9 7.28-.618 7.28-.618l1 .2s1.972 5.6.6 7.397"/><path fill="#2F2E2A" d="M491.67 72.905s-8.028 4.37-11.04 3.37c-2 2 9.04 6.38 20.082 2.68"/><path fill="#D4D8D9" d="M380.972 169.027h226.93v7.06h-226.93v-7.06zm230.45 126.043l-19.07-118.983h5l19.1 118.983h-5.03zm-34.15 0L558.2 176.087h5.02L582.3 295.07h-5.028zm-199.82 0l19.1-118.983h-5.02l-19.08 118.983h5zm34.15 0l19.07-118.983h-5.02L406.58 295.07h5.02z"/></g></svg>