<svg xmlns="http://www.w3.org/2000/svg" id="people-01" viewBox="0 0 361 253"><path fill="#999" d="M99.25 218.86l-3.67-1.05 11.3-46.8 7.33 2.1z"/><path fill="none" stroke="#999" stroke-miterlimit="10" d="M67.5 205.26c1 1 29.22 12.88 29.22 12.88l35.9 25.24"/><path fill="none" stroke="#999" stroke-miterlimit="10" d="M55.47 223.32l41.08-5 27.05-3.03"/><path fill="#999" d="M127.2 219.04c.38 2.45-.5 4.62-1.97 4.85-1.47.2-2.97-1.6-3.35-4.1s.5-4.6 1.96-4.9c1.47-.3 2.97 1.5 3.36 4m-69.38 9.3c.14 3-1.23 5.6-3.07 5.6-1.83.1-3.43-2.34-3.57-5.4-.13-3.05 1.24-5.6 3.08-5.68 1.83-.1 3.43 2.3 3.56 5.4m76.8 19.55c0 3.6-2.9 6.5-6.5 6.5s-6.52-2.9-6.52-6.5 2.9-6.55 6.5-6.55 6.52 2.94 6.52 6.54M71 208.26c0 1.94-1.57 3.5-3.5 3.5s-3.52-1.56-3.52-3.5 1.57-3.5 3.5-3.5 3.52 1.56 3.52 3.5"/><path fill="#F8CA50" d="M146.4 170.98c-1.88 6.37-17.83 7.27-35.62 2-17.8-5.27-30.7-14.7-28.8-21.08 1.88-6.38 17.83-7.27 35.62-2 17.8 5.26 30.7 14.7 28.8 21.08"/><path fill="#232426" d="M142.14 56.3s-10.86 5.1-14.86-11.95c-22.05 0-65.3 2.92-75.32 4.93-21.04-16.05-33.07-30.1-33.07-30.1l-8.1 2S43.9 57.3 48.9 62.32c5 5.02 10.5 9.53 42.6 8.53 0 0-15.54 43.63-.5 64.7C137.08 124.5 141.6 121 141.6 121l-1-30.1 20.03 29.1 18.03-3s-9-27.1-36.58-60.7"/><path fill="#CEC6C3" d="M144.64 121l12.03-47.14s0-6.02 8-4.02 48.1 11.04 48.1 11.04 5.02 2 2 6.02c-3 4-19.2 24.9-19.2 24.9l-50.93 9.2z"/><path fill="#FCE4E0" d="M18.4 19.7S11.37 8.64 10.36 5.64c-1-3.02-2 9.02 2 16.04 3.02 1 6.02-2 6.02-2"/><path fill="#2F2E2A" d="M143.12 13.96s9.3 5.47 21.92 5.5c3.57-6-7.63-18.83-17.93-18-10.2.82-9.9 3.6-9.9 3.6s-4.8 2.2-6.5 10.24c-1.6 8.05-.1 13.64 4.7 21.9 4.8 8.27 7.9-23.24 7.9-23.24"/><path fill="#FCE4E0" d="M163.93 19.6s-1.12 18.37-7.67 25.26c-6.56 6.88-13.73 2.88-21.63-8.07.87-2.4 2.9-4.3.64-7.1-2.27-2.9-3.52-6.7-1.1-7.8 2.4-1.1 4.16 4.9 4.16 4.9s2.1-14.6 4.86-14.9c.6 1.9 10.4 6.9 20.7 7.6"/><path fill="#FCE4E0" d="M145.16 46.05s-4.8 6.02-2.6 10.84c-7.23 3.3-14.74-1-16.96-11.2 4-3 10.53-12.1 10.53-12.1l9.03 12.4z"/><path fill="#2F2E2A" d="M.48 8.22l2.64-.63 19.44 1.6.2 1.6L3.3 9.2z"/><path fill="#D96443" d="M321.35 208.85l12.08 10.65 28.05-37.33s-27.7 1.52-43.54 22.33c2.62 2.62 3.4 4.35 3.4 4.35"/><path fill="#FCE4E0" d="M303.36 177.8l24 16.82s8.8 0 9.6.8c.8.8-14.4 14.42-14.4 14.42l-27.2-22.43 8-9.6zm-145.7 19.44l-10 6.02-3-3 11-9.04z"/><path fill="#D96443" d="M148.82 203.1l2.84 8.18-10.02-8.02 3-3z"/><path fill="#466790" d="M90.54 134.55s4.8 27.23 40.8 27.23c36.8-12 79.2-21.62 79.2-21.62s35.2 33.64 84.02 48.85c4.8-6.4 11.2-12.8 11.2-12.8l-89.6-66.4s-82.42 8.8-125.62 24.9"/><path fill="#3F5D7F" d="M168.7 150.1s18.03 20.06 27.05 26.07c9.02 6.02-15.03 17.06-38.08 21.07-3-3-4-5.02-4-5.02l17.03-16.05-41.92-14.88 39.9-11.2z"/><path fill="#FFF" d="M185.22 94.42c0 3.32-2.7 6.02-6 6.02s-6.02-2.7-6.02-6.02 2.7-6.02 6-6.02 6.03 2.7 6.03 6.02"/></svg>