<svg xmlns="http://www.w3.org/2000/svg" id="people-02" viewBox="0 0 130 227"><path fill="#8ABFA1" d="M20.32 138.63l-11.1 52.93H76.1l-12.43-52.93z"/><path fill="#FFF" d="M20.65 138.47L1 224.93"/><path fill="none" stroke="#FFF" stroke-miterlimit="10" d="M20.65 138.47L1 224.93"/><path fill="#FFF" d="M29.77 139.8l-13.13 85.32"/><path fill="none" stroke="#FFF" stroke-miterlimit="10" d="M29.77 139.8l-13.13 85.32"/><path fill="#FFF" d="M64 138.47l19.64 86.46"/><path fill="none" stroke="#FFF" stroke-miterlimit="10" d="M64 138.47l19.64 86.46"/><path fill="#FFF" d="M54.87 139.8L68 225.12"/><path fill="none" stroke="#FFF" stroke-miterlimit="10" d="M54.87 139.8L68 225.12"/><path fill="#466790" d="M74.07 134.96c0 3.32-13.3 6-29.73 6s-29.73-2.68-29.73-6 13.4-6 29.8-6 29.8 2.68 29.8 6"/><path fill="#FCE4E0" d="M96.74 198.57l9.07 26.05 5.1-1-3-26.05z"/><path fill="#2E2D29" d="M109.84 214.6s4.03 5 10.08 6.02c6.05 1 10.08 0 10.08 3s-5.04 4-27.2 3c0-5 .5-9.18.5-9.18s5.54 5.18 6.54-2.84"/><path fill="#FCE4E0" d="M74.63 179.14l-9.97 25.7 4.5 2.48 14.6-21.84z"/><path fill="#2E2D29" d="M74.24 199.78s-.17 6.42 3.8 11.06c3.97 4.64 7.7 6.46 5.75 8.76-2 2.3-6.5-.17-22.8-15.15 3.2-3.83 6.3-6.7 6.3-6.7s.8 7.5 6.8 2.03"/><path fill="#D4D8D9" d="M13.1 118.43c-.25.97-3.03 18.03 31.24 19.03s37.28 1 37.28 1 1 35.07 14.1 64.12c7.07 1 15.13-2 15.13-2s-2-59.1-5.04-77.14c-3-18.03-62.4-19.04-62.4-19.04s-28.2 6.02-30.2 14.03"/><path fill="#AEB8B7" d="M81.63 138.47l-12.1 41.07 16.13 7 6.04-18.02z"/><path fill="#CEC6C3" d="M49.88 116.43l64.5 1L95.23 96.9 67 95.9z"/><path fill="#CEC6C3" d="M95.73 97.4V70.33s.04-2.64 1.65-3c4.4-1 14.4-2 14.4-2s2.47 0 2.47 4v48.1L95.73 97.38z"/><path fill="#F8CA50" d="M49.38 68.34s15.1 7 16.12 0c1-7 2.02-15.03-24.2-38.07-7.04 1-4.02 16.03-4.02 16.03s10.08 20.04 12.1 22.04"/><path fill="#FBD870" d="M52.4 97.4c4.03-45.1-15.12-62.12-15.12-62.12s0 5-3.02 5-10-7.7-11.1-6c0 0-13.1 10.02-17.12 19.03S1 89.4 2 102.4s0 16.03 19.16 15.03S54.4 103.4 54.4 103.4s-2.18-5.93-2-6"/><path fill="#F8CA50" d="M25.2 66.34L21.15 98.4l12.1-1-7.06-10.03z"/><path fill="#2F2E2A" d="M29.74 9.95s15.56 4 14.9-.67c4.44-4.43-7.78-11.34-14.7-8.7-6.92 2.66-6.15 4.5-6.15 4.5s-2.9 2.48-2.4 8.3c.5 5.85 2.7 9.35 7.6 14.05 4.9 4.7.6-17.48.6-17.48"/><path fill="#FCE4E0" d="M44.63 9.23c1.7 4.78 3.63 13.38.44 19.18-3.27 6-8.86 4.8-16.54-1.1.12-1.8 1.14-3.5-1-5-2.14-1.5-3.77-3.8-2.34-5 1.4-1.2 3.8 2.5 3.8 2.5s-1.6-10.4.3-11.1c9.3 3.6 15.5 2.2 15.2.7"/><path fill="#FCE4E0" d="M37.67 31.48s-2.16 5.2.34 8.05c-4.3 3.73-10.2 2.2-13.8-4.3 2.2-2.85 4.6-10.62 4.6-10.62l9 6.9z"/><path fill="#2F2E2A" d="M45.13 28.4c.6-1.18 1.18-2.64 1.36-4.2-1 .5-4.2.7-5.2-.94-.9 3.38-12.5 1.08-12.5 1.08-.9-.25-2.4.04-.4 2.68C36 32.9 41.9 34.42 45 28.4"/><path fill="#FCE4E0" d="M52.4 97.4l9.07-2s6.05-2.02 7.05 1c1 3-6.04 3-6.04 3l-9.07 4-1-6z"/></svg>