<svg xmlns="http://www.w3.org/2000/svg" id="small-people-01" viewBox="0 0 43 174"><path fill="#3F5D7F" d="M23.14 41.28s-2.08 16.78-.34 20.9c1.73 4.14 14.65 20.84 14.65 20.84l5.46-1.86s-9.3-21.4-12.6-24.46c1.5-15.22 2.1-16.1 2.1-16.1l-9.2.7z"/><path fill="#466790" d="M41.35 41.7s-2.94 8.7-10.58 15.18l-3.64 3.63.7 24.2-6.94.1s-1.8-23.7-2-25.53c-.3-1.86.5-2.45 3.3-7.17 2.7-4.73 8.2-11.73 8.2-11.73l10.9 1.44z"/><path fill="#FFE6E1" d="M19.07 18.85s-3.47.85-6.5-.67c-3.04-1.52-7.46-3.7-9.1-3.2-1.66.5-3.05 3.96-2.1 4.55.96.6 4.4-1.07 5.64-.76 1.8.42 4 1.85 4.6 2.53.7.67 5.2 3.03 10.1 1.94 2.7-2.45-2.6-4.4-2.6-4.4"/><path fill="#232426" d="M21.67 23.24l-.6-4.05s3.8-5.9 8.23-5.7c1.3.1 3.55.1 3.55.1s5.04.9 5.64 2.8c1.6 5 4.4 19.8 2.8 25.3-12.8.2-19.8.1-19.8.1s2.1-8.2 1.8-11.5c-.28-3.3-1.66-5.8-1.75-7.1"/><path fill="#2E2F2A" d="M37.8 82.68c.43.1.6 1.18.6 1.18s-5.55 2.8-5.1 4.22c-.66-.74 4.63.3 9.7-3.88-1.3-2.6-1.56-2.95-1.56-2.95l-3.64 1.43zm-15.5 2.05c.36.23.1 1.32.1 1.32s-6.2.6-6.34 2.1c.26.72 6.18 1.28 10.5-.15-.25-3.14-.07-2.35-.34-3.3l-3.93.03z"/><path fill="#232228" d="M32.73 11.2s3.25-1.83 2.86-5.75C35.2 1.53 31.1-.12 29.4 0c-1.7.13-5 1.46-4.16 4.88s7.42 6.32 7.42 6.32"/><path fill="#FFE6E1" d="M25.9 4s-1.1 3.4-.98 5c.13 1.57.46 3.9 2.02 3.72 1.56-.2 1.36-.83 1.36-.83l-.26 2.9s-.06 1.5 2.28.9 2.27-.5 2.34-1.2c.06-.7 0-5.1 0-5.1s.84-1.16.78-1.9c-.07-.77-1.04-1.03-1.56-.46-.52.57 0-3.2-.78-3.4-.78-.2-4.1-.9-5.2.24"/><path fill="none" stroke="#000" stroke-width="1.5" stroke-miterlimit="10" d="M4.4 174V18.5c0-10.1 13.83-4.7 6.58 18.23" stroke-linecap="round" stroke-linejoin="round"/><path fill="#FFE6E1" d="M7 26.02s8.34.6 13.1-1.52c4.78-2.1 9.3-6 9.3-6s1.8.18 2.85 3.14c1.04 2.95-.35 4.72-.35 4.72s-5.55 2.7-15.18 2.44c-9.62-.25-11.27 0-12.48-.25S.5 27.37.08 25.5c-.44-1.84 1.04-3.2 2.6-2.77 1.56.42 2.86 1.94 2.86 1.94s-1.4-2.2-.7-1.94c.7.25 2.1 2.53 2.17 3.3"/><path fill="#2F3135" d="M29.4 18.52s5.62-3.88 7.8-2.8 3.2 4.73-.53 8.2c-3.2 2.1-4.42 2.18-4.42 2.18s.26-5.06-2.86-7.6"/></svg>