<svg id="small-people-03" xmlns="http://www.w3.org/2000/svg" width="160" height="160"><path d="M81.611 148.811c0 .212-.695 6.417-.695 6.417s.351-.389.846-.277c.488.167.488.222.066 1.11-.445.945-.945 2-1.389 2.167-.444.223-1.611.223-1.611-.667 0-.889-.055-8.777-.055-8.777l2.777.056.061-.029zm8.333 1.389s1.333 6.139 1.544 7.667c.212 1.539 0 2.1.557 2.1.572 0 5.5.139 5.572-.139.11-.334.166-.889-2.223-1.334-.944-.222-1.389.278-2.111-3.111-.723-3.333-.777-6.889-.777-6.889l-2.5 1.667-.062.039z" fill="#292e32"/><path d="M82.256 103.3s2.184 2.167.91 4.178l-.633.7-.35 1.256-.145-.556s-1.689-1.188-1.406-3.14c.278-1.955-.633-3.066 1.623-2.443" fill="#ffe6e1"/><path d="M82.045 108.872s5.355.212 7.255-.345c1.9-.555 2.188-1.467 2.188-1.467s-4.371-2.222-4.511-2.389c-.144-.222 1.128-1.611 1.128-1.611s2.223 1.723 4.389 2.611c2.167.889 1.389 2.223 1.111 2.667s-2.777 3.389-7.056 4.278c0 0 1 1.61-.722 4.666-1.723 3.095-.834 2.444.111 4.277.943 1.834-7.195 1.89-8.945.557.5-8.145-.056-9.956-.056-9.956s-6.645-4.611-7.111-5.589c-.5-.979 7.833-4.039 8.572-3.556.778.489.083 1.467.083 1.467l-5.139 2.028 4.945 1.889 3.666.611.092-.138z" fill="#8abfa1"/><path d="M85.355 121.556s2.045 5.022 3.167 9.278c1.134 4.25 3.739 13.799 3.944 15.538.223 1.745.855 3.905-1.123 4.667-1.972.777-2.11-2.434-2.61-4.316-.489-1.889-7.817-16.667-7.817-16.667s.918 7.956 1.057 9.628c.139 1.666 1.127 8.922-.278 9.688-1.417.767-3.316-.072-3.316-.072s-.145-14.222-1.128-16.944-2.961-6.405 0-10.934c5.916-.833 8.111.139 8.111.139" fill="#5ba579"/><path d="M87.556 104.556s-1.778.044-1.917-.378c-.145-.416.422-.461.422-.461s.278-.777-1.333-1.444c-1.556-.667-.277-1.111 1.111-.611s2.389 1.5 2.389 1.5l-.556 1.278-.116.116z" fill="#ffe6e1"/><path d="M77.039 103.223c.139-.345.211-2.084 1.972-2.223s3.311.622 3.805 1.6c.5.979-.777 1.256-1.127 1.256-.351 0 .355.906.422 2.578.072 1.666.916 3.627-.489 5.021-1.411 1.389-3.528 1.879-5.222.557-1.689-1.322.278-3.278.278-5.018 0-1.777.361-3.777.361-3.777" fill="#292e32"/><path d="M95.411 0c-6.355 0-16.722 3.533-16.722 3.533v65.8l19.922 1.483V3.539S98.867 0 95.4 0" fill="#398fc2"/><path d="M89.777 16.544l-4.333 92.189m-.182-92.75h12.027" fill="none" stroke="#000" stroke-width="1.5" stroke-linecap="round" stroke-linejoin="round" stroke-miterlimit="10"/><path d="M95.411 0S85.262.111 85.262 10.778c0 11.906.75 28.811-4.322 30.855H61.389s5.639-6.5 5.261-16.911c-.372-10.411 0-12.639 0-15.056S68.539.927 74.733.927C80.944.928 95.411 0 95.411 0" fill="#0c5fc1"/></svg>