<?xml version="1.0" encoding="iso-8859-1"?>
<!-- Generator: Adobe Illustrator 16.0.0, SVG Export Plug-In . SVG Version: 6.00 Build 0)  -->
<!DOCTYPE svg PUBLIC "-//W3C//DTD SVG 1.1//EN" "http://www.w3.org/Graphics/SVG/1.1/DTD/svg11.dtd">
<svg version="1.1" id="background" xmlns="http://www.w3.org/2000/svg" xmlns:xlink="http://www.w3.org/1999/xlink" x="0px" y="0px"
	 width="789px" height="161px" viewBox="0 0 789 161" style="enable-background:new 0 0 789 161;" xml:space="preserve">
<g>
	<path style="fill:#F3F3F3;" d="M22.064,2.025c0,0-2,15.189,42.007,16.202c44.006,1.013,48.007,12.151,61.009,9.114
		c13.002-3.038,26.004-16.203,27.004-26.329"/>
	<path style="fill:#F3F3F3;" d="M93.075,115.44c-6.083,0.083-20.003,18.228-1,20.254c19.003,2.025,65.01-3.038,77.012,12.15
		c12.002,15.19,46.007,15.19,85.013,10.127s174.026-13.164,103.016-34.429C286.104,102.276,167.086,114.428,93.075,115.44"/>
	<path style="fill:#F3F3F3;" d="M786.181,1.013c0,0,11.002,23.291-10.001,25.316c-21.004,2.025-26.004,34.43-64.01,34.43
		s-72.012,8.101-79.013-4.051s-74.011,7.089-71.011-6.076c3.001-13.165,104.016-19.24,110.017-34.43
		C678.164,1.013,713.17,0.506,713.17,0.506"/>
	<path style="fill:#F3F3F3;" d="M193.09,0c0,0-11.001,30.379,29.004,31.392c40.006,1.012,72.011-4.05,108.017,18.227
		c36.005,22.279,115.018,31.392,159.024,12.152c44.007-19.241,47.007-36.456,88.014-38.481c41.006-2.025,68.01-1.012,71.011-23.291"
		/>
	<line style="fill:#FFFFFF;" x1="0.061" y1="0" x2="228.096" y2="0"/>
	<line style="fill:none;stroke:#999999;stroke-width:0.5;stroke-miterlimit:10;" x1="0.061" y1="0" x2="228.096" y2="0"/>
	<line style="fill:#FFFFFF;" x1="344.113" y1="0.506" x2="572.148" y2="0.506"/>
	<line style="fill:none;stroke:#999999;stroke-width:0.5;stroke-miterlimit:10;" x1="344.113" y1="0.506" x2="572.148" y2="0.506"/>
	<line style="fill:#FFFFFF;" x1="624.156" y1="0.506" x2="648.16" y2="0.506"/>
	<line style="fill:none;stroke:#999999;stroke-width:0.5;stroke-miterlimit:10;" x1="624.156" y1="0.506" x2="648.16" y2="0.506"/>
	<line style="fill:#FFFFFF;" x1="713.17" y1="0.506" x2="764.678" y2="0.506"/>
	<line style="fill:none;stroke:#999999;stroke-width:0.5;stroke-miterlimit:10;" x1="713.17" y1="0.506" x2="764.678" y2="0.506"/>
</g>
</svg>
