<?xml version="1.0" encoding="iso-8859-1"?>
<!-- Generator: Adobe Illustrator 16.0.0, SVG Export Plug-In . SVG Version: 6.00 Build 0)  -->
<!DOCTYPE svg PUBLIC "-//W3C//DTD SVG 1.1//EN" "http://www.w3.org/Graphics/SVG/1.1/DTD/svg11.dtd">
<svg version="1.1" id="folder" xmlns="http://www.w3.org/2000/svg" xmlns:xlink="http://www.w3.org/1999/xlink" x="0px" y="0px"
	 width="194px" height="309px" viewBox="0 0 194 309" style="enable-background:new 0 0 194 309;" xml:space="preserve">
<g>
	<polygon style="fill:#D1D2D3;" points="0,141.229 87.727,13.021 184.476,13.021 87.225,148.24 	"/>
	<polygon style="fill:#EFB93F;" points="83.115,246.312 4.069,236.098 26.059,66.235 105.105,76.449 	"/>
	<polygon style="fill:#FBD870;" points="90.573,247.275 11.526,237.061 33.516,67.199 112.563,77.413 	"/>
	<rect x="39.603" y="66.107" style="fill:#3F5D7F;" width="79.705" height="171.277"/>
	<rect x="47.121" y="66.107" style="fill:#466790;" width="79.706" height="171.277"/>
	<rect x="53.639" y="54.588" style="fill:#EFB93F;" width="79.705" height="171.277"/>
	<rect x="61.157" y="54.588" style="fill:#FBD870;" width="79.706" height="171.277"/>
	<rect x="64.165" y="59.597" style="fill:#3F5D7F;" width="79.706" height="171.277"/>
	<rect x="71.685" y="59.597" style="fill:#466790;" width="79.706" height="171.277"/>
	<rect x="79.705" y="41.066" style="fill:#EFB93F;" width="79.706" height="171.277"/>
	<rect x="87.225" y="41.066" style="fill:#FBD870;" width="79.706" height="171.277"/>
	<polygon style="fill:#D1D2D3;" points="194,267.433 87.225,309 87.225,148.24 194,0 	"/>
	<polygon style="fill:#DDDFE4;" points="87.225,309 0,298.483 0,141.229 87.225,148.24 	"/>
</g>
</svg>
