<?xml version="1.0" encoding="iso-8859-1"?>
<!-- Generator: Adobe Illustrator 16.0.0, SVG Export Plug-In . SVG Version: 6.00 Build 0)  -->
<!DOCTYPE svg PUBLIC "-//W3C//DTD SVG 1.1//EN" "http://www.w3.org/Graphics/SVG/1.1/DTD/svg11.dtd">
<svg version="1.1" id="keyboard" xmlns="http://www.w3.org/2000/svg" xmlns:xlink="http://www.w3.org/1999/xlink" x="0px" y="0px"
	 width="339px" height="102px" viewBox="0 0 339 102" style="enable-background:new 0 0 339 102;" xml:space="preserve">
<g>
	<polygon style="fill:#DDDFE4;" points="232.066,96.95 0.126,42.08 105.219,0 338.833,46.456 	"/>
	<polygon style="fill:#FFFFFF;" points="120.949,7.238 96.852,17 81.122,14.307 105.219,4.544 	"/>
	<polygon style="fill:#FFFFFF;" points="143.281,11.95 119.183,21.713 103.452,19.02 127.55,9.258 	"/>
	<polygon style="fill:#FFFFFF;" points="165.612,16.664 141.514,26.426 125.784,23.733 149.882,13.97 	"/>
	<polygon style="fill:#FFFFFF;" points="187.944,21.376 163.846,31.138 148.115,28.446 172.212,18.683 	"/>
	<polygon style="fill:#FFFFFF;" points="210.274,26.089 186.177,35.852 170.447,33.158 194.545,23.396 	"/>
	<polygon style="fill:#FFFFFF;" points="232.605,30.802 208.508,40.564 192.778,37.871 216.876,28.108 	"/>
	<polygon style="fill:#FFFFFF;" points="254.937,35.515 230.839,45.277 215.108,42.584 239.207,32.822 	"/>
	<polygon style="fill:#FFFFFF;" points="277.27,40.228 253.172,49.99 237.439,47.297 261.537,37.535 	"/>
	<polygon style="fill:#FFFFFF;" points="299.6,44.94 275.502,54.703 259.772,52.01 283.87,42.247 	"/>
	<polygon style="fill:#FFFFFF;" points="321.931,49.99 297.833,59.753 282.104,57.06 306.201,47.297 	"/>
	<polygon style="fill:#FFFFFF;" points="87.592,20.506 63.536,30.164 47.84,27.385 71.896,17.726 	"/>
	<polygon style="fill:#FFFFFF;" points="109.874,25.343 85.817,35 70.122,32.222 94.177,22.564 	"/>
	<polygon style="fill:#FFFFFF;" points="132.156,30.181 108.099,39.838 92.404,37.06 116.459,27.401 	"/>
	<polygon style="fill:#FFFFFF;" points="154.438,35.019 130.381,44.676 114.685,41.897 138.741,32.239 	"/>
	<polygon style="fill:#FFFFFF;" points="176.719,39.856 152.663,49.514 136.966,46.734 161.023,37.076 	"/>
	<polygon style="fill:#FFFFFF;" points="199.001,44.694 174.944,54.352 159.248,51.572 183.304,41.914 	"/>
	<polygon style="fill:#FFFFFF;" points="221.282,49.532 197.226,59.189 181.529,56.411 205.586,46.752 	"/>
	<polygon style="fill:#FFFFFF;" points="243.564,54.369 219.508,64.027 203.811,61.248 227.867,51.59 	"/>
	<polygon style="fill:#FFFFFF;" points="265.846,59.207 241.789,68.864 226.093,66.085 250.149,56.427 	"/>
	<polygon style="fill:#FFFFFF;" points="288.128,64.382 264.071,74.039 248.375,71.26 272.432,61.602 	"/>
	<polygon style="fill:#FFFFFF;" points="58.014,33.854 34.105,43.456 18.664,40.52 42.573,30.917 	"/>
	<polygon style="fill:#FFFFFF;" points="79.918,38.926 56.009,48.527 40.568,45.59 64.477,35.99 	"/>
	<polygon style="fill:#FFFFFF;" points="101.823,43.998 77.914,53.599 62.474,50.663 86.381,41.061 	"/>
	<polygon style="fill:#FFFFFF;" points="123.727,49.069 99.819,58.671 84.378,55.735 108.287,46.133 	"/>
	<polygon style="fill:#FFFFFF;" points="145.632,54.142 121.723,63.743 106.282,60.806 130.19,51.205 	"/>
	<polygon style="fill:#FFFFFF;" points="167.537,59.212 143.628,68.814 128.187,65.878 152.095,56.276 	"/>
	<polygon style="fill:#FFFFFF;" points="189.44,64.284 165.533,73.887 150.092,70.949 174.001,61.349 	"/>
	<polygon style="fill:#FFFFFF;" points="211.346,69.356 187.436,78.958 171.996,76.021 195.904,66.42 	"/>
	<polygon style="fill:#FFFFFF;" points="233.251,74.428 209.341,84.03 193.899,81.094 217.81,71.492 	"/>
	<polygon style="fill:#FFFFFF;" points="255.148,79.842 231.238,89.443 215.799,86.507 239.707,76.905 	"/>
	<polygon style="fill:#2877F6;" points="339,51.505 232.066,102 232.066,96.95 339,46.456 	"/>
	<polygon style="fill:#2877F6;" points="0,47.086 232.066,102 232.066,96.95 0,42.037 	"/>
</g>
</svg>
