<?xml version="1.0" encoding="iso-8859-1"?>
<!-- Generator: Adobe Illustrator 16.0.0, SVG Export Plug-In . SVG Version: 6.00 Build 0)  -->
<!DOCTYPE svg PUBLIC "-//W3C//DTD SVG 1.1//EN" "http://www.w3.org/Graphics/SVG/1.1/DTD/svg11.dtd">
<svg version="1.1" id="monitor" xmlns="http://www.w3.org/2000/svg" xmlns:xlink="http://www.w3.org/1999/xlink" x="0px" y="0px"
	 width="394px" height="422px" viewBox="0 0 394 422" style="enable-background:new 0 0 394 422;" xml:space="preserve">
<g>
	<g>
		<path style="fill:#2877F6;" d="M386.282,353.734L7.718,316.256c-4.262,0-7.718-3.459-7.718-7.721V39.871
			c0-4.265,3.456-7.721,7.718-7.721L386.282,0C390.545,0,394,3.457,394,7.721v338.291C394,350.277,390.545,353.734,386.282,353.734"
			/>
		<polygon style="fill:#C5DAFA;" points="374.602,313.578 10.704,284.131 10.704,45.201 374.602,17.76 		"/>
		<polygon style="fill:#FFFFFF;" points="346.507,290.154 80.941,272.752 80.941,62.602 346.507,46.54 		"/>
		<polygon style="fill:#FFFFFF;" points="374.602,54.789 374.602,17.76 10.704,45.201 10.704,75.481 		"/>
		<polygon style="fill:#2877F6;" points="217.403,422 125.76,404.6 125.76,326.963 217.403,336.334 		"/>
		<polygon style="fill:#D4D8D9;" points="222.086,83.014 91.645,88.034 91.645,78.665 222.086,72.641 		"/>
		<polygon style="fill:#D4D8D9;" points="222.086,101.754 91.645,106.774 91.645,97.404 222.086,91.381 		"/>
		<polygon style="fill:#D4D8D9;" points="222.086,120.494 91.645,125.514 91.645,116.144 222.086,110.12 		"/>
		<polygon style="fill:#D4D8D9;" points="165.896,141.241 91.645,144.253 91.645,134.883 165.896,130.868 		"/>
		<polygon style="fill:#2877F6;" points="129.104,166.339 91.645,166.674 91.645,150.276 129.104,148.938 		"/>
		<polygon style="fill:#D4D8D9;" points="227.103,186.083 91.645,185.079 91.645,175.709 227.103,175.709 		"/>
		<polygon style="fill:#D4D8D9;" points="227.103,204.823 91.645,203.819 91.645,194.448 227.103,194.448 		"/>
		<polygon style="fill:#D4D8D9;" points="227.103,223.561 91.645,222.557 91.645,213.188 227.103,213.188 		"/>
		<polygon style="fill:#D4D8D9;" points="165.896,242.301 91.645,240.293 91.645,230.924 165.896,230.924 		"/>
		<polygon style="fill:#2877F6;" points="129.104,266.395 91.645,263.717 91.645,247.32 129.104,247.99 		"/>
		<path style="fill:#FFCD00;" d="M244.16,320.271l70.906,10.707c0,0,5.352,46.18-6.021,80.982l-68.23-17.4
			C240.815,394.561,250.181,345.033,244.16,320.271"/>
		<polygon style="fill:#2877F6;" points="329.449,262.713 244.16,258.824 244.16,124.844 329.449,121.983 		"/>
		<polygon style="fill:#C5DAFA;" points="79.938,63.456 309.715,50.39 309.715,31.481 79.938,48.603 		"/>
		<path style="fill:#F2704E;" d="M23.414,59.928c0,2.22-1.348,4.019-3.01,4.019c-1.663,0-3.01-1.799-3.01-4.019
			c0-2.219,1.348-4.019,3.01-4.019C22.066,55.909,23.414,57.708,23.414,59.928"/>
		<path style="fill:#F9CD50;" d="M34.033,59.336c0,2.219-1.348,4.019-3.01,4.019c-1.663,0-3.01-1.799-3.01-4.019
			c0-2.22,1.347-4.019,3.01-4.019C32.686,55.317,34.033,57.116,34.033,59.336"/>
		<path style="fill:#50BDD3;" d="M44.987,58.924c0,2.22-1.349,4.019-3.01,4.019c-1.663,0-3.01-1.799-3.01-4.019
			c0-2.219,1.347-4.019,3.01-4.019C43.639,54.905,44.987,56.705,44.987,58.924"/>
	</g>
	<g>
		<path style="fill:#C5DAFA;" d="M262.521,89.062l-8.251-7.406c-0.279-0.249-0.669-0.318-1.022-0.178l-10.438,4.16
			c-0.353,0.142-0.617,0.469-0.69,0.858l-2.188,11.566c-0.074,0.391,0.053,0.788,0.331,1.035l8.251,7.405
			c0.277,0.251,0.668,0.317,1.021,0.177l10.439-4.16c0.354-0.141,0.615-0.468,0.689-0.858l2.189-11.565
			C262.924,89.707,262.799,89.311,262.521,89.062 M258.74,100.676l-9.299,3.707l-7.352-6.597l1.95-10.303l9.3-3.705l7.348,6.596
			L258.74,100.676z"/>
		<path style="fill:#C5DAFA;" d="M255.19,93.673l-4.123,2.079l-3.684-3.963l4.902-2.472l3.1,3.333l1.5-0.757l-3.663-3.938
			c-0.312-0.335-0.899-0.438-1.314-0.229l-6.404,3.229c-0.414,0.208-0.497,0.649-0.187,0.985l4.814,5.174
			c0.147,0.161,0.372,0.275,0.618,0.317c0.245,0.043,0.498,0.012,0.694-0.089l4.875-2.456L255.19,93.673z"/>
		<path style="fill:#C5DAFA;" d="M247.965,92.417l3.099,3.334l4.902-2.473l-3.684-3.962l-4.127,2.079l-1.125-1.212l4.874-2.458
			c0.414-0.208,1.002-0.106,1.314,0.228l4.813,5.176c0.31,0.334,0.227,0.776-0.187,0.984l-6.404,3.228
			c-0.197,0.099-0.451,0.132-0.695,0.09c-0.245-0.042-0.471-0.158-0.62-0.318l-3.662-3.938L247.965,92.417z"/>
		<path style="fill:#C5DAFA;" d="M254.658,96.733l-4.175,2.107l-3.687-3.964l0.019-0.008l-1.128-1.213l-0.768,0.385
			c-0.415,0.209-0.497,0.652-0.188,0.985l4.815,5.175c0.148,0.159,0.373,0.276,0.617,0.318c0.246,0.042,0.499,0.009,0.696-0.09
			l4.926-2.48L254.658,96.733z"/>
		<path style="fill:#C5DAFA;" d="M247.356,95.466l3.14,3.374l4.901-2.471l-0.013-0.013l1.5-0.757l0.577,0.621
			c0.313,0.334,0.228,0.775-0.186,0.983l-6.403,3.229c-0.197,0.1-0.451,0.131-0.696,0.09c-0.246-0.042-0.471-0.159-0.618-0.317
			l-3.701-3.981L247.356,95.466z"/>
		<path style="fill:#C5DAFA;" d="M275.294,91.486c-0.098-0.491-0.288-0.899-0.57-1.226c-0.284-0.324-0.646-0.564-1.093-0.718
			c-0.443-0.153-0.939-0.219-1.49-0.196c-0.537,0.023-1.009,0.119-1.418,0.285c-0.408,0.168-0.77,0.363-1.078,0.586
			c-0.313,0.223-0.572,0.458-0.784,0.708l-0.212,0.249c-0.162,0.221-0.306,0.402-0.317,0.403c-0.012,0,0.056-0.397,0.147-0.884
			l0.169-0.884l-1.087,0.046l-0.378,0.016l-0.283,0.012c-0.598,0.025-1.188,0.559-1.313,1.186l-0.45,2.277l-1.012,5.106
			l-0.476,2.407c-0.126,0.627,0.264,1.121,0.861,1.095l0.636-0.027l0.15-0.006l1.09-0.046l1.374-6.921
			c0.184-0.922,0.544-1.627,1.081-2.116c0.535-0.487,1.135-0.745,1.798-0.772c0.467-0.021,0.814,0.048,1.049,0.202
			c0.231,0.155,0.383,0.353,0.453,0.589c0.07,0.237,0.092,0.491,0.063,0.762c-0.013,0.126-0.028,0.251-0.045,0.368
			c-0.055,0.315-0.175,0.956-0.288,1.517l-0.262,1.311l-0.418,2.11l-0.325,1.63c-0.125,0.627,0.263,1.119,0.861,1.094l0.395-0.017
			l0.391-0.017l1.09-0.046l1.65-8.348C275.379,92.556,275.394,91.976,275.294,91.486"/>
		<path style="fill:#C5DAFA;" d="M288.028,88.991l-1.089,0.046l-0.595,0.026l-0.191,0.008c-0.599,0.025-1.19,0.559-1.313,1.185
			l-0.26,1.313l-0.891,4.513c-0.112,0.547-0.274,0.996-0.489,1.349c-0.209,0.355-0.448,0.643-0.716,0.864
			c-0.27,0.22-0.549,0.379-0.838,0.472c-0.289,0.096-0.553,0.148-0.793,0.159c-0.226,0.008-0.447-0.012-0.666-0.063
			c-0.22-0.051-0.402-0.151-0.551-0.303c-0.147-0.151-0.252-0.368-0.306-0.651c-0.027-0.138-0.037-0.297-0.033-0.479
			c0.067-0.489,0.191-1.235,0.299-1.783l0.516-2.609l0.516-2.604l0.225-1.14l-1.086,0.045l-0.789,0.033l-0.017,0.001v0.003
			c-0.592,0.033-1.173,0.562-1.296,1.183l-1.341,6.8c-0.155,0.772-0.194,1.436-0.115,1.986c0.077,0.552,0.25,1.003,0.518,1.35
			c0.268,0.35,0.62,0.601,1.06,0.755c0.437,0.154,0.931,0.221,1.481,0.197c0.79-0.033,1.509-0.237,2.158-0.609
			c0.548-0.313,0.824-0.585,0.898-0.664c0.246-0.229,0.47-0.489,0.681-0.775c0.067-0.073,0.109-0.118,0.113-0.118
			c0.012-0.001-0.055,0.381-0.147,0.85l-0.17,0.851l1.088-0.046l0.662-0.028l0.074-0.004v-0.006c0.57-0.065,1.118-0.577,1.238-1.176
			l1.938-9.791L288.028,88.991z"/>
		<path style="fill:#C5DAFA;" d="M328.187,89.774L328.187,89.774l2.055-2.566l-1.087,0.046l-1.265,0.054l-0.053,0.002
			c-0.599,0.025-1.39,0.47-1.756,0.986l-0.232,0.325l-0.446,0.627l-0.544,0.764c-0.369,0.516-0.838,0.46-1.045-0.128l-0.831-2.368
			l-1.088,0.045l-0.438,0.018l-0.984,0.042c-0.599,0.025-0.886,0.511-0.636,1.079l1.616,3.701c0.249,0.569,0.128,1.437-0.269,1.931
			l-3.62,4.518c-0.394,0.492-0.228,0.875,0.371,0.849l1.399-0.058c0.043-0.002,0.087-0.01,0.131-0.016v0.01l0.957-0.04l1.334-1.855
			l0.66-0.92c0.37-0.516,0.841-0.455,1.043,0.134l0.488,1.405v0.002l0.039,0.118H324c0.246,0.53,0.848,0.929,1.404,0.906
			l0.584-0.026l0.903-0.038l1.086-0.046l-1.584-3.644l-0.569-1.309c-0.249-0.569-0.126-1.438,0.27-1.933L328.187,89.774z"/>
		<path style="fill:#C5DAFA;" d="M316.493,96.289l1.064-5.394c0.142-0.742,0.1-1.336-0.127-1.783
			c-0.227-0.45-0.543-0.788-0.951-1.019c-0.41-0.23-0.865-0.375-1.365-0.437c-0.502-0.062-0.95-0.084-1.346-0.067
			c-0.578,0.024-1.161,0.094-1.745,0.208c-0.586,0.115-1.14,0.33-1.662,0.645c-0.521,0.315-0.993,0.759-1.416,1.331
			c-0.426,0.573-0.639,1.158-0.639,1.158c-0.219,0.6,0.09,1.072,0.688,1.046l0.275-0.012l1.494-0.063
			c0.056-0.183,0.13-0.374,0.221-0.572c0.094-0.2,0.216-0.385,0.372-0.557c0.154-0.17,0.359-0.315,0.614-0.43
			c0.253-0.116,0.562-0.183,0.93-0.199c0.184-0.007,0.39-0.005,0.613,0.009c0.227,0.012,0.431,0.061,0.616,0.143
			c0.182,0.082,0.32,0.214,0.411,0.398c0.092,0.184,0.103,0.442,0.032,0.775c-0.07,0.349-0.232,0.592-0.487,0.73
			c-0.123,0.068-0.247,0.123-0.367,0.167c-0.321,0.079-0.929,0.211-1.449,0.313l-1.676,0.331c-0.493,0.097-0.958,0.247-1.396,0.452
			c-0.437,0.207-0.832,0.475-1.185,0.804c-0.354,0.331-0.656,0.723-0.91,1.175c-0.256,0.454-0.437,0.976-0.55,1.565
			c-0.125,0.621-0.135,1.149-0.021,1.587c0.113,0.438,0.303,0.794,0.571,1.067s0.593,0.467,0.975,0.578
			c0.38,0.112,0.782,0.159,1.205,0.141c0.51-0.021,0.959-0.097,1.354-0.227c0.396-0.13,0.755-0.282,1.08-0.462
			c0.324-0.177,0.609-0.378,0.856-0.598c0.247-0.22,0.478-0.425,0.688-0.615c-0.016,0.166-0.024,0.308-0.03,0.429
			c-0.009,0.121-0.012,0.234-0.012,0.339c0,0.089,0.003,0.187,0.012,0.29l0.006,0.105c0.014,0.14,0.515,0.233,1.112,0.208
			l1.021-0.043c0.6-0.025,1.125-0.259,1.171-0.521c-0.082-0.026-0.16-0.072-0.222-0.138c-0.063-0.065-0.108-0.163-0.136-0.299
			c-0.03-0.131-0.04-0.312-0.032-0.537l0.006-0.226C316.219,97.725,316.369,96.917,316.493,96.289 M311.633,97.862
			c-0.338,0.125-0.67,0.195-0.995,0.21c-0.141,0.006-0.289-0.011-0.444-0.049s-0.289-0.112-0.402-0.22
			c-0.112-0.105-0.193-0.254-0.243-0.438c-0.05-0.186-0.046-0.414,0.011-0.687c0.056-0.332,0.159-0.606,0.308-0.824
			c0.146-0.215,0.327-0.393,0.539-0.527c0.211-0.137,0.447-0.248,0.709-0.334c0.261-0.085,0.532-0.159,0.813-0.215
			c0.637-0.13,1.107-0.257,1.419-0.375l0.31-0.118c0.225-0.138,0.312,0.264,0.189,0.893l-0.076,0.401
			c-0.07,0.363-0.211,0.694-0.422,0.996c-0.213,0.303-0.466,0.56-0.762,0.775C312.288,97.563,311.972,97.735,311.633,97.862"/>
		<path style="fill:#C5DAFA;" d="M307.188,88.182l-0.92,0.039c-0.506,0.021-0.818-0.474-0.693-1.101l0.1-0.496l0.101-0.493
			l0.227-1.141l-1.087,0.047l-0.788,0.033l-1.087,0.046l-0.342,1.706l-0.313,1.562l-3.49,0.147c0.298,0.315,0.55,0.68,0.73,1.09
			v0.003c0.154,0.348,0.243,0.723,0.288,1.114l2.027-0.085l-0.355,1.785l-1.105,5.545c-0.069,0.392-0.098,0.746-0.085,1.059
			c0.016,0.315,0.107,0.582,0.277,0.8c0.169,0.217,0.44,0.383,0.813,0.495c0.374,0.111,0.428,0.112,0.428,0.112
			c0.076,0,0.152,0.003,0.228,0.005h0.003c0.079,0.005,0.169,0.008,0.255,0.01c0.049,0.003,0.095,0.008,0.148,0.007
			c0.143,0.003,0.293,0,0.452-0.007l0.382-0.016c0.239-0.011,0.473-0.024,0.697-0.04l0.226-0.017c0.004,0,0.01-0.004,0.014-0.006
			c0.151-0.011,0.304-0.024,0.459-0.041l0.231-1.138v-0.003l0.256-1.266c-0.112,0.02-0.222,0.037-0.327,0.049
			c-0.106,0.011-0.208,0.019-0.308,0.023c-0.295,0.013-0.525,0.004-0.688-0.026c-0.161-0.032-0.275-0.083-0.339-0.156
			c-0.063-0.071-0.088-0.169-0.073-0.29c0.007-0.05,0.014-0.109,0.022-0.171c0.035-0.22,0.143-0.787,0.254-1.344l0.36-1.802
			l0.082-0.414l0.428-2.14c0.126-0.627,0.644-1.157,1.149-1.179l0.921-0.038l0.6-0.026c0.096-0.234,0.332-0.768,0.756-1.345
			c0.268-0.361,0.56-0.687,0.875-0.974L307.188,88.182z"/>
		<path style="fill:#C5DAFA;" d="M292.31,91.645c0.07-0.138,0.181-0.266,0.328-0.385c0.148-0.119,0.348-0.221,0.604-0.307
			c0.255-0.085,0.585-0.138,0.994-0.155c0.396-0.017,0.709,0.015,0.94,0.094c0.235,0.082,0.403,0.194,0.511,0.339
			c0.104,0.146,0.169,0.311,0.188,0.498l0.021,0.188c0.006,0.212,0.501,0.364,1.098,0.339l1.813-0.077
			c0.114-0.843,0.058-1.52-0.169-2.028c-0.227-0.508-0.551-0.896-0.974-1.164c-0.424-0.268-0.915-0.438-1.471-0.512
			c-0.56-0.074-1.109-0.1-1.661-0.076c-0.876,0.037-1.629,0.196-2.265,0.478c-0.635,0.282-1.168,0.627-1.598,1.035
			c-0.431,0.41-0.765,0.854-1.004,1.336c-0.241,0.483-0.404,0.944-0.487,1.382c-0.155,0.757-0.104,1.352,0.158,1.782
			c0.262,0.431,0.625,0.766,1.09,1c0.466,0.236,0.986,0.406,1.566,0.508c0.578,0.103,1.115,0.204,1.607,0.303
			c0.494,0.1,0.898,0.23,1.208,0.388c0.312,0.159,0.43,0.406,0.358,0.739c-0.028,0.121-0.08,0.254-0.158,0.399
			c-0.078,0.146-0.198,0.283-0.359,0.408c-0.161,0.128-0.374,0.241-0.635,0.344c-0.264,0.101-0.582,0.158-0.962,0.173
			c-0.468,0.021-0.848-0.007-1.145-0.086c-0.295-0.078-0.526-0.191-0.688-0.341c-0.162-0.151-0.262-0.331-0.297-0.539l-0.035-0.209
			c0.024-0.269-0.443-0.468-1.042-0.443l-1.958,0.083c-0.143,0.801-0.101,1.463,0.126,1.987c0.226,0.521,0.561,0.931,1.007,1.228
			c0.442,0.296,0.971,0.499,1.586,0.608c0.613,0.109,1.237,0.15,1.873,0.124c0.436-0.019,0.952-0.093,1.545-0.224
			s1.17-0.354,1.734-0.67c0.564-0.316,1.076-0.754,1.533-1.315c0.461-0.557,0.773-1.277,0.943-2.152
			c0.142-0.742,0.085-1.328-0.17-1.761c-0.253-0.431-0.616-0.769-1.089-1.011c-0.474-0.243-0.998-0.416-1.576-0.517
			c-0.58-0.104-1.12-0.206-1.622-0.304c-0.499-0.1-0.908-0.225-1.226-0.376c-0.317-0.151-0.447-0.386-0.394-0.703
			C292.19,91.92,292.239,91.784,292.31,91.645"/>
	</g>
</g>
</svg>
