<?xml version="1.0" encoding="iso-8859-1"?>
<!-- Generator: Adobe Illustrator 16.0.0, SVG Export Plug-In . SVG Version: 6.00 Build 0)  -->
<!DOCTYPE svg PUBLIC "-//W3C//DTD SVG 1.1//EN" "http://www.w3.org/Graphics/SVG/1.1/DTD/svg11.dtd">
<svg version="1.1" id="people-04" xmlns="http://www.w3.org/2000/svg" xmlns:xlink="http://www.w3.org/1999/xlink" x="0px" y="0px"
	 width="244px" height="233px" viewBox="0 0 244 233" style="enable-background:new 0 0 244 233;" xml:space="preserve">
<g>
	<path style="fill:#D4D8D7;" d="M100.648,112.528c0,0-25.103,14.116-25.103,17.142c0,3.023,11.045,77.635,12.049,84.693
		c7.029,1.008,9.037,0,9.037,0l3.012-72.596l42.424-29.239C142.067,112.528,128.763,89.338,100.648,112.528"/>
	<path style="fill:#D4D8D7;" d="M158.254,125.84c0,0-11.678,11.719-27.732,12.893c1.056,5.031,11.74,67.436,12.827,75.49
		c-3.996,2.059-10.03,1.113-10.03,1.113s-33.934-77.289-32.961-80.324c0.974-3.033,28.87-24.499,28.87-24.499
		S147.78,108.304,158.254,125.84"/>
	<path style="fill:#2F2E2A;" d="M133.331,10.825c0,0-8.104,2.479-17.776,0.187c-1.625-5.262,9.296-13.051,17.018-10.518
		c7.723,2.532,6.986,4.606,6.986,4.606s3.277,2.578,3.074,9.058c-0.204,6.477-2.439,10.474-7.585,15.943
		C129.902,35.568,133.331,10.825,133.331,10.825"/>
	<path style="fill:#FCE4E0;" d="M117.017,10.833c0,0-3.153,14.781,0.601,21.273c3.752,6.49,9.967,4.739,18.025-2.203
		c-0.237-1.956-1.449-3.795,0.81-5.56c2.258-1.766,3.911-4.45,2.271-5.738c-1.64-1.289-4.088,2.981-4.088,2.981
		s1.073-11.549-0.994-12.289C131.75,10.025,122.436,10.667,117.017,10.833"/>
	<path style="fill:#FCE4E0;" d="M125.886,35.066c0,0,2.66,5.632,0.093,8.925c4.918,3.867,11.36,1.851,14.915-5.534
		c-2.515-3.048-5.606-11.49-5.606-11.49L125.886,35.066z"/>
	<path style="fill:#F35925;" d="M124.747,40.942c0,0-0.628,6.554,6.4,4.537c7.029-2.017,7.657-9.579,12.678-8.57
		s22.09,3.025,24.099,20.165c2.008,17.141,6.024,33.273,3.012,42.347c-3.012,8.066-8.032,7.058-8.032,7.058s0,15.125-3.013,19.158
		s-1.004-10.083-32.132-13.108c-2.008-1.008-5.021-7.058-5.021-7.058s-4.016,7.058-8.033,7.058h-14.058
		c0,0,5.021-9.074,5.021-10.083s-3.012-1.008-4.017-8.066c-1.004-7.058-1.004-28.231,3.013-37.306
		C108.681,48,116.714,41.95,124.747,40.942"/>
	<path style="fill:#FFFFFF;" d="M118.722,80.264c1.004,2.017,4.016-7.058,7.029-14.116c2.354-5.516,9.611-20.877,17.941-29.257
		c-4.882-0.868-4.955,5.078-11.917,7.075c-7.028,2.017-7.028-3.024-7.028-3.024S114.706,48,118.722,80.264"/>
	<path style="fill:#DD4A22;" d="M151.857,69.173l4.017,18.148c0,0-12.049,3.025-17.069,4.033
		C143.825,87.322,152.862,86.313,151.857,69.173"/>
	<rect x="108.681" y="97.404" style="fill:#CEC6C3;" width="15.063" height="3.025"/>
	<path style="fill:#CEC6C3;" d="M43.242,100.429h68.245c-1.163-5.673-6.949-33.912-8.077-39.574
		c-1.255-6.302-5.773-5.797-5.773-5.797H40.401c-6.024,0-4.016,5.041-4.016,5.041L43.242,100.429z"/>
	<path style="fill:#FCE4E0;" d="M119.977,97.152l-0.251-2.772c0,0-9.539,1.008-8.284,3.024
		C112.697,99.421,119.977,97.152,119.977,97.152"/>
	<path style="fill:#FFFFFF;" d="M74.541,78.248c0,2.227-1.798,4.033-4.017,4.033s-4.017-1.806-4.017-4.033
		c0-2.228,1.798-4.033,4.017-4.033S74.541,76.02,74.541,78.248"/>
	<polygon style="fill:#FCE4E0;" points="134.788,214.363 138.805,223.438 142.82,222.43 141.816,213.355 	"/>
	<path style="fill:#2E2D29;" d="M145.833,225.453c0,0-2.008,3.025-11.045,6.051s-11.045,1.008-6.025-2.018
		c5.021-3.023,5.021-8.064,7.029-9.074c10.041,3.025,7.028-2.016,7.028-2.016h1.005
		C143.825,218.396,146.837,223.438,145.833,225.453"/>
	<polygon style="fill:#FCE4E0;" points="88.774,212.496 90.971,222.178 95.106,221.967 95.865,212.869 	"/>
	<path style="fill:#2E2D29;" d="M97.48,225.52c0,0-2.551,2.578-12,3.795s-11.031-1.15-5.524-3.146
		c5.507-1.994,6.477-6.941,8.641-7.541c9.271,4.912,7.284-0.617,7.284-0.617l0.986,0.195
		C96.867,218.205,98.853,223.734,97.48,225.52"/>
	<path style="fill:#2F2E2A;" d="M119.224,3.804c0,0-8.033,4.369-11.045,3.361c-2.008,2.016,9.037,6.385,20.082,2.689"/>
	<rect x="8.521" y="99.925" style="fill:#D4D8D9;" width="226.93" height="7.058"/>
	<polygon style="fill:#D4D8D9;" points="238.965,225.959 219.887,106.983 224.907,106.983 243.985,225.959 	"/>
	<polygon style="fill:#D4D8D9;" points="204.825,225.959 185.747,106.983 190.768,106.983 209.846,225.959 	"/>
	<polygon style="fill:#D4D8D9;" points="5.006,225.959 24.084,106.983 19.063,106.983 -0.015,225.959 	"/>
	<polygon style="fill:#D4D8D9;" points="39.146,225.959 58.224,106.983 53.204,106.983 34.125,225.959 	"/>
</g>
</svg>
