<?xml version="1.0" encoding="iso-8859-1"?>
<!-- Generator: Adobe Illustrator 16.0.0, SVG Export Plug-In . SVG Version: 6.00 Build 0)  -->
<!DOCTYPE svg PUBLIC "-//W3C//DTD SVG 1.1//EN" "http://www.w3.org/Graphics/SVG/1.1/DTD/svg11.dtd">
<svg version="1.1" id="Layer_1" xmlns="http://www.w3.org/2000/svg" xmlns:xlink="http://www.w3.org/1999/xlink" x="0px" y="0px"
	 width="188px" height="275px" viewBox="0 0 188 275" style="enable-background:new 0 0 188 275;" xml:space="preserve">
<g>
	<polygon style="fill:#8ABFA1;" points="122.88,146.495 111.847,216.612 177.044,216.612 166.011,146.495 	"/>
	<path style="fill:#FFFFFF;" d="M122.88,84.893c0,1.66-1.346,3.005-3.008,3.005s-3.01-1.345-3.01-3.005
		c0-1.66,1.348-3.005,3.01-3.005S122.88,83.233,122.88,84.893"/>
	<line style="fill:#FFFFFF;" x1="122.88" y1="146.495" x2="103.321" y2="274.709"/>
	<line style="fill:none;stroke:#FFFFFF;stroke-miterlimit:10;" x1="122.88" y1="146.495" x2="103.321" y2="274.709"/>
	<line style="fill:#FFFFFF;" x1="131.958" y1="148.473" x2="118.888" y2="275"/>
	<line style="fill:none;stroke:#FFFFFF;stroke-miterlimit:10;" x1="131.958" y1="148.473" x2="118.888" y2="275"/>
	<line style="fill:#FFFFFF;" x1="166.011" y1="146.495" x2="185.569" y2="274.709"/>
	<line style="fill:none;stroke:#FFFFFF;stroke-miterlimit:10;" x1="166.011" y1="146.495" x2="185.569" y2="274.709"/>
	<line style="fill:#FFFFFF;" x1="156.935" y1="148.473" x2="170.003" y2="275"/>
	<line style="fill:none;stroke:#FFFFFF;stroke-miterlimit:10;" x1="156.935" y1="148.473" x2="170.003" y2="275"/>
	<path style="fill:#466790;" d="M176.042,142.989c0,3.318-13.248,6.011-29.59,6.011s-29.59-2.692-29.59-6.011
		c0-3.317,13.248-6.01,29.59-6.01S176.042,139.672,176.042,142.989"/>
	<path style="fill:#2F2E2A;" d="M156.942,11.65c0,0-8.768,2.667-19.234,0.2c-1.76-5.663,10.059-14.044,18.416-11.32
		c8.355,2.725,7.559,4.959,7.559,4.959s3.547,2.774,3.328,9.746c-0.223,6.972-2.641,11.273-8.209,17.159
		C153.231,38.28,156.942,11.65,156.942,11.65"/>
	<path style="fill:#FCE4E0;" d="M139.29,11.658c0,0-3.412,15.909,0.648,22.894c4.061,6.987,10.787,5.101,19.508-2.37
		c-0.258-2.106-1.568-4.084,0.873-5.983c2.445-1.9,4.232-4.789,2.459-6.175c-1.775-1.388-4.426,3.208-4.426,3.208
		s1.162-12.43-1.074-13.225C155.233,10.79,145.153,11.48,139.29,11.658"/>
	<path style="fill:#FCE4E0;" d="M148.888,37.74c0,0,1.848,6.548-0.932,10.091c5.322,4.162,17.217,3.94,21.064-4.007
		c-8.025-4.007-9.961-14.801-9.961-14.801L148.888,37.74z"/>
	<polygon style="fill:#FCE4E0;" points="77.243,230.636 80.252,249.668 91.285,248.666 90.282,227.631 	"/>
	<path style="fill:#D96441;" d="M80.252,249.668c0,0-17.052,13.021-17.052,15.024c0,2.004,32.098-7.012,31.094-9.015
		c-1.002-2.004-3.009-9.016-3.009-9.016L80.252,249.668z"/>
	<polygon style="fill:#FCE4E0;" points="29.672,184.817 21.054,200.451 29.698,205.975 40.923,190.012 	"/>
	<path style="fill:#D96441;" d="M21.054,200.451c0,0-19.882-0.138-21.022,1.329c-1.138,1.466,27.478,13.066,27.881,11.032
		c0.406-2.035,2.923-8.305,2.923-8.305L21.054,200.451z"/>
	<path style="fill:#4B5360;" d="M121.376,140.485c0,0-26.078,18.03-36.109,19.032c9.027,34.057,7.021,69.115,7.021,69.115
		l-17.051,4.006l-15.045-88.146C60.191,144.492,107.333,138.482,121.376,140.485"/>
	<path style="fill:#FFCD00;" d="M128.397,112.438l1.004-19.032l-17.053-1.001v-8.013l12.037-1.002c0,0,6.018-38.063,21.063-38.063
		c2.244,0,8.025,8.014,23.07-1.001c8.023,1.001,19.059,3.005,19.059,19.032s3.008,40.067-7.021,41.068l-2.006,16.027
		C178.55,120.452,158.489,125.46,128.397,112.438"/>
	<polygon style="fill:#FBD870;" points="134.415,67.363 131.407,81.387 128.397,83.39 133.413,83.39 	"/>
	<path style="fill:#FCE4E0;" d="M108.337,84.392L96.3,83.39c0,0-4.012-1.001-6.018,0c-2.006,1.002-5.015,3.005,0,4.007
		c5.016,1.001,12.037,1.001,12.037,1.001s6.352,4.34,13.207,4.174c1.67-7.347,1.67-8.014,1.67-8.014L108.337,84.392z"/>
	<path style="fill:#FBD870;" d="M170.524,71.37c0,1.002-1.002,16.027-1.002,16.027l-16.049,1.001l13.039-5.008L170.524,71.37z"/>
	<polygon style="fill:#2F2E2A;" points="108.337,71.37 131.907,70.869 131.407,105.427 109.339,105.427 	"/>
	<polygon style="fill:#2F2E2A;" points="84.264,71.37 86.27,74.375 93.292,99.417 91.285,100.418 84.264,75.377 	"/>
	<path style="fill:#555C6C;" d="M176.71,120.619c0,0-1.17,23.873-28.252,23.873s-87.264,1.002-87.264,1.002L40.13,192.572
		l-15.045-7.012c0,0,13.039-55.092,33.1-61.102c20.061-6.01,52.158-5.008,62.189-7.011c10.029-2.003,15.045-9.015,15.045-9.015
		L176.71,120.619z"/>
	<path style="fill:none;stroke:#000000;stroke-miterlimit:10;" d="M145.56,19.56l9.766-0.144c0,0,1.188,4.111-1.811,4.53
		C150.513,24.365,144.515,25.205,145.56,19.56z"/>
	<path style="fill:none;stroke:#000000;stroke-miterlimit:10;" d="M145.017,19.56l-7.895-0.489c0,0-0.813,4.041,1.625,4.563
		S146.06,25.205,145.017,19.56z"/>
	
		<line style="fill:none;stroke:#000000;stroke-linecap:round;stroke-linejoin:round;stroke-miterlimit:10;" x1="154.267" y1="19.441" x2="163.128" y2="18.962"/>
	<path style="fill:#FCE4E0;" d="M153.474,88.398c0,0,3.008,6.01,2.006,12.02c-17.053-4.006-21.064-6.01-21.064-6.01
		s-8.693,0-10.865-1.502c-2.174-1.502,1.838-6.511,5.852-6.511c4.012,0,6.018,1.002,6.018,1.002L153.474,88.398z"/>
</g>
</svg>
