<?xml version="1.0" encoding="iso-8859-1"?>
<!-- Generator: Adobe Illustrator 16.0.0, SVG Export Plug-In . SVG Version: 6.00 Build 0)  -->
<!DOCTYPE svg PUBLIC "-//W3C//DTD SVG 1.1//EN" "http://www.w3.org/Graphics/SVG/1.1/DTD/svg11.dtd">
<svg version="1.1" id="people-03" xmlns="http://www.w3.org/2000/svg" xmlns:xlink="http://www.w3.org/1999/xlink" x="0px" y="0px"
	 width="180px" height="276px" viewBox="0 0 180 276" style="enable-background:new 0 0 180 276;" xml:space="preserve">
<g>
	<path style="fill:#FCE4E0;" d="M163.37,23.165c0,0-1.418-4.819-1.022-7.03c0.396-2.212,1.297-9.81,5.144-10.947
		c3.848-1.135,2.551,8.674,1.762,13.098c-0.789,4.423-0.901,7.598-0.901,7.598L163.37,23.165z"/>
	<path style="fill:#FCE4E0;" d="M12.551,102.269c0,0-3.509,1.005-4.512,2.009c-1.002,1.005-2.005,3.014-3.008,2.01
		c-1.003-1.005,2.005-3.014,2.005-3.014s-4.011,1.004-6.016,1.004s-2.005-5.023,9.024-7.033
		C21.074,95.235,12.551,102.269,12.551,102.269"/>
	<polygon style="fill:#FCE4E0;" points="164.929,245.427 172.022,255.199 176.454,250.757 170.249,238.319 	"/>
	<path style="fill:#D96441;" d="M167.145,249.202c0,0,1.331,7.773-1.329,10.438c-2.661,2.665-7.093,5.332-6.208,8.884
		c0.889,3.554,12.413,3.554,15.074-2.665c2.658-6.219,5.319-14.214,5.319-14.214s-3.546-6.219-4.435-6.219
		c-0.885,0,0.889,7.107,0,7.107C174.682,252.534,172.021,246.76,167.145,249.202"/>
	<path style="fill:#FCE4E0;" d="M71.836,252.534c0,0,0.887,5.33-0.886,8.884c-1.774,3.555,0.886,7.106,4.433,7.106
		s4.432-0.888,5.319-6.219c0.886-5.33,0-11.549,0-11.549L71.836,252.534z"/>
	<path style="fill:#D96441;" d="M80.703,264.083c0,0,0,3.554-4.434,2.665c-4.433-0.889-3.546-3.997-4.433-5.997
		c-0.887-1.997-4.433,3.332-4.433,5.108c0,1.777-8.866,1.777-11.526,2.665c-2.659,0.889-4.433,0-4.433,4.442
		c0,4.443,6.207,2.665,12.413,2.665h17.732C81.589,275.632,82.476,264.973,80.703,264.083"/>
	<path style="fill:#2F2E2A;" d="M95.774,28.657c0,0,9.753-1.778,9.753-7.108c-4.434-3.552-19.529,1.28-19.529,7.5
		c0,6.218,2.683,12.934,7.117,15.6C101.094,41.094,98.434,30.434,95.774,28.657"/>
	<path style="fill:#DFA371;" d="M100.207,50.867c0,0-14.186,3.553-16.845,5.33c-2.66,1.776-34.577,23.098-37.237,25.764
		c-2.659,2.666-33.691,10.662-34.577,14.215c0,5.329,1.774,7.107,1.774,7.107s36.35-7.996,44.329-10.66
		c7.979-2.666,23.051-8.884,23.051-8.884s7.093,22.208,7.979,24.875c0.887,2.665,0.887,10.238,0.887,10.238
		s15.959,8.884,40.783-1.776c3.547-27.542,2.659-39.556,2.659-39.556s10.641-5.331,20.392-5.331c9.752,0,13.299-4.442,15.072-18.657
		c1.773-14.214,1.773-31.094,1.773-31.094l-8.866-0.889c0,0-5.318,15.991-7.093,22.21c-1.773,6.219-2.66,9.772-2.66,9.772
		s3.547,3.554-17.73,0C112.619,49.978,107.301,49.089,100.207,50.867"/>
	<path style="fill:#B77344;" d="M92.523,66.857c-0.295,1.777,4.137,11.549,4.137,11.549l5.32-10.661l-5.024-3.85L92.523,66.857z"/>
	<path style="fill:#FCE4E0;" d="M105.527,22.438c0,0,11.524,20.434,0.885,24.875c-0.444,3.128,0.889,3.554,0.889,3.554
		s-2.085,11.966-10.608,15.231c-3.841-5.035-3.577-11.678-3.577-14.343v-9.773c0,0-4.434,0-3.547-6.219
		c0.887-6.219,5.319-1.777,6.206,1.776c0-0.888-2.659-10.66-2.659-10.66S103.754,26.879,105.527,22.438"/>
	<path style="fill:#80B0BC;" d="M129.465,112.166c0,0,7.093,8.884,7.98,76.402c2.658,4.443,25.71,25.765,34.576,47.975
		c-2.659,7.106-7.093,11.549-7.093,11.549l-49.648-47.975c0,0-19.506-63.075-17.733-80.844
		C109.959,121.05,127.691,115.72,129.465,112.166"/>
	<path style="fill:#80B0BC;" d="M97.548,119.273l-8.866-5.331c0,0-19.506,56.859-20.392,66.631
		c-0.887,9.771-2.661,55.969-0.887,65.739c1.772,9.773,1.772,8.886,7.092,8.886h5.32c0,0,10.639-40.866,9.753-63.076
		c8.865-15.992,17.731-29.318,18.618-36.424C108.187,148.591,97.548,119.273,97.548,119.273"/>
	<path style="fill:#FFFFFF;" d="M93.184,52.366c-1.336,1.675-5.39,6.496-3.615,17.157c3.547-3.554,7.093-3.554,7.093-3.554
		S92.432,57.977,93.184,52.366"/>
	<path style="fill:#FFFFFF;" d="M106.709,49.978c0,0-2.069,12.438-10.048,15.991c2.659,1.777,6.205,4.442,6.205,4.442
		s7.979-11.549,7.094-20.433C108.187,49.09,106.709,49.978,106.709,49.978"/>
	<path style="fill:#2F2E2A;" d="M169.552,10.281l-2.246,4.78c-0.723,1.539-2.554,2.198-4.089,1.474l-12.52-5.906
		c-1.534-0.725-2.194-2.558-1.471-4.096l2.245-4.782c0.724-1.539,2.555-2.198,4.089-1.474l12.521,5.906
		C169.615,6.908,170.274,8.742,169.552,10.281"/>
</g>
</svg>
