<?xml version="1.0" encoding="iso-8859-1"?>
<!-- Generator: Adobe Illustrator 16.0.0, SVG Export Plug-In . SVG Version: 6.00 Build 0)  -->
<!DOCTYPE svg PUBLIC "-//W3C//DTD SVG 1.1//EN" "http://www.w3.org/Graphics/SVG/1.1/DTD/svg11.dtd">
<svg version="1.1" id="people" xmlns="http://www.w3.org/2000/svg" xmlns:xlink="http://www.w3.org/1999/xlink" x="0px" y="0px"
	 width="168px" height="194px" viewBox="0 0 168 194" style="enable-background:new 0 0 168 194;" xml:space="preserve">
<g>
	<g>
		<path style="fill:#2F2E2A;" d="M9.565,188.411c0,0-0.881,1.451-0.692,2.146c0.188,0.693,0.377,0.757,1.131,1.703
			c0.755,0.946,0.315,1.894-0.565,1.704c-0.88-0.189-4.088-3.786-4.843-4.985c-0.755-1.198,1.195-3.786,2.327-4.417
			C8.433,186.202,9.565,188.411,9.565,188.411"/>
		<path style="fill:#2F2E2A;" d="M33.133,175.875c0,0,0.554,1.21,1.258,1.347c0.705,0.135,1.78,0.032,2.96-0.229
			c1.179-0.264,1.832,0.55,1.275,1.26c-0.558,0.71-5.19,2.016-6.594,2.167c-1.407,0.151-2.863-2.745-2.928-4.041
			C31.237,175.739,33.133,175.875,33.133,175.875"/>
		<path style="fill:#2F2E2A;" d="M13.843,147.06c0,0,0.881,0.379,1.32-0.757c0.441-1.136,1.762-1.01,2.266-2.21
			c0.502-1.197,1.447-1.197,1.886-1.26c0.441-0.063,0.881-1.893-0.88-2.083c-1.76-0.188-4.969-0.253-5.472,1.136
			C12.459,143.273,11.515,149.27,13.843,147.06"/>
		<path style="fill:#FEE7E1;" d="M31.311,160.282c0.24-0.38,3.855-1.635,5.03-1.157c1.175,0.479,2.381,2.571,0.887,2.88
			c-1.492,0.308-1.797-1.19-3.45-0.49C32.125,162.216,30.045,162.283,31.311,160.282"/>
		<path style="fill:#FEE7E1;" d="M2.333,166.704c0.397,0.209,1.937,3.722,1.558,4.935c-0.38,1.213-2.362,2.59-2.788,1.121
			c-0.427-1.468,1.036-1.896,0.205-3.49S0.242,165.601,2.333,166.704"/>
		<path style="fill:#4B5360;" d="M16.862,169.839c0,0,0.942,8.455,0.439,10.412c-0.502,1.955-7.736,8.58-7.736,8.58l-3.648-3.849
			l6.165-7.51c0,0-3.208-5.172-2.957-8.391C11.956,166.811,16.862,169.839,16.862,169.839"/>
		<path style="fill:#FEE5E0;" d="M18.813,142.517c0.217,0.125,1.258,4.038,0,5.679c-1.258,1.641-1.887,0.505-1.887,0.505
			l0.566,2.271c0,0-3.334-1.199-3.585-1.957c-0.251-0.757-0.063-1.955-0.063-1.955s-0.88-1.893,0.189-1.955
			C15.1,145.041,16.735,141.318,18.813,142.517"/>
		<path style="fill:#80B0BC;" d="M17.68,150.72c0,0,1.635,2.146,3.02,5.993c1.384,3.851,1.32,2.778,1.32,2.778l10.883,0.314
			l-0.063,2.272c0,0-7.234,1.199-9.876,0.757c-2.642-0.44-4.593-1.829-4.593-1.829l-0.188,4.605l-9.938,0.126
			c0,0,0.125-5.048,1.068-7.319c0.944-2.271-0.062-3.407-0.062-3.407s-5.222-0.884-5.851,3.343c-0.629,4.229,0,9.592,0,9.592
			l-2.767-0.063c0,0-0.692-9.276-0.629-10.601c0.063-1.326,2.39-6.625,7.044-7.13c4.656-0.504,6.857-1.136,6.857-1.136L17.68,150.72
			z"/>
		<polygon style="fill:#FFFFFF;" points="17.554,150.72 17.616,153.117 17.114,163.466 16.611,164.792 15.542,163.025 
			16.044,150.026 		"/>
		<path style="fill:#555C6C;" d="M8.245,165.737c0,0-1.573,7.634,8.555,6.311c4.215-0.695,7.862-1.326,7.862-1.326l4.151,7.131
			l5.41-1.324c0,0-5.22-8.962-6.981-10.034c-1.761-1.071-9.059-0.883-9.059-0.883S9.313,164.161,8.245,165.737"/>
	</g>
	<path style="fill:none;stroke:#000000;stroke-width:1.5;stroke-linecap:round;stroke-linejoin:round;stroke-miterlimit:10;" d="
		M136.17,78.365c0,0-0.461,17.415-48.436,65.497c-7.046-0.378-10.988,1.136-10.988,1.136s-21.912,23.39-68.523,20.276"/>
	<g>
		<path style="fill:#2E2F2A;" d="M149.145,41.828l2.399,3.244l-4.877,3.357c0,0-2.02-0.333,1.074-3.26
			c0.591-0.581-0.398-1.421-0.398-1.421L149.145,41.828z"/>
		<path style="fill:#2E2F2A;" d="M163.974,40.757L168,40.695l-0.126,5.931c0,0-1.446,1.452-2.013-2.775
			c-0.126-0.821-1.384-0.505-1.384-0.505L163.974,40.757z"/>
		<path style="fill:#FEE7E1;" d="M125.029,30.881c-0.389-0.222-4.168,0.373-4.982,1.348c-0.813,0.975-0.899,3.391,0.563,2.96
			c1.463-0.432,1.033-1.898,2.819-2.058S127.085,32.053,125.029,30.881"/>
		<path style="fill:#F86329;" d="M140.825,9.208c0,0,2.517-0.083,7.297,3.618c4.781,3.702,6.794,4.711,9.142,7.824
			c2.35,3.114,4.781,9.086,0.336,15.649c-2.936,4.207-2.768,5.721-2.768,5.721s7.716-2.355,9.478-2.019
			c0.755,3.197,0.503,5.721,0.503,5.721s-12.413,1.177-12.916,1.177s-3.857,0.337-2.517-5.216c1.342-5.553,0.42-10.096,0.42-10.096
			s-4.277,1.682-3.858,2.691c0.42,1.01,4.445,7.488,4.445,7.488l-3.188,3.197c0,0-9.226-7.993-10.316-10.264
			c-1.09-2.272-0.503-5.048,4.362-6.227c4.864-1.177,7.464-2.187,7.464-2.187s-0.755-2.02-2.097-2.271
			c-1.342-0.252-2.852-1.262-3.522-3.114c-0.755,3.534-1.845,5.385-3.354,5.89c-1.51,0.504-13.588,5.805-14.427,5.805
			c-0.67-1.262-0.67-1.683-0.67-1.683s14.006-6.479,14.174-7.067C138.98,23.258,139.987,10.301,140.825,9.208"/>
		<path d="M148.751,26.245c0,0,7.387-2.019,8.729-5.3c-0.456-0.773-1.069-1.341-1.069-1.341s-0.656,3.402-8.204,5.589
			C148.457,25.782,148.751,26.245,148.751,26.245"/>
		<path style="fill:#2F2E2A;" d="M129.104,7.041c0,0-2.538-0.357-0.942-3.555c1.592-3.196,6.205-4.964,9.644-1.935
			c3.44,3.028,5.871,1.766,8.219,2.608c2.35,0.841,6.962,2.86,3.942,9.844s-9.33-4.669-9.33-4.669S132.794,10.911,129.104,7.041"/>
		<path style="fill:#FEE7E1;" d="M129.083,7.02c0,0,2.936,6.31,6.626,5.048c1.762-0.757,1.929-1.431,1.929-1.431
			s1.932,2.148,2.267,2.906c0.336,0.757,0.805-4.086,0.805-4.086l-1.646-2.016c0,0-1.426,1.43-1.845,0.672s-0.336-2.271-1.174-2.355
			c-0.839-0.083-1.259,0.336-1.007,1.346C134.115,7.441,133.36,10.301,129.083,7.02"/>
	</g>
	<g>
		<path style="fill:#4B5360;" d="M76.382,166.705h6.571v-13.504l-6.668-8.96c0,0-1.761,8.581-0.755,15.522
			C76.108,163.751,76.313,165.734,76.382,166.705"/>
		<path style="fill:#555C6C;" d="M92.138,162.161v4.544h7.874c-0.135-1.761-0.622-5.916-2.339-10.223
			c-2.265-5.679-10.525-12.915-10.525-12.915s-2.307-3.617-10.862,0.674C76.285,155.852,92.138,160.521,92.138,162.161"/>
		<path style="fill:#FEE5E0;" d="M106.563,112.901c0,0-0.336-1.725,0.503-2.524c0.839-0.798,2.055-2.649,2.81-2.817
			c0.755-0.169,3.146,1.388,0.294,4.206S107.569,114.163,106.563,112.901"/>
		<path style="fill:#FEE5E0;" d="M110.38,117.739c0,0,2.013-1.977,2.348-2.734c0.336-0.757,1.091-0.168,0.923,0.253
			c-0.168,0.42,0.923,0.799,1.594-0.548c0.671-1.346,1.887-0.926,1.426,0.715s-3.396,4.334-4.403,4.334
			S110.38,117.739,110.38,117.739"/>
		<path style="fill:#DFA371;" d="M84.967,123.923c0,0,10.693,1.767,13.083,1.262c2.391-0.504,12.581-7.445,12.581-7.445l1.888,2.02
			c0,0-12.581,10.853-13.965,10.979c-1.384,0.127-7.549-0.21-9.729,0.8c-1.594,5.132-1.845,6.142-1.09,12.325
			c-5.788,0.253-11.449,0.379-11.449,0.379s0.629-14.261,4.152-19.183C83.331,123.923,84.967,123.923,84.967,123.923"/>
		<path style="fill:#D59663;" d="M84.967,123.923c0,0,13.838-3.659,16.732-6.94c2.894-3.281,5.032-4.796,5.032-4.796l1.384,1.515
			c0,0-10.19,10.979-12.833,12.241C87.734,126.447,84.967,123.923,84.967,123.923"/>
		<path style="fill:#2F2E2A;" d="M81.192,117.739c0,0,1.006-0.757-0.755-1.262s-4.152,0.883-5.158,2.271
			c-1.006,1.388-1.132,6.058,5.158,6.31C81.569,120.768,81.192,117.739,81.192,117.739"/>
		<path style="fill:#FEE5E0;" d="M81.192,117.739c0,0,2.642,1.893,2.39,4.038c-0.251,2.146-0.125,1.515-0.125,1.515l1.51,0.631
			c0,0-0.252,1.262-1.007,1.262c-0.754,0-3.522-0.126-3.522-0.126l-1.384-1.136c0,0-0.755-0.379-1.006-0.883
			c-0.252-0.505-0.252-0.884,0.755-0.758C79.808,122.408,76.789,119.127,81.192,117.739"/>
	</g>
</g>
</svg>
