<?xml version="1.0" encoding="iso-8859-1"?>
<!-- Generator: Adobe Illustrator 16.0.0, SVG Export Plug-In . SVG Version: 6.00 Build 0)  -->
<!DOCTYPE svg PUBLIC "-//W3C//DTD SVG 1.1//EN" "http://www.w3.org/Graphics/SVG/1.1/DTD/svg11.dtd">
<svg version="1.1" id="people-01" xmlns="http://www.w3.org/2000/svg" xmlns:xlink="http://www.w3.org/1999/xlink" x="0px" y="0px"
	 width="361px" height="253px" viewBox="0 0 361 253" style="enable-background:new 0 0 361 253;" xml:space="preserve">
<g>
	<polygon style="fill:#999999;" points="99.249,218.859 95.578,217.814 106.872,170.975 114.214,173.059 	"/>
	<path style="fill:none;stroke:#999999;stroke-miterlimit:10;" d="M67.489,205.265c1.002,1.003,29.226,12.871,29.226,12.871
		l35.905,25.247"/>
	<polyline style="fill:none;stroke:#999999;stroke-miterlimit:10;" points="55.465,223.32 96.548,218.305 123.602,215.295 	"/>
	<path style="fill:#999999;" d="M127.196,219.039c0.384,2.451-0.496,4.624-1.965,4.855c-1.469,0.229-2.97-1.569-3.354-4.021
		s0.496-4.624,1.965-4.854C125.312,214.79,126.813,216.589,127.196,219.039"/>
	<path style="fill:#999999;" d="M57.823,228.318c0.136,3.058-1.238,5.604-3.072,5.686c-1.833,0.082-3.43-2.332-3.566-5.39
		c-0.137-3.059,1.238-5.604,3.072-5.686C56.09,222.846,57.686,225.26,57.823,228.318"/>
	<path style="fill:#999999;" d="M134.624,247.896c0,3.601-2.916,6.521-6.513,6.521s-6.513-2.92-6.513-6.521s2.916-6.521,6.513-6.521
		S134.624,244.296,134.624,247.896"/>
	<path style="fill:#999999;" d="M70.997,208.273c0,1.938-1.57,3.511-3.507,3.511s-3.507-1.573-3.507-3.511
		c0-1.939,1.57-3.511,3.507-3.511S70.997,206.334,70.997,208.273"/>
	<path style="fill:#F8CA50;" d="M146.403,170.977c-1.884,6.373-17.833,7.272-35.623,2.004
		c-17.792-5.269-30.687-14.708-28.803-21.083c1.884-6.373,17.833-7.271,35.623-2.002
		C135.391,155.164,148.287,164.601,146.403,170.977"/>
	<path style="fill:#232426;" d="M142.139,56.302c0,0-10.855,5.099-14.863-11.954c-22.044,0-65.298,2.926-75.318,4.933
		C30.916,33.23,18.892,19.187,18.892,19.187l-8.016,2.006c0,0,33.066,36.112,38.076,41.127c5.01,5.016,10.521,9.53,42.585,8.527
		c0,0-15.531,43.635-0.501,64.701c46.092-11.034,50.602-14.545,50.602-14.545l-1.002-30.094L160.676,120l18.036-3.01
		C178.712,116.99,169.694,89.906,142.139,56.302"/>
	<path style="fill:#CEC6C3;" d="M144.644,121.003l12.024-47.146c0,0,0-6.019,8.016-4.013s48.096,11.034,48.096,11.034
		s5.011,2.006,2.005,6.019c-3.007,4.012-19.206,24.91-19.206,24.91L144.644,121.003z"/>
	<path style="fill:#FCE4E0;" d="M18.391,19.688c0,0-7.014-11.034-8.016-14.043c-1.002-3.01-2.004,9.028,2.004,16.049
		C15.385,22.698,18.391,19.688,18.391,19.688"/>
	<path style="fill:#2F2E2A;" d="M143.123,13.962c0,0,9.285,5.464,21.917,5.512c3.566-6.001-7.633-18.844-17.926-18.02
		c-10.293,0.826-9.996,3.603-9.996,3.603s-4.814,2.202-6.478,10.247c-1.664,8.044-0.083,13.633,4.662,21.902
		C140.046,45.474,143.123,13.962,143.123,13.962"/>
	<path style="fill:#FCE4E0;" d="M163.933,19.605c0,0-1.12,18.369-7.677,25.252c-6.558,6.884-13.722,2.879-21.63-8.07
		c0.872-2.341,2.913-4.246,0.643-7.092c-2.27-2.847-3.518-6.645-1.11-7.747c2.408-1.102,4.171,4.889,4.171,4.889
		s2.088-14.551,4.862-14.849C143.83,13.903,153.641,18.914,163.933,19.605"/>
	<path style="fill:#FCE4E0;" d="M145.159,46.049c0,0-4.803,6.018-2.603,10.837c-7.222,3.304-14.739-0.961-16.951-11.118
		c4.008-3.009,10.521-12.037,10.521-12.037L145.159,46.049z"/>
	<polygon style="fill:#2F2E2A;" points="0.478,8.217 3.115,7.592 22.564,9.2 22.746,10.874 3.296,9.266 	"/>
	<path style="fill:#D96443;" d="M321.348,208.848l12.087,10.648l28.043-37.325c0,0-27.707,1.517-43.533,22.325
		C320.561,207.122,321.348,208.848,321.348,208.848"/>
	<path style="fill:#FCE4E0;" d="M303.358,177.802l24.003,16.82c0,0,8.801,0,9.602,0.801c0.801,0.802-14.402,14.418-14.402,14.418
		l-27.202-22.429L303.358,177.802z"/>
	<polygon style="fill:#FCE4E0;" points="157.67,197.239 147.65,203.258 144.644,200.249 155.666,191.221 	"/>
	<polygon style="fill:#D96443;" points="148.819,203.09 151.658,211.283 141.638,203.258 144.644,200.249 	"/>
	<path style="fill:#466790;" d="M90.536,134.549c0,0,4.801,27.233,40.805,27.233c36.804-12.015,79.208-21.626,79.208-21.626
		s35.204,33.64,84.009,48.858c4.801-6.406,11.201-12.815,11.201-12.815l-89.61-66.479C216.148,109.72,133.74,118.53,90.536,134.549"
		/>
	<path style="fill:#3F5D7F;" d="M168.692,150.093c0,0,18.036,20.063,27.054,26.081c9.019,6.019-15.029,17.053-38.076,21.065
		c-3.006-3.009-4.008-5.016-4.008-5.016l17.034-16.05l-41.917-14.88L168.692,150.093z"/>
	<path style="fill:#FFFFFF;" d="M185.225,94.42c0,3.324-2.691,6.02-6.011,6.02s-6.012-2.696-6.012-6.02s2.692-6.019,6.012-6.019
		S185.225,91.096,185.225,94.42"/>
</g>
</svg>
