<?xml version="1.0" encoding="iso-8859-1"?>
<!-- Generator: Adobe Illustrator 16.0.0, SVG Export Plug-In . SVG Version: 6.00 Build 0)  -->
<!DOCTYPE svg PUBLIC "-//W3C//DTD SVG 1.1//EN" "http://www.w3.org/Graphics/SVG/1.1/DTD/svg11.dtd">
<svg version="1.1" id="people-02" xmlns="http://www.w3.org/2000/svg" xmlns:xlink="http://www.w3.org/1999/xlink" x="0px" y="0px"
	 width="130px" height="227px" viewBox="0 0 130 227" style="enable-background:new 0 0 130 227;" xml:space="preserve">
<g>
	<polygon style="fill:#8ABFA1;" points="20.316,138.633 9.23,191.562 76.082,191.562 63.652,138.633 	"/>
	<line style="fill:#FFFFFF;" x1="20.652" y1="138.466" x2="1" y2="224.927"/>
	<line style="fill:none;stroke:#FFFFFF;stroke-miterlimit:10;" x1="20.652" y1="138.466" x2="1" y2="224.927"/>
	<line style="fill:#FFFFFF;" x1="29.773" y1="139.8" x2="16.641" y2="225.122"/>
	<line style="fill:none;stroke:#FFFFFF;stroke-miterlimit:10;" x1="29.773" y1="139.8" x2="16.641" y2="225.122"/>
	<line style="fill:#FFFFFF;" x1="63.988" y1="138.466" x2="83.641" y2="224.927"/>
	<line style="fill:none;stroke:#FFFFFF;stroke-miterlimit:10;" x1="63.988" y1="138.466" x2="83.641" y2="224.927"/>
	<line style="fill:#FFFFFF;" x1="54.868" y1="139.8" x2="68" y2="225.122"/>
	<line style="fill:none;stroke:#FFFFFF;stroke-miterlimit:10;" x1="54.868" y1="139.8" x2="68" y2="225.122"/>
	<path style="fill:#466790;" d="M74.066,134.96c0,3.319-13.311,6.011-29.73,6.011s-29.73-2.691-29.73-6.011
		s13.311-6.012,29.73-6.012S74.066,131.641,74.066,134.96"/>
	<polygon style="fill:#FCE4E0;" points="96.742,198.574 105.813,224.621 110.852,223.619 107.828,197.572 	"/>
	<path style="fill:#2E2D29;" d="M109.844,214.603c0,0,4.031,5.01,10.078,6.012c6.047,1.001,10.078,0,10.078,3.005
		c0,3.006-5.039,4.007-27.211,3.006c0-5.01,0.504-9.184,0.504-9.184S108.836,222.617,109.844,214.603"/>
	<polygon style="fill:#FCE4E0;" points="74.634,179.136 64.658,204.854 69.158,207.32 83.755,185.48 	"/>
	<path style="fill:#2E2D29;" d="M74.24,199.785c0,0-0.17,6.412,3.799,11.057c3.969,4.643,7.7,6.462,5.749,8.759
		c-1.95,2.296-6.45-0.171-22.74-15.155c3.251-3.826,6.345-6.693,6.345-6.693S68.27,205.262,74.24,199.785"/>
	<path style="fill:#D4D8D9;" d="M13.094,118.43c-0.245,0.972-3.023,18.032,31.242,19.034s37.289,1.002,37.289,1.002
		s1.008,35.063,14.109,64.115c7.055,1.002,15.117-2.003,15.117-2.003s-2.016-59.106-5.039-77.14
		c-3.023-18.032-62.484-19.034-62.484-19.034S15.109,110.415,13.094,118.43"/>
	<polygon style="fill:#AEB8B7;" points="81.625,138.466 69.531,179.54 85.656,186.553 91.703,168.52 	"/>
	<polygon style="fill:#CEC6C3;" points="49.879,116.426 114.379,117.428 95.23,96.891 67.012,95.89 	"/>
	<path style="fill:#CEC6C3;" d="M95.734,97.392V70.343c0,0,0.041-2.642,1.642-3.005c4.405-1.002,14.407-2.004,14.407-2.004
		s2.464,0,2.464,4.007v48.086L95.734,97.392z"/>
	<path style="fill:#F8CA50;" d="M49.375,68.339c0,0,15.117,7.013,16.125,0c1.008-7.012,2.016-15.027-24.188-38.068
		C34.258,31.273,37.281,46.3,37.281,46.3S47.359,66.336,49.375,68.339"/>
	<path style="fill:#FBD870;" d="M52.398,97.392C56.43,52.311,37.281,35.28,37.281,35.28s0,5.009-3.023,5.009
		s-10.003-7.702-11.086-6.011c0,0-13.102,10.018-17.133,19.034S1,89.378,2.008,102.401s0,16.028,19.148,15.026
		s33.258-14.025,33.258-14.025S52.22,97.47,52.398,97.392"/>
	<polygon style="fill:#F8CA50;" points="25.188,66.336 21.156,98.394 33.25,97.392 26.195,87.374 	"/>
	<path style="fill:#2F2E2A;" d="M29.736,9.949c0,0,15.565,4,14.894-0.674c4.451-4.425-7.771-11.337-14.692-8.687
		c-6.92,2.649-6.149,4.488-6.149,4.488s-2.868,2.481-2.375,8.318c0.493,5.837,2.719,9.338,7.67,14.031
		C34.033,32.118,29.736,9.949,29.736,9.949"/>
	<path style="fill:#FCE4E0;" d="M44.63,9.233c1.686,4.776,3.633,13.372,0.439,19.18c-3.274,5.952-8.864,4.748-16.539-1.136
		c0.124-1.778,1.142-3.493-1-4.979c-2.142-1.486-3.775-3.831-2.342-5.071c1.434-1.242,3.868,2.499,3.868,2.499
		S27.532,9.352,29.382,8.586C38.719,12.128,44.86,10.784,44.63,9.233"/>
	<path style="fill:#FCE4E0;" d="M37.67,31.475c0,0-2.159,5.209,0.338,8.059c-4.301,3.723-10.269,2.208-13.858-4.289
		c2.147-2.87,4.567-10.635,4.567-10.635L37.67,31.475z"/>
	<path style="fill:#2F2E2A;" d="M45.134,28.393c0.605-1.173,1.179-2.634,1.354-4.196c-0.993,0.505-4.137,0.69-5.176-0.938
		c-0.914,3.381-12.472,1.085-12.472,1.085c-0.882-0.25-2.335,0.031-0.335,2.672C36.179,32.899,42.02,34.428,45.134,28.393"/>
	<path style="fill:#FCE4E0;" d="M52.398,97.392l9.07-2.003c0,0,6.047-2.004,7.055,1.001c1.008,3.006-6.047,3.006-6.047,3.006
		l-9.07,4.007L52.398,97.392z"/>
</g>
</svg>
