<?xml version="1.0" encoding="iso-8859-1"?>
<!-- Generator: Adobe Illustrator 16.0.0, SVG Export Plug-In . SVG Version: 6.00 Build 0)  -->
<!DOCTYPE svg PUBLIC "-//W3C//DTD SVG 1.1//EN" "http://www.w3.org/Graphics/SVG/1.1/DTD/svg11.dtd">
<svg version="1.1" id="small-people-02" xmlns="http://www.w3.org/2000/svg" xmlns:xlink="http://www.w3.org/1999/xlink" x="0px"
	 y="0px" width="34px" height="127px" viewBox="0 0 34 127" style="enable-background:new 0 0 34 127;" xml:space="preserve">
<g>
	<polygon style="fill:#FFE5E1;" points="27.263,74.957 27.137,77.62 28.908,77.493 28.655,74.322 	"/>
	<path style="fill:#DA6542;" d="M28.908,77.493l-2.658,0.254l0.127,1.015c0,0-3.925,0.507-3.925,1.269
		c3.798,0.253,6.583-0.381,6.583-0.381L28.908,77.493z"/>
	<polygon style="fill:#FFE5E1;" points="12.958,76.225 12.832,78.889 14.604,78.762 14.351,75.591 	"/>
	<path style="fill:#DA6542;" d="M14.604,78.762l-2.658,0.254l0.126,1.015c0,0-3.924,0.507-3.924,1.268
		c3.798,0.254,6.583-0.38,6.583-0.38L14.604,78.762z"/>
	<path style="fill:#461A19;" d="M16.946,16.931c0,0-1.583-2.917,0.188-5.961c1.773-3.044,1.9-3.932,1.964-6.215
		c0.063-2.283,3.228-5.581,6.076-4.566s5.19,1.015,4.938,6.976c-0.253,5.961,3.48,4.946,3.038,7.801
		c-0.443,2.853,1.646,4.185,0.507,7.735c-1.14,3.553-2.785,5.455-5.57,4.44S17.894,19.15,16.946,16.931"/>
	<path style="fill:#FFE6E1;" d="M20.934,4.479c0,0-2.363,5.834,1.182,6.172c0.253,0.93,0.253,1.522,0.253,1.522
		s-1.246,0.645-1.246,1.49s5.972,0.371,5.972,0.371s-0.337-1.776-1.94-2.368c-0.676-1.522-0.676-2.029-0.676-2.029L25.66,9.13
		c0,0,1.434-0.93,0.927-1.776c-0.506-0.845-1.519,0.169-1.519,0.169S21.187,5.864,20.934,4.479"/>
	<path style="fill:#FFCD00;" d="M21.06,13.062c0,0-5.443,1.776-5.443,8.498h1.898l-0.252,9.132c0,0-1.267,1.142,2.278,1.269
		c3.544,0.126,8.988,0,8.988-0.381c0-0.38-0.127-8.751-0.127-8.751s4.178-1.902,2.911-5.454c-1.266-3.551-2.405-4.059-4.431-4.059
		C24.225,13.316,21.06,13.062,21.06,13.062"/>
	<path style="fill:#4B5360;" d="M28.529,31.58c0,0,2.151,2.41-1.14,8.371c-3.292,5.961-4.305,9.005-4.305,9.005
		s3.039,8.751,3.925,14.459c0.886,5.707,2.152,11.161,2.152,11.161l-2.152,1.015c0,0-9.621-23.084-9.747-23.718
		c-0.127-0.634-0.887-3.552-0.381-5.327c-2.151,3.805-2.658,6.469-2.658,6.469s1.772,3.678,1.393,8.624
		c-0.379,4.947-0.633,15.474-0.633,15.474h-2.785c0,0-3.165-20.293-3.418-24.985c-0.253-4.693,0.886-8.752,3.292-13.445
		c2.405-4.692,5.443-7.483,5.443-7.483L28.529,31.58z"/>
	<path style="fill:#FFE6E1;" d="M15.616,21.56l-0.633,1.649L6.375,12.301c0,0,0.76-2.283,0.127-3.298
		C5.869,7.989,5.489,9.257,5.489,9.257s-2.532,0.38-2.405,1.902c0.127,1.522,2.152,1.775,2.152,1.775l5.95,11.922
		c0,0,3.418,4.186,6.077,0.634c2.658-3.551,1.771-4.186,1.771-4.186L15.616,21.56z"/>
	<path style="fill:none;stroke:#000000;stroke-width:1.5;stroke-linecap:round;stroke-linejoin:round;stroke-miterlimit:10;" d="
		M4.319,127V13.696C4.319,3.549,16,8.961,9.872,31.96"/>
	<path style="fill:#FFE6E1;" d="M24.984,18.262c0,0,3.418,2.537,3.418,4.566c-3.418,3.425-6.456,5.961-6.456,5.961l-17.85-1.015
		c0,0-2.912,1.141-3.925,0.253c-1.013-0.888,2.785-2.029,2.785-2.029l-0.633-1.395c0,0-0.253-0.761,1.393,0.634
		c0.506,0.634,0.506,0.507,1.646,0.507c1.14,0,14.432-0.381,14.432-0.381S23.592,18.77,24.984,18.262"/>
</g>
</svg>
