<?xml version="1.0" encoding="iso-8859-1"?>
<!-- Generator: Adobe Illustrator 16.0.0, SVG Export Plug-In . SVG Version: 6.00 Build 0)  -->
<!DOCTYPE svg PUBLIC "-//W3C//DTD SVG 1.1//EN" "http://www.w3.org/Graphics/SVG/1.1/DTD/svg11.dtd">
<svg version="1.1" id="small-people-01" xmlns="http://www.w3.org/2000/svg" xmlns:xlink="http://www.w3.org/1999/xlink" x="0px"
	 y="0px" width="43px" height="174px" viewBox="0 0 43 174" style="enable-background:new 0 0 43 174;" xml:space="preserve">
<g>
	<path style="fill:#3F5D7F;" d="M23.144,41.281c0,0-2.081,16.779-0.348,20.912c1.734,4.13,14.655,20.825,14.655,20.825l5.463-1.854
		c0,0-9.365-21.418-12.661-24.454c1.475-15.261,2.081-16.104,2.081-16.104L23.144,41.281z"/>
	<path style="fill:#466790;" d="M41.353,41.703c0,0-2.948,8.685-10.579,15.177l-3.642,3.626l0.693,24.116l-6.937,0.084
		c0,0-1.735-23.694-1.995-25.549c-0.26-1.855,0.521-2.446,3.295-7.167c2.775-4.723,8.238-11.721,8.238-11.721L41.353,41.703z"/>
	<path style="fill:#FFE6E1;" d="M19.067,18.853c0,0-3.469,0.843-6.503-0.675c-3.036-1.518-7.458-3.709-9.105-3.204
		c-1.647,0.506-3.035,3.962-2.081,4.553c0.954,0.59,4.386-1.063,5.637-0.759c1.733,0.421,3.902,1.854,4.595,2.529
		c0.694,0.674,5.203,3.036,10.059,1.939C24.356,20.792,19.067,18.853,19.067,18.853"/>
	<path style="fill:#232426;" d="M21.669,23.237l-0.606-4.047c0,0,3.814-5.818,8.236-5.649c1.301,0.084,3.556,0.084,3.556,0.084
		s5.039,0.925,5.637,2.782c1.624,5.058,4.405,19.834,2.861,25.296c-12.746,0.253-19.771,0.084-19.771,0.084
		s2.081-8.179,1.821-11.467C23.144,27.031,21.755,24.585,21.669,23.237"/>
	<path style="fill:#2E2F2A;" d="M37.797,82.682c0.435,0.084,0.607,1.181,0.607,1.181s-5.55,2.783-5.115,4.216
		c-0.649-0.737,4.638,0.316,9.711-3.879c-1.301-2.613-1.561-2.951-1.561-2.951L37.797,82.682z"/>
	<path style="fill:#2E2F2A;" d="M22.29,84.732c0.37,0.233,0.118,1.314,0.118,1.314s-6.213,0.604-6.352,2.094
		c0.261,0.733,6.189,1.289,10.498-0.138c-0.24-3.138-0.068-2.35-0.338-3.304L22.29,84.732z"/>
	<path style="fill:#232228;" d="M32.725,11.201c0,0,3.252-1.833,2.861-5.754c-0.39-3.922-4.422-5.566-6.113-5.439
		c-1.69,0.126-5.008,1.455-4.162,4.87S32.725,11.201,32.725,11.201"/>
	<path style="fill:#FFE6E1;" d="M25.896,3.991c0,0-1.105,3.415-0.975,4.996c0.13,1.581,0.455,3.922,2.016,3.731
		c1.561-0.189,1.365-0.823,1.365-0.823l-0.26,2.91c0,0-0.064,1.518,2.276,0.948c2.341-0.569,2.275-0.442,2.341-1.139
		c0.064-0.695,0-5.123,0-5.123s0.845-1.139,0.781-1.896c-0.066-0.759-1.041-1.012-1.562-0.443c-0.521,0.569,0-3.225-0.78-3.415
		C30.318,3.549,27.001,2.853,25.896,3.991"/>
	<path style="fill:none;stroke:#000000;stroke-width:1.5;stroke-linecap:round;stroke-linejoin:round;stroke-miterlimit:10;" d="
		M4.413,174V18.515c0-10.119,13.816-4.721,6.567,18.213"/>
	<path style="fill:#FFE6E1;" d="M7.015,26.02c0,0,8.324,0.59,13.093-1.518c4.77-2.107,9.279-5.987,9.279-5.987
		s1.82,0.169,2.861,3.121c1.041,2.95-0.348,4.721-0.348,4.721s-5.549,2.698-15.175,2.445c-9.625-0.253-11.272,0-12.486-0.253
		s-3.728-1.181-4.162-3.036c-0.434-1.854,1.041-3.204,2.602-2.782C4.239,23.153,5.54,24.67,5.54,24.67s-1.387-2.192-0.694-1.939
		C5.54,22.984,6.927,25.26,7.015,26.02"/>
	<path style="fill:#2F3135;" d="M29.387,18.515c0,0,5.636-3.878,7.804-2.783s3.208,4.722-0.521,8.179
		c-3.209,2.109-4.422,2.193-4.422,2.193S32.508,21.044,29.387,18.515"/>
</g>
</svg>
