<?xml version="1.0" encoding="iso-8859-1"?>
<!-- Generator: Adobe Illustrator 16.0.0, SVG Export Plug-In . SVG Version: 6.00 Build 0)  -->
<!DOCTYPE svg PUBLIC "-//W3C//DTD SVG 1.1//EN" "http://www.w3.org/Graphics/SVG/1.1/DTD/svg11.dtd">
<svg version="1.1" id="small-people-03" xmlns="http://www.w3.org/2000/svg" xmlns:xlink="http://www.w3.org/1999/xlink" x="0px"
	 y="0px" width="67px" height="288px" viewBox="0 0 67 288" style="enable-background:new 0 0 67 288;" xml:space="preserve">
<g>
	<path style="fill:#292E32;" d="M36.414,267.863c0,0.375-1.269,11.543-1.269,11.543s0.635-0.754,1.522-0.502
		c0.888,0.25,0.888,0.375,0.127,2.006c-0.762,1.631-1.649,3.514-2.411,3.891c-0.761,0.375-2.918,0.375-2.918-1.256
		s-0.127-15.809-0.127-15.809L36.414,267.863z"/>
	<path style="fill:#292E32;" d="M51.386,270.371c0,0,2.41,11.041,2.791,13.803c0.381,2.76,0,3.764,1.016,3.764
		c1.015,0,9.896,0.25,10.022-0.252c0.127-0.502,0.254-1.506-4.06-2.383c-1.73-0.354-2.537,0.502-3.807-5.521
		c-1.269-6.021-1.396-12.42-1.396-12.42L51.386,270.371z"/>
	<path style="fill:#FFE6E1;" d="M37.556,185.936c0,0,3.934,3.889,1.649,7.527l-1.142,1.256l-0.634,2.258l-0.254-1.004
		c0,0-3.045-2.133-2.538-5.646C35.146,186.814,33.496,184.807,37.556,185.936"/>
	<path style="fill:#8ABFA1;" d="M37.176,195.973c0,0,9.643,0.377,13.068-0.627s3.933-2.635,3.933-2.635s-7.866-4.016-8.12-4.393
		c-0.254-0.375,2.03-2.885,2.03-2.885s4.06,3.012,7.993,4.643s2.538,4.014,2.03,4.768c-0.508,0.752-4.948,6.021-12.688,7.652
		c0,0,1.776,2.887-1.27,8.406c-3.045,5.521-1.522,4.391,0.254,7.654c1.776,3.262-12.941,3.387-16.113,1.002
		c0.889-14.678-0.127-17.939-0.127-17.939s-11.926-8.281-12.814-10.037c-0.888-1.758,14.083-7.277,15.479-6.398
		c1.396,0.877,0.126,2.635,0.126,2.635l-9.262,3.637l8.882,3.389L37.176,195.973z"/>
	<path style="fill:#5BA579;" d="M43.139,218.807c0,0,3.68,9.033,5.71,16.688c2.029,7.652,6.724,24.842,7.104,27.977
		c0.381,3.137,1.522,7.027-2.03,8.406c-3.552,1.381-3.806-4.391-4.694-7.777c-0.888-3.389-14.083-29.986-14.083-29.986
		s1.649,14.303,1.903,17.314c0.254,3.01,2.03,16.059-0.508,17.439c-2.537,1.379-5.963-0.127-5.963-0.127s-0.254-25.594-2.03-30.486
		s-5.329-11.543,0-19.697C39.205,217.051,43.139,218.807,43.139,218.807"/>
	<path style="fill:#FFE6E1;" d="M47.114,188.193c0,0-3.214,0.084-3.468-0.67c-0.254-0.752,0.761-0.836,0.761-0.836
		s0.424-1.338-2.453-2.508c-2.875-1.172-0.508-2.008,1.946-1.088c2.453,0.92,4.229,2.76,4.229,2.76L47.114,188.193z"/>
	<path style="fill:#292E32;" d="M28.167,185.811c0.254-0.627,0.381-3.764,3.553-4.016c3.172-0.25,5.963,1.129,6.852,2.887
		c0.888,1.756-1.396,2.258-2.03,2.258s0.635,1.631,0.762,4.643c0.127,3.01,1.649,6.523-0.889,9.033
		c-2.537,2.508-6.344,3.387-9.389,1.004c-3.045-2.385,0.508-5.898,0.508-9.033C27.533,189.449,28.167,185.811,28.167,185.811"/>
	<path style="fill:#398FC2;" d="M61.239,0c-11.44,0-30.111,6.356-30.111,6.356v118.437l35.863,2.677V6.356
		C66.991,6.356,67.479,0,61.239,0"/>
	
		<line style="fill:none;stroke:#000000;stroke-width:1.5;stroke-linecap:round;stroke-linejoin:round;stroke-miterlimit:10;" x1="51.089" y1="29.777" x2="43.309" y2="195.721"/>
	
		<line style="fill:none;stroke:#000000;stroke-width:1.5;stroke-linecap:round;stroke-linejoin:round;stroke-miterlimit:10;" x1="42.969" y1="28.773" x2="64.623" y2="28.773"/>
	<path style="fill:#0C5FC1;" d="M61.239,0c0,0-18.271,0.188-18.271,19.405c0,21.422,1.354,51.858-7.78,55.539H0
		c0,0,10.15-11.71,9.473-30.446c-0.676-18.735,0-22.75,0-27.1c0-4.349,3.384-15.724,14.549-15.724C35.188,1.673,61.239,0,61.239,0"
		/>
</g>
</svg>
