<svg xmlns="http://www.w3.org/2000/svg" id="background" viewBox="0 0 789 161">
  <path fill="#F3F3F3" d="M22.06 2.02s-2 15.2 42 16.2c44.02 1.02 48.02 12.16 61.02 9.12 13-3.04 26-16.2 27-26.33m-59 114.5c-6.1.1-20 18.28-1 20.3 19 2 65-3.04 77 12.14 12 15.2 46 15.2 85.02 10.13s174.03-13.16 103.02-34.43c-71.02-21.28-190.03-9.1-264.05-8.1M786.17 1s11 23.3-10 25.33c-21 2.02-26 34.43-64 34.43s-72 8.1-79-4.05-74 7.1-71-6 104-19.2 110-34.4 41-15.7 41-15.7M193.1 0s-11 30.38 29 31.4c40 1 72-4.06 108 18.22 36.02 22.28 115.03 31.4 159.03 12.15 44-19.24 47-36.46 88.02-38.48 41-2.1 68-1.1 71-23.3"/>
  <path fill="#FFF" d="M.06 0H228.1"/>
  <path fill="none" stroke="#999" stroke-width=".5" stroke-miterlimit="10" d="M.06 0H228.1"/>
  <path fill="#FFF" d="M344.1.5h228.05"/>
  <path fill="none" stroke="#999" stroke-width=".5" stroke-miterlimit="10" d="M344.1.5h228.05"/>
  <path fill="#FFF" d="M624.16.5h24"/>
  <path fill="none" stroke="#999" stroke-width=".5" stroke-miterlimit="10" d="M624.16.5h24"/>
  <path fill="#FFF" d="M713.17.5h51.5"/>
  <path fill="none" stroke="#999" stroke-width=".5" stroke-miterlimit="10" d="M713.17.5h51.5"/>
</svg>
