<svg xmlns="http://www.w3.org/2000/svg" viewBox="0 0 550 630">
  <g id="folder">
    <path fill="#D1D2D3" d="M.063 334.484l87.73-128.2h96.75l-97.26 135.2-87.22-7z"/>
    <path fill="#EFB93F" d="M83.163 439.555l-79.02-10.202 22-169.87 79.04 10.22-22.02 169.852z"/>
    <path fill="#FBD870" d="M90.632 440.533l-79.04-10.22 22-169.86 79.03 10.2-21.99 169.88z"/>
    <path fill="#3F5D7F" d="M39.663 259.354h79.7v171.3h-79.7v-171.3z"/>
    <path fill="#466790" d="M47.183 259.354h79.7v171.3h-79.7v-171.3z"/>
    <path fill="#EFB93F" d="M53.703 247.854h79.7v171.27h-79.7v-171.27z"/>
    <path fill="#FBD870" d="M61.222 247.854h79.7v171.27h-79.7v-171.27z"/>
    <path fill="#3F5D7F" d="M64.232 252.854h79.7v171.28h-79.7v-171.28z"/>
    <path fill="#466790" d="M71.763 252.854h79.7v171.28h-79.7v-171.28z"/>
    <path fill="#EFB93F" d="M79.762 234.324h79.7v171.28h-79.7v-171.28z"/>
    <path fill="#FBD870" d="M87.283 234.324h79.7v171.28h-79.7v-171.28z"/>
    <path fill="#DDDFE4" d="M87.283 502.254l-87.22-10.52v-157.25l87.22 7v160.77z"/>
    <path fill="#D1D2D3" d="M194.063 460.683l-106.78 41.57v-160.76l106.78-148.24v267.43z"/>
  </g>
  <g id="keyboard">
    <path fill="#DDDFE4" d="M236.212 624.427l-231.94-54.87 105.1-42.08 233.602 46.46-106.762 50.49z"/>
    <path fill="#FFF" d="M125.093 534.714l-24.1 9.762-15.73-2.7 24.1-9.76 15.73 2.698zm22.33 4.7l-24.1 9.77-15.73-2.63 24.1-9.76 15.73 2.62zm22.32 4.722l-24.1 9.77-15.72-2.7 24.1-9.76 15.72 2.69zm22.34 4.718l-24.1 9.763-15.72-2.702 24.1-9.76 15.72 2.7zm22.33 4.72l-24.1 9.75-15.72-2.7 24.1-9.75 15.72 2.7zm22.33 4.7l-24.1 9.76-15.72-2.697 24.1-9.752 15.72 2.69zm22.34 4.72l-24.1 9.763-15.73-2.703 24.1-9.758 15.73 2.698zm22.33 4.7l-24.1 9.78-15.73-2.698 24.102-9.77 15.73 2.69zm22.33 4.72l-24.1 9.76-15.73-2.696 24.1-9.752 15.73 2.69zm22.33 5.06l-24.1 9.752-15.73-2.7 24.1-9.75 15.73 2.698zm-234.33-29.5l-24.06 9.662-15.7-2.77 24.06-9.7 15.7 2.81zm22.27 4.84l-24.05 9.66-15.7-2.778 24.06-9.66 15.69 2.778zm22.3 4.842l-24.07 9.658-15.7-2.778 24.06-9.66 15.71 2.78zm22.27 4.84l-24.06 9.66-15.7-2.78 24.06-9.66 15.7 2.78zm22.28 4.84l-24.06 9.65-15.7-2.72 24.06-9.65 15.7 2.72zm22.28 4.84l-24.06 9.65-15.7-2.78 24.06-9.66 15.7 2.79zm22.28 4.83l-24.05 9.66-15.7-2.8 24.06-9.7 15.69 2.84zm22.28 4.838l-24.05 9.663-15.7-2.78 24.1-9.66 15.65 2.777zm22.3 4.832l-24.07 9.66-15.7-2.78 24-9.65 15.77 2.77zm22.27 5.178l-24.06 9.663-15.7-2.78 24.06-9.662 15.7 2.78zm-230.13-30.528l-23.9 9.6-15.44-2.93 23.9-9.602 15.44 2.932zm21.92 5.078l-23.9 9.6-15.45-2.937 23.9-9.6 15.45 2.937zm21.9 5.072l-23.9 9.6-15.45-2.94 23.9-9.6 15.45 2.94zm21.9 5.07l-23.9 9.6-15.44-2.94 23.9-9.6 15.44 2.94zm21.9 5.07l-23.9 9.602-15.44-2.933 23.9-9.6 15.44 2.93zm21.92 5.06l-23.9 9.6-15.45-2.92 23.9-9.6 15.45 2.92zm21.9 5.08l-23.9 9.6-15.45-2.93 23.9-9.6 15.45 2.93zm21.9 5.08l-23.9 9.6-15.44-2.94 23.9-9.6 15.44 2.94zm21.9 5.07l-23.9 9.6-15.44-2.94 23.9-9.6 15.44 2.94zm21.9 5.4l-23.9 9.602-15.44-2.92 23.9-9.602 15.44 2.92z"/>
    <path fill="#2877F6" d="M343.143 578.977l-106.93 50.5v-5.05l106.93-50.5v5.05zm-339-4.402l232.07 54.9v-5.05l-232.07-54.9v5.05z"/>
  </g>
  <g id="monitor">
    <path fill="#2877F6" d="M542.283 436.062L163.72 398.594c-4.26 0-7.72-3.46-7.72-7.73v-268.66c0-4.26 3.46-7.72 7.72-7.72l378.563-32.15c4.268 0 7.717 3.46 7.717 7.718v338.3c0 4.26-3.45 7.7-7.717 7.7"/>
    <path fill="#C5DAFA" d="M530.6 395.912l-363.9-29.45V127.534l363.9-27.44V395.91z"/>
    <path fill="#FFF" d="M502.5 372.483l-265.56-17.4v-210.15l265.56-16.06v243.61z"/>
    <path fill="#FFF" d="M530.6 137.133v-37.05l-363.9 27.45v30.28l363.9-20.68z"/>
    <path fill="#2877F6" d="M373.4 504.333l-91.64-17.4v-77.64l91.64 9.37v85.67z"/>
    <path fill="#D4D8D9" d="M378.1 165.333l-130.47 5.04v-9.36l130.45-6.03.02 10.35zm0 18.75l-130.46 5.02v-9.37l130.45-6.02.01 10.37zm0 18.75l-130.46 5v-9.36l130.45-6.02.01 10.38zm-56.2 20.74l-74.26 3v-9.36l74.26-4v10.36z"/>
    <path fill="#2877F6" d="M285.1 248.673l-37.46.33v-16.4l37.46-1.33v17.4z"/>
    <path fill="#D4D8D9" d="M383.1 268.413l-135.46-1v-9.37H383.1v10.37zm0 18.74l-135.46-1v-9.37H383.1v10.37zm0 18.74l-135.46-1v-9.37H383.1v10.37zm-61.2 18.74l-74.26-2v-9.38h74.26v11.38z"/>
    <path fill="#2877F6" d="M285.1 348.733l-37.46-2.682v-16.39l37.46.67v18.41z"/>
    <path fill="#FFCD00" d="M400.16 402.604l70.9 10.7s5.362 46.2-6 81l-68.24-17.4c0-.002 9.36-49.543 3.34-74.3"/>
    <path fill="#2877F6" d="M485.45 345.032l-85.3-3.88v-133.98l85.3-2.86v140.72z"/>
    <path fill="#C5DAFA" d="M235.94 145.793l229.762-13.06v-18.93l-229.75 17.13-.012 14.86z"/>
    <path fill="#F2704E" d="M179.4 142.263c0 2.22-1.33 4.02-3 4.02-1.66 0-3-1.8-3-4.02s1.34-4.02 3-4.02c1.67 0 3 1.8 3 4.1"/>
    <path fill="#F9CD50" d="M190.03 141.673c0 2.2-1.34 4-3 4-1.67 0-3.02-1.78-3.02-4s1.4-4.02 3.1-4.02c1.7 0 3 1.8 3 4.02"/>
    <path fill="#50BDD3" d="M201 141.253c0 2.22-1.36 4.02-3.02 4.02-1.67 0-3-1.8-3-4.02s1.33-4.02 3-4.02c1.66 0 3 1.8 3 4.02"/>
    <g fill="#C5DAFA">
      <path d="M418.52 171.393l-8.25-7.4c-.28-.25-.67-.32-1.02-.18l-10.438 4.16c-.3.142-.603.47-.603.86l-2.21 11.56c-.07.402.06.8.33 1.04l8.25 7.4c.3.252.68.322 1.04.18l10.43-4.16c.36-.14.6-.47.69-.86l2.2-11.56c.06-.4-.06-.8-.34-1.04m-3.8 11.62l-9.3 3.7-7.31-6.6 2-10.3 9.3-3.7 7.4 6.6-1.9 10.3h-.2z"/>
      <path d="M411.2 176.003l-4.13 2.08-3.7-3.96 4.92-2.5 3 3.3 1.5-.8-3.7-4c-.3-.4-.897-.5-1.3-.2l-6.4 3.2c-.4.2-.5.6-.198 1l4.81 5.21c.17.17.398.3.64.3.238.06.5 0 .702-.1l4.868-2.42-1.1-1.23.09.12z"/>
      <path d="M403.97 174.754l3.1 3.33 4.9-2.47-3.7-3.96-4.118 2.08-1.12-1.22 4.867-2.46c.42-.2 1-.1 1.32.23l4.8 5.18c.32.33.24.77-.18.98l-6.4 3.3c-.2.1-.45.2-.7.1-.24 0-.47-.1-.62-.3l-3.66-3.9 1.5-.7.01-.19z"/>
      <path d="M410.66 179.063l-4.178 2.1-3.684-3.95-1.098-1.22-.78.38c-.42.2-.502.65-.2 1l4.83 5.16c.138.16.37.28.602.32.258.04.5 0 .698-.102l4.93-2.46-1.12-1.22z"/>
      <path d="M403.36 177.803l3.14 3.37 4.9-2.47h-.02l1.5-.77.58.62c.3.33.228.77-.18.98l-6.402 3.23c-.198.1-.46.13-.698.1-.25-.05-.472-.17-.62-.33l-3.7-3.98 1.5-.75zm27.942-3.97c-.1-.5-.302-.9-.582-1.24-.278-.32-.64-.56-1.098-.72-.433-.15-.933-.22-1.48-.2-.54.03-1.003.13-1.42.3-.4.16-.772.35-1.08.58-.3.22-.57.45-.78.7l-.2.25-.33.4.15-.88.17-.9H422.9c-.598 0-1.2.502-1.298 1.2l-.46 2.2-1 5.102-.503 2.4c-.12.6.27 1.1.87 1.1h.9l1.1-.1 1.4-6.9c.2-.9.6-1.6 1.1-2.1.6-.5 1.2-.8 1.8-.8.5 0 .8 0 1.1.2.2.1.4.3.5.6.1.2.1.5.1.7v.3l-.3 1.5-.2 1.3-.4 2.1-.3 1.6c-.1.6.3 1.1.9 1.1h1.9l1.6-8.4c.1-.7.1-1.3 0-1.7m12.7-2.502h-1.9c-.6 0-1.2.5-1.3 1.2l-.2 1.3-.9 4.5c-.1.5-.3 1-.5 1.3-.2.3-.4.6-.7.8-.3.3-.5.4-.8.5-.3.1-.61.2-.8.2s-.4 0-.7-.1c-.2 0-.4-.1-.6-.3-.1-.1-.2-.4-.3-.6v-.49c0-.5.2-1.2.3-1.78l.5-2.6.5-2.7.2-1.16-1.1.1-.8.07c-.6.06-1.2.6-1.3 1.2l-1.4 6.8c-.1.8-.2 1.45-.1 2s.3 1 .5 1.35c.3.4.7.6 1.1.8.4.2.9.2 1.5.2.8 0 1.5-.2 2.2-.6.6-.3.89-.6.89-.7.3-.24.5-.5.7-.8l.1-.1-.1.8-.1.83h1.09l.7-.1h.1c.6 0 1.093-.6 1.193-1.2l1.59-9.41.2-1.13.21-.18zm40.2.8l2.1-2.6h-2.5c-.6 0-1.4.4-1.8 1l-.2.3-.4.6-.6.8c-.4.5-.9.402-1.1-.198l-.8-2.3h-2.5c-.6 0-.8.5-.6 1l1.6 3.7c.3.6.2 1.4-.2 1.9l-3.7 4.5c-.4.5-.2.9.4.83h1.6l.95-.04 1.4-1.84.67-.9c.4-.6.9-.5 1.1.1l.5 1.4.05.1c.3.5.9.9 1.4.9h.6l.9-.1 1.1-.1-1.6-3.66-.6-1.3c-.2-.6-.11-1.4.3-1.9l2.1-2.6-.17.408zm-11.72 6.51l1.05-5.4c.2-.8.1-1.4-.1-1.8-.2-.5-.5-.8-.92-1-.4-.3-.84-.4-1.34-.5-.5-.1-.9-.1-1.3-.1-.61 0-1.2.07-1.81.2-.6.1-1.1.298-1.7.6-.5.35-1 .8-1.4 1.36-.4.6-.6 1.2-.6 1.2-.2.6.1 1.1.7 1.1h1.79c0-.2.104-.4.2-.6.102-.2.202-.4.402-.54.095-.15.3-.3.595-.4.2-.1.602-.2.9-.2h.6c.2 0 .4.06.6.15.2.03.3.2.4.398.1.13.1.4 0 .71-.1.35-.3.6-.5.7l-.4.2-1.4.3-1.7.33c-.5.1-1 .28-1.4.48-.5.2-.9.5-1.2.8-.4.36-.7.75-.9 1.2-.3.46-.5.98-.6 1.57-.1.62-.1 1.15 0 1.6.1.42.3.8.603 1.05.3.25.6.42 1 .53.4.1.8.2 1.2.16.5 0 .9-.1 1.3-.3.404-.1.754-.3 1.105-.5.3-.2.596-.4.83-.6l.7-.6c-.106.2-.106.3-.106.5v.7c0 .1.5.2 1.104.2l1-.1c.6-.1 1.1-.3 1.2-.6h-.2c-.1-.1-.1-.2-.18-.3-.098-.1-.098-.3-.098-.6l.3-1.8m-4.9 1.6c-.34.1-.7.2-1.006.2-.1 0-.3 0-.44-.1s-.3-.1-.4-.2c-.1-.1-.2-.3-.2-.5v-.7c.1-.4.2-.6.3-.9.2-.2.3-.4.6-.5.3-.2.5-.3.8-.4.2-.1.5-.2.8-.2.6-.2 1.1-.3 1.4-.4l.3-.2c.3-.2.3.2.2.9l-.1.4c-.1.3-.2.7-.4 1-.2.3-.43.5-.7.7-.3.2-.65.4-1 .5m-4.503-9.6h-.96c-.496 0-.8-.5-.7-1.1l.1-.5.105-.5.3-1.1h-1.9l-1.096.1-.3 1.7-.305 1.5-3.5.1c.3.3.526.6.696 1.1.14.3.23.7.3 1.1l2.04-.1-.3 1.8-1.1 5.5c-.1.4-.1.7-.1 1 0 .3.1.5.2.8.1.2.4.4.8.5l.4.1h1.4l.7-.1h.7l.202-1.14.2-1.3-.37.1h-.3c-.3.1-.517 0-.697 0-.15 0-.26-.1-.33-.1s-.1-.13-.1-.3l.25-1.3.33-1.8.095-.4.5-2.2c.1-.6.6-1.2 1.1-1.2l.896-.04.6-.03c.103-.2.3-.7.7-1.3.3-.4.603-.7.9-1h-1.8l.34.11zm-14.896 3.4c.1-.1.2-.3.3-.4.14-.1.34-.2.6-.3.25-.1.6-.2 1-.2s.7 0 .93.1c.2 0 .4.2.5.3.1.1.16.3.2.5v.2c0 .2.5.3 1.1.3l1.8-.1c.12-.9.1-1.5-.16-2-.2-.5-.5-.9-.9-1.2-.4-.3-.9-.5-1.4-.6-.5-.1-1.1-.1-1.6-.1-.9 0-1.6.2-2.3.44-.6.3-1.1.6-1.6 1.03-.4.4-.7.83-1 1.3-.2.5-.4.94-.5 1.4-.1.74-.1 1.33.2 1.76.3.47.6.8 1.1 1 .5.3 1 .45 1.6.55l1.6.3c.5.1.9.2 1.2.4.3.1.404.4.404.7 0 .1-.108.2-.2.4l-.35.4c-.206.1-.407.2-.65.3-.306.1-.607.2-1 .2-.506 0-.9 0-1.2-.1-.3-.1-.5-.2-.7-.4-.2-.15-.306-.33-.306-.54l-.033-.2c0-.2-.5-.4-1.1-.4l-2 .1c-.14.8-.1 1.47.1 2 .26.5.6.9 1 1.2.48.3 1 .5 1.6.6.6.1 1.26.17 1.9.15.4-.05.9-.1 1.5-.26s1.18-.4 1.75-.7c.6-.3 1.1-.76 1.6-1.3.4-.56.7-1.28.9-2.16.14-.8.1-1.3-.17-1.8s-.6-.8-1.1-1c-.5-.3-1-.5-1.6-.6l-1.6-.3c-.5-.1-.9-.2-1.2-.3-.35-.13-.5-.4-.4-.7 0-.1.1-.3.1-.4"/>
    </g>
  </g>
  <g id="people">
    <path fill="#2F2E2A" d="M29.498 256.112s-.88 1.46-.7 2.16c.2.7.4.75 1.14 1.7.76.95.32 1.9-.56 1.7-.88-.2-4.104-3.78-4.846-4.98-.76-1.198 1.202-3.798 2.322-4.417 1.502 1.638 2.643 3.85 2.643 3.85m23.598-12.5s.56 1.2 1.26 1.398c.702.2 1.703.1 2.904-.2 1.2-.2 1.8.6 1.3 1.3-.6.7-5.21 2-6.61 2.2-1.4.2-2.91-2.698-3.01-4 2.1-.6 4-.5 4-.5M33.63 215.03s.9.4 1.3-.698c.4-1.1 1.704-1 2.204-2.2.5-1.2 1.402-1.2 1.902-1.2.4 0 .9-1.9-.904-2.1-1.802-.2-5.006-.2-5.506 1.2s-1.5 7.398.8 5.2"/>
    <path fill="#FEE7E1" d="M51.263 227.997c.25-.38 3.875-1.63 5.045-1.15 1.182.47 2.383 2.57.9 2.88-1.5.3-1.8-1.2-3.463-.5-1.662.8-3.734.8-2.473-1.2m-28.932 6.398c.4.2 2.002 3.8 1.602 5-.4 1.2-2.303 2.6-2.803 1.1-.41-1.4 1.1-1.9.2-3.5-.91-1.6-1.01-3.6 1-2.5"/>
    <path fill="#4B5360" d="M36.807 237.555s.94 8.448.44 10.398c-.5 1.97-7.75 8.6-7.75 8.6l-3.643-3.86 6.167-7.5s-3.2-5.177-2.96-8.397c2.85-2.27 7.75.76 7.75.76"/>
    <path fill="#FEE5E0" d="M38.75 210.24c.23.118 1.27 4.03 0 5.678-1.252 1.64-1.873.5-1.873.5l.56 2.27s-3.403-1.2-3.603-1.96c-.3-.7-.1-1.898-.1-1.898s-.9-1.9.2-1.9c1 0 2.704-3.7 4.706-2.5"/>
    <path fill="#80B0BC" d="M37.627 218.438s1.642 2.15 3.023 6c1.382 3.838 1.32 2.77 1.32 2.77l10.894.3-.06 2.2s-7.238 1.2-9.89.7c-2.644-.5-4.606-1.9-4.606-1.9l-.18 4.6-9.95.1s.13-5.1 1.07-7.3c1-2.3 0-3.4 0-3.4s-5.206-.9-5.807 3.3c-.6 4.2 0 9.598 0 9.598l-2.7-.1s-.71-9.288-.61-10.588c.1-1.3 2.41-6.6 7.11-7.1s6.91-1.12 6.91-1.12l3.81 1.7-.32.24z"/>
    <path fill="#FFF" d="M37.497 218.438l.07 2.4-.5 10.35-.5 1.32-1.082-1.8.5-12.998 1.512.728z"/>
    <path fill="#555C6C" d="M28.177 233.457s-1.572 7.628 8.57 6.298l7.868-1.32 4.155 7.13 5.506-1.32s-5.206-8.96-7.008-10.04c-1.702-1.1-9.01-.9-9.01-.9s-8.81-1.5-9.91.1"/>
    <path fill="none" stroke="#000" stroke-width="1.5" stroke-miterlimit="10" d="M156.252 146.09s-.46 17.416-48.496 65.49c-7.048-.38-10.992 1.14-10.992 1.14s-21.944 23.395-68.607 20.265" stroke-linecap="round" stroke-linejoin="round"/>
    <path fill="#2E2F2A" d="M169.248 109.564l2.4 3.24-4.884 3.36s-2.022-.33 1.07-3.26c.602-.58-.4-1.42-.4-1.42l1.803-1.92h.01zm14.836-1.07l4.033-.06-.13 5.93s-1.44 1.45-2.002-2.78c-.14-.82-1.4-.5-1.4-.5l-.5-2.6v.01z"/>
    <path fill="#FEE7E1" d="M145.1 98.616c-.4-.22-4.175.37-4.986 1.35-.82.97-.9 3.4.56 2.96 1.504-.5 1.103-1.9 2.904-2.1 1.802-.2 3.704-1.1 1.602-2.3"/>
    <path fill="#F86329" d="M160.907 76.938s2.523-.07 7.31 3.63c4.784 3.7 6.807 4.7 9.148 7.82 2.354 3.098 4.787 9.098.342 15.646-2.943 4.2-2.774 5.72-2.774 5.72s7.73-2.36 9.49-2.02c.802 3.2.502 5.72.502 5.72s-12.415 1.18-12.915 1.18-3.804.34-2.502-5.22c1.402-5.55.4-10.098.4-10.098s-4.205 1.7-3.804 2.7c.4 1 4.504 7.498 4.504 7.498l-3.203 3.18s-9.21-8-10.312-10.258c-1.102-2.27-.502-5.05 4.405-6.23 4.905-1.18 7.508-2.2 7.508-2.2s-.7-2-2.102-2.258c-1.302-.2-2.805-1.2-3.504-3.1-.702 3.6-1.803 5.4-3.305 5.9-1.5.5-13.615 5.798-14.416 5.798-.61-1.2-.61-1.7-.61-1.7s14.01-6.4 14.21-7c.2-.6 1.2-13.498 2-14.597"/>
    <path d="M168.846 93.986s7.41-2.02 8.74-5.3c-.46-.778-1.07-1.35-1.07-1.35s-.602 3.4-8.21 5.6c.3.58.6 1.05.6 1.05"/>
    <path fill="#2F2E2A" d="M149.173 74.78s-2.532-.36-.94-3.55c1.602-3.2 6.207-5 9.66-2 3.504 3 5.907 1.7 8.31 2.6 2.293.91 6.898 2.91 3.896 9.908-3.01 7-9.36-4.7-9.36-4.7s-7.86 1.6-11.56-2.3"/>
    <path fill="#FEE7E1" d="M149.155 74.76s2.94 6.298 6.637 5.048c1.802-.76 2.002-1.43 2.002-1.43s2.002 2.15 2.303 2.9c.4.76.8-4.08.8-4.08l-1.6-2.02s-1.403 1.43-1.804.67c-.4-.76-.3-2.2-1.1-2.3-.802-.1-1.202.4-1.002 1.4-.9.4-1.7 3.2-5.9 0"/>
    <path fill="#4B5360" d="M96.393 234.416h6.578v-13.498l-6.67-8.96s-1.76 8.58-.75 15.52c.58 4 .78 5.968.85 6.948"/>
    <path fill="#555C6C" d="M112.17 229.876v4.55h7.87c-.12-1.7-.6-5.9-2.332-10.2-2.263-5.7-10.532-12.896-10.532-12.896s-2.303-3.6-10.873.7c-.1 11.6 15.818 16.297 15.818 17.897"/>
    <path fill="#FEE5E0" d="M126.608 180.624s-.33-1.72.5-2.52c.853-.8 2.063-2.65 2.823-2.82.76-.17 3.15 1.4.31 4.2-2.84 2.8-2.6 2.4-3.62 1.14m3.83 4.84s2-1.98 2.36-2.73c.33-.7 1.1-.1.92.3-.17.4.926.8 1.606-.5.67-1.3 1.883-.9 1.42.8-.46 1.698-3.4 4.398-4.403 4.398s-1.9-2-1.9-2"/>
    <path fill="#DFA371" d="M104.994 191.642s10.713 1.77 13.096 1.27c2.4-.6 12.594-7.498 12.594-7.498l1.9 2s-12.612 10.8-13.994 10.998c-1.382.1-7.55-.2-9.73.8-1.603 5.1-1.854 6.1-1.103 12.298l-11.453.4s.603-14.298 4.105-19.198c2.9-1.2 4.5-1.2 4.5-1.2"/>
    <path fill="#D59663" d="M104.994 191.642s13.846-3.66 16.75-6.94c2.903-3.278 5.034-4.798 5.034-4.798l1.383 1.52c.1 0-10.11 10.98-12.81 12.238-7.51.5-10.31-2.02-10.31-2.02"/>
    <path fill="#2F2E2A" d="M101.22 185.463s1-.76-.76-1.26c-1.764-.5-4.167.88-5.167 2.27-1.002 1.4-1.13 6.058 5.166 6.298 1.13-4.28.75-7.29.75-7.29"/>
    <path fill="#FEE5E0" d="M101.22 185.463s2.632 1.9 2.383 4.04c-.25 2.14-.12 1.5-.12 1.5l1.5.64s-.24 1.27-1 1.27l-3.523-.2-1.402-1.2s-.74-.4-1.002-.9c-.24-.5-.24-.9.76-.798 1.003.1-2-3.2 2.405-4.6"/>
  </g>
  <g id="small-people-01">
    <path fill="#3F5D7F" d="M484.148 41.622s-2.08 16.78-.34 20.9c1.73 4.14 14.65 20.84 14.65 20.84l5.46-1.86s-9.3-21.4-12.6-24.46c1.5-15.22 2.1-16.1 2.1-16.1l-9.2.7-.07-.02z"/>
    <path fill="#466790" d="M502.36 42.042s-2.94 8.7-10.582 15.18l-3.64 3.63.7 24.198-6.94.1s-1.8-23.698-2-25.528c-.3-1.86.5-2.45 3.3-7.17 2.7-4.73 8.2-11.73 8.2-11.73l10.9 1.44.06-.12z"/>
    <path fill="#FFE6E1" d="M480.08 19.193s-3.472.85-6.5-.67c-3.042-1.52-7.462-3.7-9.102-3.2-1.66.5-3.05 3.96-2.1 4.55.96.6 4.398-1.07 5.64-.76 1.8.42 4 1.85 4.6 2.53.7.67 5.2 3.03 10.1 1.94 2.7-2.45-2.6-4.4-2.6-4.4"/>
    <path fill="#232426" d="M482.68 23.583l-.6-4.05s3.8-5.9 8.228-5.7c1.3.1 3.552.1 3.552.1s5.04.9 5.64 2.8c1.6 5 4.4 19.8 2.8 25.3-12.8.2-19.802.1-19.802.1s2.1-8.2 1.802-11.5c-.28-3.3-1.66-5.8-1.75-7.1"/>
    <path fill="#2E2F2A" d="M498.81 83.02c.43.1.6 1.18.6 1.18s-5.55 2.8-5.1 4.22c-.66-.74 4.63.3 9.7-3.88-1.3-2.6-1.56-2.95-1.56-2.95l-3.64 1.43zm-15.5 2.05c.36.23.1 1.32.1 1.32s-6.2.6-6.34 2.1c.26.72 6.18 1.28 10.5-.15-.25-3.14-.07-2.35-.34-3.3l-3.93.03h.01z"/>
    <path fill="#232228" d="M493.74 11.543s3.25-1.83 2.86-5.75c-.392-3.92-4.49-5.57-6.192-5.45-1.7.13-5 1.46-4.16 4.88.84 3.42 7.42 6.32 7.42 6.32"/>
    <path fill="#FFE6E1" d="M486.91 4.343s-1.1 3.4-.98 5c.13 1.57.46 3.9 2.02 3.72 1.56-.2 1.36-.83 1.36-.83l-.26 2.9s-.06 1.5 2.28.9 2.27-.5 2.34-1.2c.06-.7 0-5.1 0-5.1s.84-1.16.78-1.9c-.07-.77-1.04-1.03-1.56-.46s0-3.2-.78-3.4-4.102-.9-5.2.24"/>
    <path fill="none" stroke="#000" stroke-width="1.5" stroke-miterlimit="10" d="M465.407 174.337V18.843c0-10.1 13.83-4.7 6.58 18.23" stroke-linecap="round" stroke-linejoin="round"/>
    <path fill="#FFE6E1" d="M468.008 26.362s8.34.6 13.102-1.52c4.78-2.1 9.3-6 9.3-6s1.8.18 2.85 3.14c1.04 2.95-.35 4.72-.35 4.72s-5.55 2.7-15.18 2.44c-9.62-.25-11.272 0-12.48-.25-1.212-.25-3.74-1.18-4.162-3.05-.44-1.84 1.04-3.2 2.602-2.77 1.56.418 2.86 1.938 2.86 1.938s-1.4-2.2-.7-1.94c.7.25 2.1 2.53 2.17 3.3"/>
    <path fill="#2F3135" d="M490.408 18.862s5.62-3.88 7.802-2.8c2.18 1.08 3.2 4.73-.53 8.2-3.2 2.1-4.42 2.18-4.42 2.18s.26-5.06-2.86-7.6"/>
  </g>
  <g id="small-people-02">
    <path fill="#FFE5E1" d="M404.64 91.134l-.12 2.66 1.766-.13-.2-3.2-1.447.67z"/>
    <path fill="#DA6542" d="M406.275 93.675l-2.644.25.13 1s-3.92.52-3.92 1.28c3.79.25 6.57-.38 6.57-.38l-.12-2.16-.01.01z"/>
    <path fill="#FFE5E1" d="M390.374 92.395l-.13 2.67 1.766-.2-.25-3.2-1.386.73z"/>
    <path fill="#DA6542" d="M392.01 94.934l-2.644.26.12 1s-3.91.52-3.91 1.28c3.79.25 6.563-.38 6.563-.38l-.13-2.16z"/>
    <path fill="#461A19" d="M394.354 33.105s-1.596-2.92.18-5.96 1.896-3.93 1.965-6.2c.06-2.3 3.22-5.6 6.05-4.58 2.83 1.02 5.18 1 4.93 6.9-.2 5.9 3.49 4.9 3.09 7.8-.4 2.8 1.69 4.2.5 7.7-1.1 3.5-2.8 5.4-5.49 4.4-2.7-1-10.19-7.99-11.09-10.19"/>
    <path fill="#FFE6E1" d="M398.324 20.655s-2.354 5.83 1.197 6.17c.24.93.24 1.52.24 1.52s-1.24.65-1.24 1.5 5.97.36 5.97.36-.34-1.77-1.93-2.36c-.68-1.53-.68-2.03-.68-2.03l1.18-.5s1.43-.94.93-1.8c-.6-.83-1.59.18-1.59.18s-3.892-1.66-4.19-3.04"/>
    <path fill="#FFCD00" d="M398.454 29.235s-5.427 1.78-5.427 8.5h1.896l-.26 9.13s-1.257 1.1 2.275 1.2c3.54.1 8.978 0 8.978-.4l-.14-8.8s4.17-1.9 2.893-5.5c-1.25-3.57-2.4-4.07-4.41-4.07-2.65 0-5.81-.26-5.81-.26"/>
    <path fill="#4B5360" d="M405.905 47.755s2.146 2.4-1.137 8.37c-3.292 5.96-4.39 9-4.39 9s3.093 8.75 3.99 14.45c.898 5.73 2.096 11.2 2.096 11.2l-2.194 1s-9.577-23.08-9.677-23.7c-.1-.65-.898-3.57-.4-5.34-2.094 3.8-2.623 6.47-2.623 6.47s1.796 3.67 1.396 8.62c-.398 4.95-.64 15.47-.64 15.47h-2.792s-3.11-20.3-3.35-24.98c-.25-4.7.896-8.75 3.29-13.45 2.395-4.7 5.427-7.5 5.427-7.5l10.98.4.03-.01z"/>
    <path fill="#FFE6E1" d="M393.027 37.735l-.64 1.65-8.577-10.9s.758-2.2.12-3.3c-.63-1-1 .3-1 .3s-2.532.4-2.413 1.9c.12 1.49 2.154 1.79 2.154 1.79l5.95 11.9s3.39 4.17 6.02.62c2.67-3.56 1.77-4.22 1.77-4.22l-3.39.27.02-.01z"/>
    <path fill="none" stroke="#000" stroke-width="1.5" stroke-miterlimit="10" d="M381.755 143.174v-113.3c0-10.15 11.65-4.74 5.537 18.26" stroke-linecap="round" stroke-linejoin="round"/>
    <path fill="#FFE6E1" d="M402.365 34.435s3.41 2.54 3.41 4.57c-3.41 3.42-6.434 5.96-6.434 5.96l-17.8-1.09s-2.91 1.2-3.92.3c-1-.9 2.8-2.02 2.8-2.02l-.65-1.4s-.25-.77 1.4.63c.5.7.5.5 1.64.5s14.4-.3 14.4-.3 3.79-6.6 5.09-7.1"/>
  </g>
  <g id="small-people-03_1_">
    <path fill="#292E32" d="M172.9 508.857c0 .38-1.253 11.55-1.253 11.55s.632-.7 1.522-.5c.87.302.87.4.11 2-.8 1.702-1.7 3.6-2.5 3.9-.8.4-2.9.4-2.9-1.2s-.1-15.8-.1-15.8l5 .1.11-.05zm14.996 2.5s2.4 11.05 2.78 13.802c.38 2.77 0 3.77 1 3.77 1.03 0 9.9.25 10.03-.25.198-.6.298-1.6-4-2.4-1.7-.4-2.5.5-3.8-5.6-1.302-6-1.4-12.4-1.4-12.4l-4.5 3-.11.07z"/>
    <path fill="#FFE6E1" d="M174.06 426.938s3.93 3.9 1.637 7.52l-1.14 1.26-.63 2.262-.26-1s-3.04-2.14-2.53-5.65c.5-3.52-1.14-5.52 2.922-4.4"/>
    <path fill="#8ABFA1" d="M173.68 436.97s9.638.38 13.057-.622c3.42-.998 3.938-2.64 3.938-2.64s-7.867-4-8.118-4.3c-.26-.398 2.03-2.9 2.03-2.9s4 3.102 7.898 4.7c3.9 1.6 2.5 4 2 4.8s-5 6.1-12.7 7.702c0 0 1.8 2.898-1.298 8.398-3.1 5.57-1.5 4.4.2 7.7 1.698 3.3-12.95 3.4-16.1 1 .9-14.66-.098-17.92-.098-17.92s-11.96-8.3-12.8-10.06c-.9-1.76 14.09-7.27 15.42-6.4 1.4.88.15 2.64.15 2.64l-9.25 3.652 8.9 3.398 6.59 1.102.16-.25z"/>
    <path fill="#5BA579" d="M179.637 459.8s3.68 9.04 5.7 16.7c2.04 7.65 6.73 24.838 7.1 27.97.4 3.14 1.54 7.028-2.022 8.4-3.548 1.397-3.798-4.382-4.697-7.77-.88-3.4-14.07-30.002-14.07-30.002s1.652 14.32 1.902 17.33c.25 3 2.028 16.06-.5 17.44-2.552 1.38-5.97-.13-5.97-.13s-.26-25.6-2.03-30.5-5.33-11.53 0-19.68c10.647-1.5 14.6.248 14.6.248"/>
    <path fill="#FFE6E1" d="M183.597 429.2s-3.2.078-3.45-.68c-.26-.75.76-.83.76-.83s.5-1.4-2.4-2.6c-2.8-1.202-.498-2.002 2-1.102 2.5.9 4.3 2.7 4.3 2.7l-1 2.3-.21.21z"/>
    <path fill="#292E32" d="M164.67 426.8c.25-.62.38-3.75 3.55-4s5.958 1.12 6.848 2.878c.9 1.762-1.4 2.262-2.028 2.262-.63 0 .64 1.63.76 4.64.13 3 1.648 6.528-.88 9.04-2.54 2.498-6.352 3.38-9.4 1-3.04-2.38.5-5.9.5-9.03 0-3.2.65-6.8.65-6.8"/>
    <path fill="#398FC2" d="M197.735 241c-11.438 0-30.095 6.36-30.095 6.36V365.8l35.854 2.67v-121.1s.46-6.37-5.778-6.37"/>
    <path fill="none" stroke="#000" stroke-width="1.5" stroke-miterlimit="10" d="M187.596 270.78l-7.8 165.938m-.328-166.947h21.646" stroke-linecap="round" stroke-linejoin="round"/>
    <path fill="#0C5FC1" d="M197.735 241s-18.267.2-18.267 19.4c0 21.43 1.35 51.86-7.778 55.54h-35.188s10.148-11.7 9.47-30.44c-.67-18.74 0-22.748 0-27.1 0-4.35 3.4-15.73 14.548-15.73 11.18 0 37.215-1.67 37.215-1.67"/>
  </g>
</svg>
