<svg xmlns="http://www.w3.org/2000/svg" id="keyboard" viewBox="0 0 339 102">
  <path fill="#DDDFE4" d="M232.07 96.95L.13 42.08 105.23 0l233.6 46.46z"/>
  <path fill="#FFF" d="M120.95 7.24L96.85 17l-15.73-2.7 24.1-9.76zm22.33 4.7l-24.1 9.77-15.73-2.63 24.1-9.76zm22.32 4.72l-24.1 9.77-15.72-2.7 24.1-9.76zm22.34 4.72l-24.1 9.76-15.72-2.7 24.1-9.76zm22.33 4.72l-24.1 9.75-15.72-2.7 24.1-9.75zm22.33 4.7l-24.1 9.76-15.72-2.7 24.1-9.75zm22.34 4.72l-24.1 9.76-15.73-2.7 24.1-9.76zm22.33 4.7L253.17 50l-15.73-2.7 24.1-9.77zm22.33 4.72l-24.1 9.76-15.73-2.7 24.1-9.75zM321.93 50l-24.1 9.75-15.73-2.7 24.1-9.75zM87.6 20.5l-24.06 9.66-15.7-2.77 24.06-9.7zm22.27 4.84L85.82 35l-15.7-2.78 24.06-9.66zm22.3 4.84l-24.07 9.66-15.7-2.78 24.06-9.66zm22.27 4.84l-24.06 9.66-15.7-2.78 24.06-9.66zm22.28 4.84l-24.06 9.65-15.7-2.72 24.06-9.65zM199 44.7l-24.06 9.65-15.7-2.78 24.06-9.66zm22.28 4.83l-24.05 9.66-15.7-2.8 24.06-9.7zm22.28 4.84l-24.05 9.66-15.7-2.78 24.1-9.66zm22.3 4.83l-24.07 9.66-15.7-2.78 24-9.65zm22.27 5.18l-24.06 9.66-15.7-2.78 24.06-9.66zM58 33.85l-23.9 9.6-15.44-2.93 23.9-9.6zm21.92 5.08l-23.9 9.6-15.45-2.94 23.9-9.6zm21.9 5.07l-23.9 9.6-15.45-2.94 23.9-9.6zm21.9 5.07l-23.9 9.6-15.44-2.94 23.9-9.6zm21.9 5.07l-23.9 9.6-15.44-2.93 23.9-9.6zm21.92 5.06l-23.9 9.6-15.45-2.92 23.9-9.6zm21.9 5.08l-23.9 9.6-15.45-2.93 23.9-9.6zm21.9 5.08l-23.9 9.6L172 76.02l23.9-9.6zm21.9 5.07l-23.9 9.6-15.44-2.94 23.9-9.6zm21.9 5.4l-23.9 9.6-15.44-2.92 23.9-9.6z"/>
  <path fill="#2877F6" d="M339 51.5L232.07 102v-5.05L339 46.45zM0 47.1L232.07 102v-5.05L0 42.05z"/>
</svg>
