<svg xmlns="http://www.w3.org/2000/svg" id="monitor" viewBox="0 0 394 422">
  <path fill="#2877F6" d="M386.28 353.73L7.72 316.26c-4.26 0-7.72-3.46-7.72-7.73V39.87c0-4.26 3.46-7.72 7.72-7.72L386.28 0c4.27 0 7.72 3.46 7.72 7.72v338.3c0 4.26-3.45 7.7-7.72 7.7"/>
  <path fill="#C5DAFA" d="M374.6 313.58L10.7 284.13V45.2l363.9-27.44z"/>
  <path fill="#FFF" d="M346.5 290.15l-265.56-17.4V62.6L346.5 46.54z"/>
  <path fill="#FFF" d="M374.6 54.8V17.75L10.7 45.2v30.28z"/>
  <path fill="#2877F6" d="M217.4 422l-91.64-17.4v-77.64l91.64 9.37z"/>
  <path fill="#D4D8D9" d="M222.1 83L91.63 88.04v-9.36l130.45-6.03zm0 18.75l-130.46 5.02V97.4l130.45-6.02zm0 18.75l-130.46 5v-9.36l130.45-6.02zm-56.2 20.74l-74.26 3v-9.36l74.26-4z"/>
  <path fill="#2877F6" d="M129.1 166.34l-37.46.33v-16.4l37.46-1.33z"/>
  <path fill="#D4D8D9" d="M227.1 186.08l-135.46-1v-9.37H227.1zm0 18.74l-135.46-1v-9.37H227.1zm0 18.74l-135.46-1v-9.37H227.1zm-61.2 18.74l-74.26-2v-9.38h74.26z"/>
  <path fill="#2877F6" d="M129.1 266.4l-37.46-2.68v-16.4l37.46.67z"/>
  <path fill="#FFCD00" d="M244.16 320.27l70.9 10.7s5.36 46.2-6 81l-68.24-17.4s9.36-49.54 3.34-74.3"/>
  <path fill="#2877F6" d="M329.45 262.7l-85.3-3.88V124.84l85.3-2.86z"/>
  <path fill="#C5DAFA" d="M79.94 63.46L309.7 50.4V31.47L79.95 48.6z"/>
  <path fill="#F2704E" d="M23.4 59.93c0 2.22-1.33 4.02-3 4.02-1.66 0-3-1.8-3-4.02 0-2.22 1.34-4.02 3-4.02 1.67 0 3 1.8 3 4.1"/>
  <path fill="#F9CD50" d="M34.03 59.34c0 2.2-1.34 4-3 4-1.67 0-3.02-1.78-3.02-4 0-2.22 1.4-4.02 3.1-4.02s3 1.8 3 4.02"/>
  <path fill="#50BDD3" d="M45 58.92c0 2.22-1.36 4.02-3.02 4.02-1.67 0-3-1.8-3-4.02 0-2.22 1.33-4.02 3-4.02 1.66 0 3 1.8 3 4.02"/>
  <g fill="#C5DAFA">
    <path d="M262.52 89.06l-8.25-7.4c-.28-.25-.67-.32-1.02-.18l-10.44 4.16c-.3.14-.6.47-.6.86L240 98.06c-.07.4.06.8.33 1.04l8.25 7.4c.3.25.68.32 1.04.18l10.43-4.16c.37-.14.6-.47.7-.86l2.2-11.56c.06-.4-.06-.8-.34-1.04m-3.8 11.62l-9.3 3.7-7.3-6.6 2-10.3 9.3-3.7 7.4 6.6-1.9 10.3z"/>
    <path d="M255.2 93.67l-4.13 2.08-3.7-3.96 4.92-2.5 3 3.3 1.5-.8-3.7-4c-.3-.4-.9-.5-1.3-.2l-6.4 3.2c-.4.2-.5.6-.2 1L250 97c.17.17.4.3.64.3.24.06.5 0 .7-.1l4.87-2.42-1.1-1.23z"/>
    <path d="M247.97 92.42l3.1 3.33 4.9-2.47-3.7-3.96-4.12 2.08-1.12-1.22 4.87-2.46c.42-.2 1-.1 1.32.23l4.8 5.18c.32.33.24.77-.18.98l-6.4 3.3c-.2.1-.45.2-.7.1-.24 0-.47-.1-.62-.3l-3.66-3.9 1.5-.7z"/>
    <path d="M254.66 96.73l-4.18 2.1-3.68-3.95-1.1-1.22-.78.38c-.42.2-.5.65-.2 1l4.83 5.16c.14.16.37.28.6.32.26.04.5 0 .7-.1l4.93-2.47-1.12-1.22z"/>
    <path d="M247.36 95.47l3.14 3.37 4.9-2.47h-.02l1.5-.77.58.62c.3.33.23.77-.18.98l-6.4 3.23c-.2.1-.46.13-.7.1-.25-.05-.47-.17-.62-.33l-3.7-3.98 1.5-.75zm27.94-3.97c-.1-.5-.3-.9-.58-1.24-.28-.32-.64-.56-1.1-.72-.43-.15-.93-.22-1.48-.2-.54.03-1 .13-1.42.3-.4.16-.77.35-1.08.58-.3.22-.57.45-.78.7l-.2.25-.33.4.15-.88.17-.9h-1.75c-.6 0-1.2.5-1.3 1.2l-.46 2.2-1 5.1-.5 2.4c-.12.6.27 1.1.87 1.1h.9l1.1-.1 1.4-6.9c.2-.9.6-1.6 1.1-2.1.6-.5 1.2-.8 1.8-.8.5 0 .8 0 1.1.2.2.1.4.3.5.6.1.2.1.5.1.7v.3l-.3 1.5-.2 1.3-.4 2.1-.3 1.6c-.1.6.3 1.1.9 1.1h1.9l1.6-8.4c.1-.7.1-1.3 0-1.7m12.7-2.5h-1.9c-.6 0-1.2.5-1.3 1.2l-.2 1.3-.9 4.5c-.1.5-.3 1-.5 1.3-.2.3-.4.6-.7.8-.3.3-.5.4-.8.5-.3.1-.6.2-.8.2-.2 0-.4 0-.7-.1-.2 0-.4-.1-.6-.3-.1-.1-.2-.4-.3-.6V97c0-.5.2-1.2.3-1.78l.5-2.6.5-2.7.2-1.16-1.1.1-.8.07c-.6.06-1.2.6-1.3 1.2l-1.4 6.8c-.1.8-.2 1.45-.1 2s.3 1 .5 1.35c.3.4.7.6 1.1.8.4.2.9.2 1.5.2.8 0 1.5-.2 2.2-.6.6-.3.9-.6.9-.7.3-.24.5-.5.7-.8l.1-.1-.1.8-.1.83h1.1l.7-.1h.1c.6 0 1.1-.6 1.2-1.2L288 90l.2-1.13zm40.2.8l2.1-2.6h-2.5c-.6 0-1.4.4-1.8 1l-.2.3-.4.6-.6.8c-.4.5-.9.4-1.1-.2l-.8-2.3h-2.5c-.6 0-.8.5-.6 1l1.6 3.7c.3.6.2 1.4-.2 1.9l-3.7 4.5c-.4.5-.2.9.4.83h1.6l.95-.04 1.4-1.84.67-.9c.4-.6.9-.5 1.1.1l.5 1.4.05.1c.3.5.9.9 1.4.9h.6l.9-.1 1.1-.1-1.6-3.66-.6-1.3c-.2-.6-.1-1.4.3-1.9l2.1-2.6zM316.9 96l1.05-5.4c.2-.8.1-1.4-.1-1.8-.2-.5-.5-.8-.92-1-.4-.3-.84-.4-1.34-.5-.5-.1-.9-.1-1.3-.1-.6 0-1.2.07-1.8.2-.6.1-1.1.3-1.7.6-.5.35-1 .8-1.4 1.36-.4.6-.6 1.2-.6 1.2-.2.6.1 1.1.7 1.1h1.8c0-.2.1-.4.2-.6.1-.2.2-.4.4-.54.1-.15.3-.3.6-.4.2-.1.6-.2.9-.2h.6c.2 0 .4.06.6.15.2.03.3.2.4.4.1.13.1.4 0 .7-.1.35-.3.6-.5.7l-.4.2-1.4.3-1.7.33c-.5.1-1 .28-1.4.48-.5.2-.9.5-1.2.8-.4.36-.7.75-.9 1.2-.3.46-.5.98-.6 1.57-.1.62-.1 1.15 0 1.6.1.42.3.8.6 1.05s.6.42 1 .53c.4.1.8.2 1.2.16.5 0 .9-.1 1.3-.3.4-.1.75-.3 1.1-.5.3-.2.6-.4.83-.6l.7-.6c-.1.2-.1.3-.1.5v.7c0 .1.5.2 1.1.2l1-.1c.6-.1 1.1-.3 1.2-.6h-.2c-.1-.1-.1-.2-.18-.3-.1-.1-.1-.3-.1-.6l.3-1.8m-4.9 1.6c-.34.1-.7.2-1 .2-.1 0-.3 0-.44-.1s-.3-.1-.4-.2c-.1-.1-.2-.3-.2-.5v-.7c.1-.4.2-.6.3-.9.2-.2.3-.4.6-.5.3-.2.5-.3.8-.4.2-.1.5-.2.8-.2.6-.2 1.1-.3 1.4-.4l.3-.2c.3-.2.3.2.2.9l-.1.4c-.1.3-.2.7-.4 1-.2.3-.43.5-.7.7-.3.2-.65.4-1 .5m-4.5-9.6h-.96c-.5 0-.8-.5-.7-1.1l.1-.5.1-.5.3-1.1h-1.9l-1.1.1-.3 1.7-.3 1.5-3.5.1c.3.3.53.6.7 1.1.14.3.23.7.3 1.1l2.04-.1-.3 1.8-1.1 5.5c-.1.4-.1.7-.1 1 0 .3.1.5.2.8.1.2.4.4.8.5l.4.1h1.4l.7-.1h.7l.2-1.14.2-1.3-.37.1h-.3c-.3.1-.52 0-.7 0-.15 0-.26-.1-.33-.1s-.1-.13-.1-.3l.25-1.3.33-1.8.1-.4.5-2.2c.1-.6.6-1.2 1.1-1.2l.9-.04.6-.03c.1-.2.3-.7.7-1.3.3-.4.6-.7.9-1h-1.8zm-14.9 3.4c.1-.1.2-.3.3-.4.14-.1.34-.2.6-.3.25-.1.6-.2 1-.2s.7 0 .93.1c.2 0 .4.2.5.3.1.1.16.3.2.5v.2c0 .2.5.3 1.1.3l1.8-.1c.12-.9.1-1.5-.16-2-.2-.5-.5-.9-.9-1.2-.4-.3-.9-.5-1.4-.6-.5-.1-1.1-.1-1.6-.1-.9 0-1.6.2-2.3.44-.6.3-1.1.6-1.6 1.03-.4.4-.7.83-1 1.3-.2.5-.4.94-.5 1.4-.1.74-.1 1.33.2 1.76.3.47.6.8 1.1 1 .5.3 1 .45 1.6.55l1.6.3c.5.1.9.2 1.2.4.3.1.4.4.4.7 0 .1-.1.2-.2.4l-.35.4c-.2.1-.4.2-.65.3-.3.1-.6.2-1 .2-.5 0-.9 0-1.2-.1-.3-.1-.5-.2-.7-.4-.2-.15-.3-.33-.3-.54l-.04-.2c0-.2-.5-.4-1.1-.4l-2 .1c-.14.8-.1 1.47.1 2 .26.5.6.9 1 1.2.48.3 1 .5 1.6.6.6.1 1.26.17 1.9.15.4-.05.9-.1 1.5-.26s1.18-.4 1.75-.7c.6-.3 1.1-.76 1.6-1.3.4-.56.7-1.28.9-2.16.14-.8.1-1.3-.17-1.8s-.6-.8-1.1-1c-.5-.3-1-.5-1.6-.6l-1.6-.3c-.5-.1-.9-.2-1.2-.3-.35-.13-.5-.4-.4-.7 0-.1.1-.3.1-.4"/>
  </g>
</svg>
