<svg xmlns="http://www.w3.org/2000/svg" id="people-03" viewBox="0 0 180 276">
  <path fill="#FCE4E0" d="M163.37 23.16s-1.42-4.8-1.02-7.03c.4-2.2 1.3-9.8 5.14-10.94 3.8-1.2 2.5 8.6 1.7 13.1-.8 4.4-.9 7.5-.9 7.5l-5-2.7zm-150.82 79.1s-3.5 1-4.5 2-2.02 3.03-3.02 2.03c-1-1.1 2-3.1 2-3.1s-4 1-6 1-2-5 9-7c11.04-2 2.52 5 2.52 5m152.38 143.2l7.1 9.7 4.42-4.48-6.2-12.44z"/>
  <path fill="#D96441" d="M167.15 249.2s1.33 7.78-1.33 10.44c-2.66 2.67-7.1 5.33-6.2 8.88.88 3.56 12.4 3.56 15.06-2.66 2.66-6.22 5.32-14.22 5.32-14.22s-3.54-6.2-4.43-6.2c-.9 0 .9 7.1 0 7.1s-3.55-5.78-8.42-3.34"/>
  <path fill="#FCE4E0" d="M71.84 252.53s.88 5.33-.9 8.9c-1.76 3.54.9 7.1 4.44 7.1s4.44-.9 5.32-6.22c.9-5.3 0-11.5 0-11.5l-8.86 1.8z"/>
  <path fill="#D96441" d="M80.7 264.08s0 3.56-4.43 2.67c-4.43-.9-3.55-4-4.43-6-.9-2-4.44 3.33-4.44 5.1 0 1.8-8.86 1.8-11.52 2.67-2.66.9-4.44 0-4.44 4.45 0 4.44 6.2 2.66 12.42 2.66H81.6s.88-10.66-.9-11.55"/>
  <path fill="#2F2E2A" d="M95.77 28.66s9.76-1.78 9.76-7.1C101.1 18 86 22.82 86 29.06c0 6.2 2.68 12.9 7.12 15.6 7.97-3.58 5.3-14.24 2.65-16"/>
  <path fill="#DFA371" d="M100.2 50.87s-14.18 3.55-16.84 5.33c-2.66 1.77-34.58 23.1-37.24 25.76-2.65 2.67-33.7 10.66-34.57 14.22 0 5.32 1.77 7.1 1.77 7.1s36.35-8 44.33-10.66c7.98-2.66 23.05-8.88 23.05-8.88s7.1 22.2 7.98 24.87c.9 2.7.9 10.3.9 10.3s15.95 8.9 40.77-1.7C133.9 89.6 133 77.5 133 77.5s10.65-5.33 20.4-5.33c9.75 0 13.3-4.46 15.07-18.68 1.78-14.2 1.78-31.1 1.78-31.1l-8.87-.9s-5.32 16-7.1 22.2c-1.77 6.2-2.65 9.8-2.65 9.8s3.54 3.5-17.73 0c-21.28-3.6-26.6-4.5-33.7-2.7"/>
  <path fill="#B77344" d="M92.52 66.86c-.3 1.77 4.14 11.55 4.14 11.55l5.32-10.6-5.02-3.8-4.44 3z"/>
  <path fill="#FCE4E0" d="M105.53 22.44s11.52 20.43.88 24.87c-.4 3.2.9 3.6.9 3.6s-2 12-10.6 15.3c-3.8-5-3.5-11.6-3.5-14.3V42s-4.4 0-3.5-6.23c.9-6.22 5.3-1.77 6.2 1.78 0-.9-2.6-10.66-2.6-10.66s10.63 0 12.4-4.5"/>
  <path fill="#80B0BC" d="M129.47 112.17s7.1 8.88 7.98 76.4c2.65 4.44 25.7 25.76 34.57 47.97-2.66 7.1-7.1 11.55-7.1 11.55l-49.62-48S95.8 137 97.57 119.2c12.4 1.78 30.14-3.55 31.92-7.1"/>
  <path fill="#80B0BC" d="M97.55 119.27l-8.87-5.33s-19.5 56.86-20.4 66.63c-.88 9.77-2.65 55.97-.88 65.74 1.78 9.8 1.78 8.9 7.1 8.9h5.32s10.63-40.8 9.75-63c8.86-16 17.73-29.3 18.62-36.4 0-7.1-10.7-36.4-10.7-36.4"/>
  <path fill="#FFF" d="M93.18 52.37c-1.33 1.67-5.4 6.5-3.6 17.15 3.54-3.55 7.08-3.55 7.08-3.55s-4.23-8-3.48-13.6m13.52-2.4s-2.06 12.45-10.04 16c2.66 1.78 6.2 4.44 6.2 4.44s8-11.5 7.1-20.4c-1.77-.9-3.25 0-3.25 0"/>
  <path fill="#2F2E2A" d="M169.55 10.28l-2.24 4.78c-.7 1.54-2.5 2.2-4 1.47l-12.5-5.9c-1.5-.73-2.2-2.56-1.4-4.1l2.26-4.78c.73-1.54 2.57-2.2 4.1-1.47l12.5 5.9c1.56.73 2.2 2.56 1.5 4.1"/>
</svg>
