<svg xmlns="http://www.w3.org/2000/svg" id="people-04" viewBox="0 0 244 233">
  <path fill="#D4D8D7" d="M100.65 112.53s-25.1 14.1-25.1 17.14c0 3.02 11.04 77.64 12.04 84.7 7 1 9 0 9 0l3-72.6 42.4-29.24s-13.3-23.2-41.5 0"/>
  <path fill="#D4D8D7" d="M158.25 125.84s-11.67 11.72-27.73 12.9c1.06 5.02 11.74 67.43 12.83 75.48-4 2.06-10.03 1.12-10.03 1.12s-33.94-77.3-32.96-80.33c.97-3 28.87-24.5 28.87-24.5s18.55-2.2 29.02 15.4"/>
  <path fill="#2F2E2A" d="M133.33 10.82s-8.1 2.48-17.78.2c-1.62-5.27 9.3-13.06 17.02-10.53 7.73 2.5 7 4.6 7 4.6s3.27 2.5 3.06 9c-.2 6.4-2.44 10.4-7.58 15.9-5.15 5.4-1.72-19.3-1.72-19.3"/>
  <path fill="#FCE4E0" d="M117.02 10.83s-3.16 14.78.6 21.28c3.75 6.5 9.96 4.8 18.02-2.2-.23-1.9-1.45-3.8.8-5.5 2.27-1.7 3.92-4.4 2.28-5.7-1.64-1.3-4.08 3-4.08 3s1.07-11.5-1-12.3c-1.9.7-11.2 1.4-16.62 1.6"/>
  <path fill="#FCE4E0" d="M125.9 35.07s2.65 5.63.08 8.92c4.92 3.8 11.36 1.8 14.9-5.6-2.5-3.1-5.6-11.5-5.6-11.5l-9.4 8.1z"/>
  <path fill="#F35925" d="M124.75 40.94s-.63 6.56 6.4 4.54c7.03-2.02 7.65-9.58 12.67-8.57s22.1 3.1 24.1 20.2 6.03 33.3 3.02 42.4c-3.02 8.1-8.04 7.1-8.04 7.1s0 15.1-3 19.2-1-10.1-32.14-13.1c-2-1-5.02-7.05-5.02-7.05s-4.02 7.06-8.04 7.06h-14.05s5.02-9.1 5.02-10.1-3-1-4.02-8.05c-1-7.07-1-28.24 3-37.3 4.03-9.1 12.06-15.14 20.1-16.15"/>
  <path fill="#FFF" d="M118.72 80.26c1 2.02 4.02-7.05 7.03-14.1 2.35-5.53 9.6-20.9 17.94-29.27-4.9-.9-5 5-12 7s-7-3.1-7-3.1-10.1 7.1-6 39.3"/>
  <path fill="#DD4A22" d="M151.86 69.17l4 18.15s-12.04 3.03-17.06 4.03c5.02-4.03 14.06-5.04 13.06-22.18"/>
  <path fill="#CEC6C3" d="M108.68 97.4h15.06v3.02h-15.06z"/>
  <path fill="#CEC6C3" d="M43.24 100.43h68.25c-1.2-5.67-7-33.9-8.1-39.58-1.3-6.3-5.8-5.8-5.8-5.8H40.4c-6.02 0-4 5.05-4 5.05l6.84 40.33z"/>
  <path fill="#FCE4E0" d="M119.98 97.15l-.25-2.77s-9.54 1-8.3 3.02c1.27 2.02 8.55-.25 8.55-.25"/>
  <path fill="#FFF" d="M74.54 78.25c0 2.23-1.8 4.03-4.02 4.03s-4-1.8-4-4.03c0-2.23 1.8-4.03 4-4.03s4.02 1.8 4.02 4.03"/>
  <path fill="#FCE4E0" d="M134.8 214.36l4 9.08 4.02-1-1-9.1z"/>
  <path fill="#2E2D29" d="M145.83 225.45s-2 3.03-11.04 6.05-11.1 1-6.1-2c5-3.04 5-8.08 7-9.1 10 3.04 7-2 7-2h1s3 5.04 2 7.05"/>
  <path fill="#FCE4E0" d="M88.77 212.5l2.2 9.68 4.14-.2.8-9.1z"/>
  <path fill="#2E2D29" d="M97.48 225.52s-2.55 2.58-12 3.8-11.03-1.15-5.52-3.15c5.5-2 6.47-6.94 8.64-7.54 9.27 4.9 7.28-.62 7.28-.62l1 .2s1.97 5.6.6 7.4"/>
  <path fill="#2F2E2A" d="M119.22 3.8s-8.03 4.37-11.04 3.37c-2 2 9.04 6.38 20.08 2.68"/>
  <path fill="#D4D8D9" d="M8.52 99.92h226.93v7.06H8.52zm230.45 126.04L219.9 106.98h5L244 225.96zm-34.15 0l-19.07-118.98h5.02l19.08 118.98zM5 225.96l19.1-118.98h-5.02L0 225.96zm34.15 0l19.07-118.98H53.2L34.13 225.96z"/>
</svg>
