<svg xmlns="http://www.w3.org/2000/svg" id="Layer_1" viewBox="0 0 188 275">
  <path fill="#8ABFA1" d="M122.88 146.5l-11.03 70.1h65.2L166 146.5z"/>
  <path fill="#FFF" d="M122.88 84.9c0 1.65-1.35 3-3 3s-3.02-1.35-3.02-3c0-1.67 1.35-3 3-3s3.02 1.33 3.02 3m0 61.6l-19.56 128.2"/>
  <path fill="none" stroke="#FFF" stroke-miterlimit="10" d="M122.88 146.5l-19.56 128.2"/>
  <path fill="#FFF" d="M131.96 148.47L118.9 275"/>
  <path fill="none" stroke="#FFF" stroke-miterlimit="10" d="M131.96 148.47L118.9 275"/>
  <path fill="#FFF" d="M166 146.5l19.57 128.2"/>
  <path fill="none" stroke="#FFF" stroke-miterlimit="10" d="M166 146.5l19.57 128.2"/>
  <path fill="#FFF" d="M156.94 148.47L170 275"/>
  <path fill="none" stroke="#FFF" stroke-miterlimit="10" d="M156.94 148.47L170 275"/>
  <path fill="#466790" d="M176.04 143c0 3.3-13.25 6-29.6 6s-29.58-2.7-29.58-6c0-3.33 13.25-6.02 29.6-6.02s29.58 2.7 29.58 6"/>
  <path fill="#2F2E2A" d="M156.94 11.65s-8.77 2.67-19.23.2C136 6.2 147.8-2.2 156.2.53c8.36 2.72 7.56 4.96 7.56 4.96s3.55 2.7 3.33 9.7c-.2 7-2.7 11.3-8.2 17.1-5.6 5.9-1.9-20.7-1.9-20.7"/>
  <path fill="#FCE4E0" d="M139.3 11.66s-3.42 15.9.64 22.9c4.06 6.98 10.78 5.1 19.5-2.38-.25-2.1-1.56-4.08.88-5.98 2.44-1.9 4.23-4.8 2.46-6.18-1.78-1.38-4.43 3.2-4.43 3.2s1.16-12.42-1.07-13.2c-2.05.77-12.13 1.46-18 1.64"/>
  <path fill="#FCE4E0" d="M148.9 37.74s1.84 6.55-.94 10.1c5.32 4.15 17.2 3.93 21.06-4.02-8.03-4-9.96-14.8-9.96-14.8l-10.17 8.72zm-71.66 192.9l3 19.03 11.04-1-1-21.04z"/>
  <path fill="#D96441" d="M80.25 249.67S63.2 262.7 63.2 264.7s32.1-7.02 31.1-9.02-3.02-9.02-3.02-9.02l-11.03 3z"/>
  <path fill="#FCE4E0" d="M29.67 184.82l-8.62 15.63 8.65 5.52L40.92 190z"/>
  <path fill="#D96441" d="M21.05 200.45S1.17 200.3.03 201.78c-1.14 1.47 27.48 13.07 27.88 11.03.5-2 3-8.3 3-8.3l-9.8-4z"/>
  <path fill="#4B5360" d="M121.38 140.5s-26.08 18-36.1 19c9 34.05 7 69.1 7 69.1l-17.04 4.02L60.2 144.5s47.13-6.02 61.18-4"/>
  <path fill="#FFCD00" d="M128.4 112.44l1-19.03-17.05-1v-8l12.03-1s6.02-38 21.07-38c2.24 0 8.02 8 23.07-1 8.02 1 19.06 3 19.06 19.1s3 40.1-7.02 41.1l-2 16s-20.07 5-50.16-8"/>
  <path fill="#FBD870" d="M134.4 67.36l-3 14.03-3 2h5z"/>
  <path fill="#FCE4E0" d="M108.34 84.4l-12.04-1s-4-1-6.02 0c-2 1-5 3 0 4 5.02 1 12.04 1 12.04 1s6.35 4.34 13.2 4.17c1.68-7.34 1.68-8 1.68-8l-8.86-.18z"/>
  <path fill="#FBD870" d="M170.52 71.37c0 1-1 16.03-1 16.03l-16.05 1 13.04-5 4.1-12.03z"/>
  <path fill="#2F2E2A" d="M108.34 71.37l23.57-.5-.5 34.56h-22zm-24.08 0l2 3 7.03 25.05-2.1 1-7-25.04z"/>
  <path fill="#555C6C" d="M176.7 120.62s-1.16 23.87-28.24 23.87-87.27 1-87.27 1l-21.1 47-15.1-7s13-55.1 33.1-61.1c20-6.1 52.1-5.1 62.1-7.1s15.02-9 15.02-9l41.3 12.2z"/>
  <path fill="none" stroke="#000" stroke-miterlimit="10" d="M145.56 19.56l9.77-.14s1.18 4.1-1.82 4.53c-3 .4-9 1.25-7.9-4.4z"/>
  <path fill="none" stroke="#000" stroke-miterlimit="10" d="M145.02 19.56l-7.9-.5s-.8 4.05 1.63 4.57 7.3 1.57 6.27-4.07z"/>
  <path fill="none" stroke="#000" stroke-miterlimit="10" d="M154.27 19.44l8.86-.48" stroke-linecap="round" stroke-linejoin="round"/>
  <path fill="#FCE4E0" d="M153.47 88.4s3 6 2 12.02c-17.04-4-21.05-6-21.05-6s-8.7 0-10.87-1.5c-2.17-1.52 1.84-6.53 5.85-6.53 4 0 6.02 1 6.02 1l18.05 1z"/>
</svg>
