<svg xmlns="http://www.w3.org/2000/svg" id="people" viewBox="0 0 168 194">
  <path fill="#2F2E2A" d="M9.56 188.4s-.88 1.46-.7 2.16c.2.7.4.75 1.14 1.7.76.95.32 1.9-.56 1.7-.88-.2-4.1-3.78-4.84-4.98-.76-1.2 1.2-3.8 2.32-4.42 1.5 1.64 2.64 3.85 2.64 3.85m23.57-12.5s.56 1.2 1.26 1.4c.7.2 1.7.1 2.9-.2 1.2-.2 1.8.6 1.3 1.3-.6.7-5.2 2-6.6 2.2-1.4.2-2.9-2.7-3-4 2.1-.6 4-.5 4-.5m-19.3-28.8s.9.4 1.3-.7 1.7-1 2.2-2.2c.5-1.2 1.4-1.2 1.9-1.2.4 0 .9-1.9-.9-2.1-1.8-.2-5-.2-5.5 1.2s-1.5 7.4.8 5.2"/>
  <path fill="#FEE7E1" d="M31.3 160.28c.25-.38 3.87-1.63 5.04-1.15 1.18.47 2.38 2.57.9 2.88-1.5.3-1.8-1.2-3.46-.5-1.66.8-3.73.8-2.47-1.2m-28.9 6.4c.4.2 2 3.8 1.6 5-.4 1.2-2.3 2.6-2.8 1.1-.4-1.4 1.1-1.9.2-3.5s-1-3.6 1-2.5"/>
  <path fill="#4B5360" d="M16.86 169.84s.94 8.45.44 10.4c-.5 1.97-7.74 8.6-7.74 8.6l-3.64-3.86 6.16-7.5s-3.2-5.18-2.96-8.4c2.84-2.27 7.74.76 7.74.76"/>
  <path fill="#FEE5E0" d="M18.8 142.52c.23.12 1.27 4.03 0 5.68-1.25 1.64-1.87.5-1.87.5l.56 2.27s-3.4-1.2-3.6-1.96c-.3-.7-.1-1.9-.1-1.9s-.9-1.9.2-1.9c1 0 2.7-3.7 4.7-2.5"/>
  <path fill="#80B0BC" d="M17.68 150.72s1.64 2.15 3.02 6c1.38 3.84 1.32 2.77 1.32 2.77l10.88.3-.06 2.2s-7.23 1.2-9.88.7c-2.64-.5-4.6-1.9-4.6-1.9l-.18 4.6-9.94.1s.13-5.1 1.07-7.3c1-2.3 0-3.4 0-3.4s-5.2-.9-5.8 3.3c-.6 4.2 0 9.6 0 9.6l-2.7-.1S.1 158.3.2 157c.1-1.3 2.4-6.6 7.1-7.1s6.9-1.12 6.9-1.12l3.8 1.7z"/>
  <path fill="#FFF" d="M17.55 150.72l.07 2.4-.5 10.35-.5 1.32-1.08-1.8.5-13z"/>
  <path fill="#555C6C" d="M8.24 165.74s-1.57 7.63 8.56 6.3l7.86-1.32 4.15 7.13 5.5-1.32s-5.2-8.96-7-10.04c-1.7-1.1-9-.9-9-.9s-8.8-1.5-9.9.1"/>
  <path fill="none" stroke="#000" stroke-width="1.5" stroke-miterlimit="10" d="M136.17 78.36s-.46 17.42-48.44 65.5c-7.04-.38-10.98 1.14-10.98 1.14s-21.92 23.4-68.53 20.27" stroke-linecap="round" stroke-linejoin="round"/>
  <path fill="#2E2F2A" d="M149.15 41.83l2.4 3.24-4.88 3.36s-2.02-.33 1.07-3.26c.6-.58-.4-1.42-.4-1.42l1.8-1.92zm14.82-1.07l4.03-.06-.13 5.93s-1.44 1.45-2-2.78c-.14-.82-1.4-.5-1.4-.5l-.5-2.6z"/>
  <path fill="#FEE7E1" d="M125.03 30.88c-.4-.22-4.17.37-4.98 1.35-.82.97-.9 3.4.56 2.96 1.5-.5 1.1-1.9 2.9-2.1s3.7-1.1 1.6-2.3"/>
  <path fill="#F86329" d="M140.82 9.2s2.52-.07 7.3 3.63c4.78 3.7 6.8 4.7 9.14 7.82 2.35 3.1 4.78 9.1.34 15.65-2.94 4.2-2.77 5.72-2.77 5.72s7.72-2.36 9.48-2.02c.8 3.2.5 5.72.5 5.72s-12.4 1.18-12.9 1.18-3.8.34-2.5-5.22c1.4-5.55.4-10.1.4-10.1s-4.2 1.7-3.8 2.7c.4 1 4.5 7.5 4.5 7.5l-3.2 3.18s-9.2-8-10.3-10.26c-1.1-2.27-.5-5.05 4.4-6.23 4.9-1.18 7.5-2.2 7.5-2.2s-.7-2-2.1-2.26c-1.3-.2-2.8-1.2-3.5-3.1-.7 3.6-1.8 5.4-3.3 5.9s-13.6 5.8-14.4 5.8c-.6-1.2-.6-1.7-.6-1.7s14-6.4 14.2-7c.2-.6 1.2-13.5 2-14.6"/>
  <path d="M148.75 26.25s7.4-2.02 8.73-5.3c-.46-.78-1.07-1.35-1.07-1.35s-.6 3.4-8.2 5.6c.3.58.6 1.05.6 1.05"/>
  <path fill="#2F2E2A" d="M129.1 7.04s-2.53-.36-.94-3.55c1.6-3.2 6.2-5 9.65-2 3.5 3 5.9 1.7 8.3 2.6C148.4 5 153 7 150 14s-9.34-4.7-9.34-4.7-7.85 1.6-11.54-2.3"/>
  <path fill="#FEE7E1" d="M129.08 7.02s2.94 6.3 6.63 5.05c1.8-.76 2-1.43 2-1.43s2 2.15 2.3 2.9c.4.76.8-4.08.8-4.08l-1.6-2.02s-1.4 1.43-1.8.67-.3-2.2-1.1-2.3c-.8-.1-1.2.4-1 1.4-.9.4-1.7 3.2-5.9 0"/>
  <path fill="#4B5360" d="M76.38 166.7h6.57v-13.5l-6.67-8.96s-1.76 8.58-.75 15.52c.58 4 .78 5.97.85 6.95"/>
  <path fill="#555C6C" d="M92.14 162.16v4.55H100c-.12-1.7-.6-5.9-2.33-10.2-2.26-5.7-10.52-12.9-10.52-12.9s-2.3-3.6-10.86.7c-.1 11.6 15.8 16.3 15.8 17.9"/>
  <path fill="#FEE5E0" d="M106.56 112.9s-.33-1.72.5-2.52c.85-.8 2.06-2.65 2.82-2.82.75-.17 3.14 1.4.3 4.2s-2.6 2.4-3.62 1.14m3.82 4.84s2-1.98 2.35-2.73c.33-.7 1.1-.1.92.3-.17.4.92.8 1.6-.5.67-1.3 1.88-.9 1.42.8s-3.4 4.4-4.4 4.4-1.9-2-1.9-2"/>
  <path fill="#DFA371" d="M84.97 123.92s10.7 1.77 13.08 1.27c2.4-.6 12.58-7.5 12.58-7.5l1.9 2s-12.6 10.8-13.98 11c-1.38.1-7.54-.2-9.72.8-1.6 5.1-1.85 6.1-1.1 12.3l-11.44.4s.6-14.3 4.1-19.2c2.9-1.2 4.5-1.2 4.5-1.2"/>
  <path fill="#D59663" d="M84.97 123.92s13.83-3.66 16.73-6.94c2.9-3.28 5.03-4.8 5.03-4.8l1.38 1.52c.1 0-10.1 10.98-12.8 12.24-7.5.5-10.3-2.02-10.3-2.02"/>
  <path fill="#2F2E2A" d="M81.2 117.74s1-.76-.76-1.26-4.16.88-5.16 2.27c-1 1.4-1.13 6.06 5.16 6.3 1.13-4.28.75-7.3.75-7.3"/>
  <path fill="#FEE5E0" d="M81.2 117.74s2.63 1.9 2.38 4.04-.12 1.5-.12 1.5l1.5.64s-.24 1.27-1 1.27l-3.52-.2-1.4-1.2s-.74-.4-1-.9c-.24-.5-.24-.9.76-.8s-2-3.2 2.4-4.6"/>
</svg>
