<?xml version="1.0" encoding="iso-8859-1"?>
<!-- Generator: Adobe Illustrator 16.0.0, SVG Export Plug-In . SVG Version: 6.00 Build 0)  -->
<!DOCTYPE svg PUBLIC "-//W3C//DTD SVG 1.1//EN" "http://www.w3.org/Graphics/SVG/1.1/DTD/svg11.dtd">
<svg version="1.1" id="small-people-03" xmlns="http://www.w3.org/2000/svg" xmlns:xlink="http://www.w3.org/1999/xlink" x="0px"
	 y="0px" width="160px" height="160px" viewBox="0 0 160 160" style="enable-background:new 0 0 160 160;" xml:space="preserve">
<path style="fill:#292E32;" d="M81.611,148.811c0,0.212-0.695,6.417-0.695,6.417s0.351-0.389,0.846-0.277
	c0.488,0.167,0.488,0.222,0.066,1.11c-0.445,0.945-0.945,2-1.389,2.167c-0.444,0.223-1.611,0.223-1.611-0.667
	c0-0.889-0.055-8.777-0.055-8.777l2.777,0.056L81.611,148.811z M89.944,150.2c0,0,1.333,6.139,1.544,7.667
	c0.212,1.539,0,2.1,0.557,2.1c0.572,0,5.5,0.139,5.572-0.139c0.11-0.334,0.166-0.889-2.223-1.334
	c-0.944-0.222-1.389,0.278-2.111-3.111c-0.723-3.333-0.777-6.889-0.777-6.889l-2.5,1.667L89.944,150.2z"/>
<path style="fill:#FFE6E1;" d="M82.256,103.3c0,0,2.184,2.167,0.91,4.178l-0.633,0.7l-0.35,1.256l-0.145-0.556
	c0,0-1.689-1.188-1.406-3.14c0.278-1.955-0.633-3.066,1.623-2.443"/>
<path style="fill:#8ABFA1;" d="M82.045,108.872c0,0,5.355,0.212,7.255-0.345c1.9-0.555,2.188-1.467,2.188-1.467
	s-4.371-2.222-4.511-2.389c-0.144-0.222,1.128-1.611,1.128-1.611s2.223,1.723,4.389,2.611c2.167,0.889,1.389,2.223,1.111,2.667
	s-2.777,3.389-7.056,4.278c0,0,1,1.61-0.722,4.666c-1.723,3.095-0.834,2.444,0.111,4.277c0.943,1.834-7.195,1.89-8.945,0.557
	c0.5-8.145-0.056-9.956-0.056-9.956s-6.645-4.611-7.111-5.589c-0.5-0.979,7.833-4.039,8.572-3.556
	c0.778,0.489,0.083,1.467,0.083,1.467l-5.139,2.028l4.945,1.889l3.666,0.611L82.045,108.872z"/>
<path style="fill:#5BA579;" d="M85.355,121.556c0,0,2.045,5.022,3.167,9.278c1.134,4.25,3.739,13.799,3.944,15.538
	c0.223,1.745,0.855,3.905-1.123,4.667c-1.972,0.777-2.11-2.434-2.61-4.316c-0.489-1.889-7.817-16.667-7.817-16.667
	s0.918,7.956,1.057,9.628c0.139,1.666,1.127,8.922-0.278,9.688c-1.417,0.767-3.316-0.072-3.316-0.072s-0.145-14.222-1.128-16.944
	s-2.961-6.405,0-10.934c5.916-0.833,8.111,0.139,8.111,0.139"/>
<path style="fill:#FFE6E1;" d="M87.556,104.556c0,0-1.778,0.044-1.917-0.378c-0.145-0.416,0.422-0.461,0.422-0.461
	s0.278-0.777-1.333-1.444c-1.556-0.667-0.277-1.111,1.111-0.611s2.389,1.5,2.389,1.5l-0.556,1.278L87.556,104.556z"/>
<path style="fill:#292E32;" d="M77.039,103.223c0.139-0.345,0.211-2.084,1.972-2.223s3.311,0.622,3.805,1.6
	c0.5,0.979-0.777,1.256-1.127,1.256c-0.351,0,0.355,0.906,0.422,2.578c0.072,1.666,0.916,3.627-0.489,5.021
	c-1.411,1.389-3.528,1.879-5.222,0.557c-1.689-1.322,0.278-3.278,0.278-5.018c0-1.777,0.361-3.777,0.361-3.777"/>
<path style="fill:#398FC2;" d="M95.411,0c-6.355,0-16.722,3.533-16.722,3.533v65.8l19.922,1.483V3.539c0,0,0.256-3.539-3.211-3.539"
	/>
<path style="fill:none;stroke:#000000;stroke-width:1.5;stroke-linecap:round;stroke-linejoin:round;stroke-miterlimit:10;" d="
	M89.777,16.544l-4.333,92.189 M85.262,15.983h12.027"/>
<path style="fill:#0C5FC1;" d="M95.411,0c0,0-10.149,0.111-10.149,10.778c0,11.906,0.75,28.811-4.322,30.855H61.389
	c0,0,5.639-6.5,5.261-16.911c-0.372-10.411,0-12.639,0-15.056c0-2.417,1.889-8.739,8.083-8.739C80.944,0.928,95.411,0,95.411,0"/>
</svg>
