<svg xmlns="http://www.w3.org/2000/svg" id="small-people-02" viewBox="0 0 34 127">
  <path fill="#FFE5E1" d="M27.26 74.96l-.12 2.66 1.77-.13-.2-3.2z"/>
  <path fill="#DA6542" d="M28.9 77.5l-2.65.25.13 1s-3.93.52-3.93 1.28c3.8.25 6.58-.38 6.58-.38l-.12-2.16z"/>
  <path fill="#FFE5E1" d="M12.96 76.22l-.13 2.67 1.77-.2-.25-3.2z"/>
  <path fill="#DA6542" d="M14.6 78.76l-2.65.26.12 1s-3.92.52-3.92 1.28c3.8.25 6.58-.38 6.58-.38l-.13-2.16z"/>
  <path fill="#461A19" d="M16.95 16.93s-1.6-2.92.18-5.96 1.9-3.93 1.97-6.2c.06-2.3 3.23-5.6 6.07-4.58s5.2 1 4.94 6.9c-.2 5.9 3.5 4.9 3.1 7.8-.4 2.8 1.7 4.2.5 7.7-1.1 3.5-2.8 5.4-5.5 4.4S18 19 17.1 16.8"/>
  <path fill="#FFE6E1" d="M20.93 4.48s-2.36 5.83 1.2 6.17c.24.93.24 1.52.24 1.52s-1.25.65-1.25 1.5 5.98.36 5.98.36-.34-1.77-1.94-2.36c-.68-1.53-.68-2.03-.68-2.03l1.18-.5s1.43-.94.93-1.8c-.6-.83-1.6.18-1.6.18s-3.9-1.66-4.2-3.04"/>
  <path fill="#FFCD00" d="M21.06 13.06s-5.44 1.78-5.44 8.5h1.9l-.26 9.13s-1.26 1.1 2.28 1.2c3.55.1 9 0 9-.4l-.14-8.8s4.18-1.9 2.9-5.5c-1.25-3.57-2.4-4.07-4.42-4.07-2.65 0-5.82-.26-5.82-.26"/>
  <path fill="#4B5360" d="M28.53 31.58s2.15 2.4-1.14 8.37c-3.3 5.96-4.4 9-4.4 9s3.1 8.75 4 14.45c.9 5.73 2.1 11.2 2.1 11.2l-2.2 1s-9.6-23.08-9.7-23.7c-.1-.65-.9-3.57-.4-5.34-2.1 3.8-2.63 6.47-2.63 6.47s1.8 3.67 1.4 8.62c-.4 4.95-.64 15.47-.64 15.47h-2.8S9 56.82 8.76 52.14c-.25-4.7.9-8.75 3.3-13.45 2.4-4.7 5.44-7.5 5.44-7.5l11 .4z"/>
  <path fill="#FFE6E1" d="M15.62 21.56l-.64 1.65-8.6-10.9s.76-2.2.12-3.3c-.63-1-1 .3-1 .3s-2.54.4-2.42 1.9C3.2 12.7 5.24 13 5.24 13l5.96 11.9s3.4 4.17 6.03.62C19.9 21.96 19 21.3 19 21.3l-3.4.27z"/>
  <path fill="none" stroke="#000" stroke-width="1.5" stroke-miterlimit="10" d="M4.32 127V13.7C4.32 3.55 16 8.96 9.87 31.96" stroke-linecap="round" stroke-linejoin="round"/>
  <path fill="#FFE6E1" d="M24.98 18.26s3.42 2.54 3.42 4.57c-3.42 3.42-6.45 5.96-6.45 5.96L4.1 27.7S1.18 28.9.17 28c-1-.9 2.8-2.02 2.8-2.02l-.65-1.4s-.25-.77 1.4.63c.5.7.5.5 1.64.5s14.43-.3 14.43-.3 3.8-6.6 5.1-7.1"/>
</svg>
